<svg width="42" height="42" viewBox="0 0 42 42" fill="none" xmlns="http://www.w3.org/2000/svg">
<circle cx="21" cy="21" r="21" fill="#EF4444"/>
<path d="M14.2929 26.2929C13.9024 26.6834 13.9024 27.3166 14.2929 27.7071C14.6834 28.0976 15.3166 28.0976 15.7071 27.7071L14.2929 26.2929ZM27.7071 15.7071C28.0976 15.3166 28.0976 14.6834 27.7071 14.2929C27.3166 13.9024 26.6834 13.9024 26.2929 14.2929L27.7071 15.7071ZM15.7071 14.2929C15.3166 13.9024 14.6834 13.9024 14.2929 14.2929C13.9024 14.6834 13.9024 15.3166 14.2929 15.7071L15.7071 14.2929ZM26.2929 27.7071C26.6834 28.0976 27.3166 28.0976 27.7071 27.7071C28.0976 27.3166 28.0976 26.6834 27.7071 26.2929L26.2929 27.7071ZM15.7071 27.7071L27.7071 15.7071L26.2929 14.2929L14.2929 26.2929L15.7071 27.7071ZM14.2929 15.7071L26.2929 27.7071L27.7071 26.2929L15.7071 14.2929L14.2929 15.7071Z" fill="white"/>
</svg>
