<?xml version="1.0" standalone="no"?>
<!DOCTYPE svg PUBLIC "-//W3C//DTD SVG 20010904//EN"
 "http://www.w3.org/TR/2001/REC-SVG-20010904/DTD/svg10.dtd">
<svg version="1.0" xmlns="http://www.w3.org/2000/svg"
 width="1181.000000pt" height="413.000000pt" viewBox="0 0 1181.000000 413.000000"
 preserveAspectRatio="xMidYMid meet">
<metadata>
Created by potrace 1.16, written by Peter Selinger 2001-2019
</metadata>
<g transform="translate(0.000000,413.000000) scale(0.100000,-0.100000)"
fill="#FFFFFF" stroke="none">
<path d="M292 3797 c-31 -33 -31 -106 1 -134 12 -11 361 -246 775 -522 l753
-501 207 2 207 3 9 27 c8 21 6 32 -7 46 -10 11 -383 263 -830 561 l-812 541
-141 0 c-134 0 -142 -1 -162 -23z"/>
<path d="M1095 3796 c-9 -14 -15 -39 -13 -58 3 -32 26 -49 643 -460 548 -366
645 -428 676 -428 71 0 69 -17 69 487 0 423 -1 451 -18 466 -17 15 -79 17
-680 17 l-662 0 -15 -24z"/>
<path d="M2647 3802 c-15 -16 -17 -84 -19 -676 l-3 -658 -24 -19 c-23 -18 -56
-19 -1161 -19 -1089 0 -1138 -1 -1153 -18 -15 -17 -17 -56 -17 -349 0 -307 1
-331 18 -346 17 -16 112 -17 1154 -17 1103 0 1136 -1 1159 -19 l24 -19 3 -658
c2 -592 4 -660 19 -676 15 -17 40 -18 322 -18 168 0 311 4 317 8 34 22 34 33
34 1747 0 1714 0 1725 -34 1747 -6 4 -149 8 -317 8 -282 0 -307 -1 -322 -18z"/>
<path d="M3496 3804 c-3 -9 -6 -343 -6 -743 0 -552 3 -730 12 -739 18 -18 342
-17 357 1 7 9 12 122 13 348 l3 334 98 -173 98 -172 124 0 c145 0 117 -23 246
203 l84 149 5 -349 5 -348 175 -3 c156 -2 176 -1 187 15 19 25 19 1451 0 1476
-11 16 -32 17 -191 15 l-178 -3 -152 -297 c-143 -281 -168 -320 -196 -303 -5
3 -78 141 -161 305 l-151 300 -183 0 c-158 0 -184 -2 -189 -16z"/>
<path d="M5591 3802 c-5 -10 -125 -336 -266 -725 -161 -445 -255 -717 -253
-734 l3 -28 181 -3 c137 -2 184 1 192 10 5 7 22 51 36 98 15 46 32 90 38 97 8
10 61 13 222 13 116 0 216 -4 222 -8 6 -4 24 -47 40 -97 15 -49 32 -96 37
-103 8 -9 53 -12 191 -10 l181 3 3 28 c2 18 -89 283 -253 735 -142 389 -262
715 -267 725 -8 15 -26 17 -153 17 -128 0 -145 -2 -154 -18z m273 -944 c-6 -9
-217 -11 -226 -2 -3 3 21 87 55 187 l61 182 57 -179 c32 -99 56 -183 53 -188z"/>
<path d="M6592 3808 c-16 -16 -17 -1449 -2 -1479 10 -18 25 -19 338 -19 361 0
404 5 515 61 76 39 172 134 209 209 57 115 63 157 63 485 0 327 -6 368 -62
484 -34 71 -142 179 -213 213 -113 54 -150 58 -507 58 -243 0 -332 -3 -341
-12z m635 -349 c30 -14 52 -35 70 -66 24 -41 27 -59 34 -187 10 -182 -2 -410
-23 -451 -21 -39 -66 -81 -101 -94 -16 -6 -78 -11 -138 -11 l-109 0 0 415 0
415 112 0 c93 0 119 -4 155 -21z"/>
<path d="M7972 3808 c-17 -17 -17 -1469 0 -1486 17 -17 999 -17 1016 0 8 8 12
57 12 153 0 125 -2 144 -18 158 -16 15 -53 17 -318 17 -220 0 -303 3 -312 12
-15 15 -16 191 -2 219 10 18 24 19 268 19 187 0 261 3 270 12 17 17 17 299 0
316 -9 9 -81 12 -264 12 -216 0 -255 2 -268 16 -20 19 -23 193 -4 212 9 9 91
12 308 12 251 0 299 2 318 16 21 14 22 22 22 158 0 97 -4 146 -12 154 -17 17
-999 17 -1016 0z"/>
<path d="M9726 3804 c-8 -20 -8 -1458 0 -1478 5 -14 31 -16 178 -16 120 0 176
4 184 12 17 17 17 1469 0 1486 -8 8 -64 12 -184 12 -147 0 -173 -2 -178 -16z"/>
<path d="M10355 3808 c-3 -7 -4 -346 -3 -753 l3 -740 176 -3 c139 -2 179 0
187 11 8 9 13 112 14 323 l3 309 25 3 c23 2 44 -28 230 -320 l206 -323 164 0
165 0 0 750 0 750 -174 3 c-115 2 -178 -1 -185 -8 -7 -7 -13 -120 -16 -323
l-5 -312 -25 0 c-21 0 -51 42 -230 322 l-205 323 -163 0 c-121 0 -164 -3 -167
-12z"/>
<path d="M293 3315 l-23 -16 0 -314 c0 -313 0 -314 22 -329 20 -14 80 -16 456
-16 l433 0 24 25 c25 24 31 49 19 80 -10 26 -844 579 -879 583 -17 2 -40 -4
-52 -13z"/>
<path d="M3502 1868 c-9 -9 -12 -194 -12 -769 0 -417 3 -764 6 -773 5 -14 50
-16 398 -16 332 0 401 2 447 16 157 47 256 139 305 284 14 40 19 83 18 160 0
137 -22 196 -105 282 -32 33 -59 62 -59 64 0 2 20 26 45 54 87 98 116 195 96
327 -30 200 -150 325 -354 367 -98 21 -765 24 -785 4z m714 -379 c34 -35 43
-102 19 -148 -25 -49 -65 -61 -209 -61 -149 0 -146 -2 -146 120 0 126 -5 122
166 118 140 -3 144 -4 170 -29z m-6 -584 c39 -20 60 -63 60 -120 0 -38 -6 -52
-34 -83 l-34 -37 -145 -3 c-181 -4 -177 -7 -177 124 0 139 -7 134 161 134 106
0 147 -4 169 -15z"/>
<path d="M4941 1866 c-8 -9 -10 -222 -9 -782 l3 -769 179 -3 c123 -2 183 1
192 9 11 9 14 65 14 290 l0 279 59 0 58 0 127 -267 c70 -148 134 -278 142
-291 14 -22 18 -22 219 -22 198 0 205 1 216 21 9 18 6 31 -18 78 -156 298
-273 530 -273 539 0 6 27 32 60 57 106 84 166 197 176 334 19 254 -148 472
-401 526 -98 21 -727 22 -744 1z m677 -366 c100 -61 96 -207 -8 -261 -28 -15
-57 -19 -150 -19 -77 0 -120 4 -128 12 -8 8 -12 53 -12 138 0 85 4 130 12 138
8 8 52 12 133 12 102 0 125 -3 153 -20z"/>
<path d="M6371 1866 c-8 -9 -10 -222 -9 -782 l3 -769 190 0 190 0 3 769 c1
560 -1 773 -9 782 -9 11 -51 14 -184 14 -133 0 -175 -3 -184 -14z"/>
<path d="M6981 1866 c-8 -9 -11 -64 -9 -172 l3 -159 175 -5 c96 -3 181 -9 188
-13 9 -6 12 -137 12 -596 0 -443 3 -590 12 -599 8 -8 65 -12 190 -12 165 0
178 1 188 19 6 13 10 219 10 600 0 563 1 581 19 591 11 6 88 10 178 10 110 0
163 4 171 12 8 8 12 59 12 163 0 104 -4 155 -12 163 -19 19 -1121 17 -1137 -2z"/>
<path d="M8628 1867 c-7 -8 -137 -353 -287 -767 -207 -569 -271 -757 -264
-769 9 -14 39 -16 195 -19 141 -2 188 1 195 10 6 7 25 56 42 110 18 54 39 99
47 102 9 3 111 6 229 6 185 0 214 -2 226 -16 8 -9 28 -60 44 -113 l31 -96 194
0 195 0 3 26 c3 26 -516 1472 -544 1517 -14 21 -20 22 -154 22 -102 0 -142 -3
-152 -13z m223 -805 c31 -97 54 -180 52 -184 -6 -11 -231 -10 -237 1 -7 11
116 372 124 364 3 -2 30 -84 61 -181z"/>
<path d="M9661 1866 c-8 -9 -10 -222 -9 -782 l3 -769 190 0 190 0 3 769 c1
560 -1 773 -9 782 -9 11 -51 14 -184 14 -133 0 -175 -3 -184 -14z"/>
<path d="M10316 1864 c-14 -14 -16 -98 -16 -773 0 -575 3 -760 12 -769 17 -17
359 -17 376 0 9 9 12 96 12 329 0 268 2 318 15 329 8 7 21 10 28 7 8 -3 110
-156 228 -341 l214 -336 170 2 170 3 3 769 c1 560 -1 773 -9 782 -15 19 -349
20 -367 2 -9 -9 -12 -97 -12 -335 0 -304 -1 -323 -19 -332 -13 -7 -23 -7 -34
2 -8 7 -108 158 -222 337 -114 179 -212 328 -219 332 -6 4 -79 8 -163 8 -125
0 -154 -3 -167 -16z"/>
<path d="M292 1474 c-22 -15 -22 -16 -22 -329 l0 -315 25 -16 c14 -9 37 -14
52 -12 34 5 868 560 877 583 12 31 6 56 -19 80 l-24 25 -433 0 c-376 0 -436
-2 -456 -16z"/>
<path d="M1068 989 c-414 -276 -763 -511 -775 -522 -33 -29 -32 -105 0 -135
22 -20 33 -22 163 -22 l139 0 812 541 c447 298 820 550 830 561 13 14 15 25 7
46 l-9 27 -207 3 -207 2 -753 -501z"/>
<path d="M1733 858 l-648 -433 -3 -38 c-2 -26 2 -45 14 -58 16 -18 41 -19 679
-19 629 0 663 1 678 18 15 17 17 64 17 470 l0 451 -26 20 c-15 12 -35 21 -45
21 -10 0 -310 -195 -666 -432z"/>
</g>
</svg>
