<svg width="20" height="20" viewBox="0 0 20 20" fill="none" xmlns="http://www.w3.org/2000/svg">
<path d="M12.3738 3.45964C11.9832 3.06912 11.3501 3.06912 10.9596 3.45964C10.569 3.85017 10.569 4.48333 10.9596 4.87385L12.3738 3.45964ZM16.7929 10.7072C17.1834 11.0977 17.8166 11.0977 18.2071 10.7072C18.5976 10.3167 18.5976 9.6835 18.2071 9.29297L16.7929 10.7072ZM18.2071 10.7072C18.5976 10.3167 18.5976 9.6835 18.2071 9.29297C17.8166 8.90245 17.1834 8.90245 16.7929 9.29297L18.2071 10.7072ZM10.9596 15.1263C10.569 15.5168 10.569 16.15 10.9596 16.5405C11.3501 16.931 11.9832 16.931 12.3738 16.5405L10.9596 15.1263ZM17.5 11.0001C18.0523 11.0001 18.5 10.5524 18.5 10.0001C18.5 9.4478 18.0523 9.00008 17.5 9.00008V11.0001ZM2.5 9.00008C1.94772 9.00008 1.5 9.4478 1.5 10.0001C1.5 10.5524 1.94772 11.0001 2.5 11.0001V9.00008ZM10.9596 4.87385L16.7929 10.7072L18.2071 9.29297L12.3738 3.45964L10.9596 4.87385ZM16.7929 9.29297L10.9596 15.1263L12.3738 16.5405L18.2071 10.7072L16.7929 9.29297ZM17.5 9.00008H2.5V11.0001H17.5V9.00008Z" fill="#FFFFFF"/>
</svg>
