<svg width="20" height="20" viewBox="0 0 20 20" fill="none" xmlns="http://www.w3.org/2000/svg">
<path d="M7.62623 16.5405C8.01675 16.931 8.64992 16.931 9.04044 16.5405C9.43096 16.15 9.43096 15.5168 9.04044 15.1263L7.62623 16.5405ZM3.20711 9.29297C2.81658 8.90245 2.18342 8.90245 1.79289 9.29297C1.40237 9.6835 1.40237 10.3167 1.79289 10.7072L3.20711 9.29297ZM1.79289 9.29297C1.40237 9.6835 1.40237 10.3167 1.79289 10.7072C2.18342 11.0977 2.81658 11.0977 3.20711 10.7072L1.79289 9.29297ZM9.04044 4.87385C9.43096 4.48333 9.43096 3.85017 9.04044 3.45964C8.64992 3.06912 8.01675 3.06912 7.62623 3.45964L9.04044 4.87385ZM2.5 9.00008C1.94772 9.00008 1.5 9.4478 1.5 10.0001C1.5 10.5524 1.94772 11.0001 2.5 11.0001V9.00008ZM17.5 11.0001C18.0523 11.0001 18.5 10.5524 18.5 10.0001C18.5 9.4478 18.0523 9.00008 17.5 9.00008V11.0001ZM9.04044 15.1263L3.20711 9.29297L1.79289 10.7072L7.62623 16.5405L9.04044 15.1263ZM3.20711 10.7072L9.04044 4.87385L7.62623 3.45964L1.79289 9.29297L3.20711 10.7072ZM2.5 11.0001H17.5V9.00008H2.5V11.0001Z" fill="#FFFFFF"/>
</svg>
