<svg width="243" height="55" viewBox="0 0 243 55" fill="none" xmlns="http://www.w3.org/2000/svg">
<path d="M7.06799 22.8442C8.20132 22.1735 9.59466 21.8161 11.2187 21.8161C13.9453 21.8161 16.492 22.8882 18.504 24.9442C20.5587 27.0455 21.632 29.8161 21.632 32.7655C21.632 35.7148 20.5587 38.5308 18.504 40.5868C16.448 42.6868 13.676 43.8495 10.816 43.8495C6.66 43.8495 3.39734 42.1508 1.52001 39.0668C0.0893377 36.6988 0 33.7935 0 30.0388V28.7882V11.4028H5.67601V23.9615L5.69187 32.2882C5.68129 32.4454 5.67601 32.6041 5.67601 32.7655C5.67601 36.0282 7.82132 38.1735 10.772 38.1735C13.5427 38.1735 15.8213 35.8495 15.8213 32.7655C15.8213 29.6815 13.5867 27.3135 10.6373 27.3135C9.89067 27.3135 9.19867 27.4643 8.58534 27.7415L7.06799 22.8442Z" fill="#222222"/>
<path d="M66.3355 16.1778C66.3355 16.1778 69.6049 15.3818 71.6849 18.1151L75.5062 14.5845C75.5062 14.5845 72.2649 10.5698 66.8475 10.7631C62.5449 10.9166 57.4635 13.2778 56.7369 21.5378L54.0889 21.5404V27.0791H56.7755V43.3164H62.2102V27.0791H64.8329V21.5404H62.2035C62.3382 18.6804 63.9675 16.8031 66.3355 16.1778" fill="#222222"/>
<path d="M26.6514 0V11.6813L32.4553 32.288L37.462 11.392L43.3394 32.36L48.1287 11.7547V0H26.6514Z" fill="#222222"/>
<path d="M43.4476 43.9152L48.4182 22.2751V54.4179H27.1582V23.0725L32.5275 43.8965L37.6795 22.2751L43.4476 43.9152Z" fill="#222222"/>
<path d="M86.9752 13.318H88.9632C90.1472 13.318 90.8739 13.2605 91.6392 12.954C92.5179 12.5927 93.1299 11.6167 93.1299 10.546C93.1299 9.45668 92.4032 8.52072 91.4672 8.15804C90.7979 7.89007 90.2245 7.8326 88.7152 7.8326H86.9752V13.318ZM86.9752 6.55265H88.7526C89.8605 6.55265 90.4912 6.49521 91.1805 6.15132C91.8485 5.80738 92.3272 5.00466 92.3272 4.16334C92.3272 3.51402 92.0979 3.05396 91.7339 2.61527C91.1805 1.98462 90.3192 1.73533 88.8672 1.73533H86.9752V6.55265ZM85.5605 0.455322H89.1152C93.5685 0.455322 93.7405 3.64731 93.7405 4.22066C93.7405 5.88331 92.6899 6.66596 92.1925 7.06863C93.6072 7.64062 94.5432 8.92199 94.5432 10.546C94.5432 11.9033 93.9125 13.146 92.9192 13.8153C91.7152 14.522 90.7792 14.618 89.1152 14.598H85.5605V0.455322Z" fill="#222222"/>
<path d="M112.711 0.455078H116.304C118.196 0.455078 119.132 0.684511 119.783 0.989746C121.368 1.73511 122.306 3.28307 122.306 5.02308C122.306 7.06841 120.834 9.15107 118.1 9.32303L122.095 14.5977H120.318L115.52 8.19505C117.318 8.19505 117.928 8.17613 118.559 7.98564C120.107 7.54563 120.891 6.24563 120.891 4.98433C120.891 3.87632 120.26 2.72965 119.343 2.27097C118.502 1.83099 117.776 1.73503 116.591 1.73503H114.126V14.5976H112.711V0.455078Z" fill="#222222"/>
<path d="M140.683 0.455811H142.097V14.5985H140.683V0.455811Z" fill="#222222"/>
<path d="M163.169 1.73533H159.921V0.455322H167.813V1.73533H164.584V14.598H163.169V1.73533Z" fill="#222222"/>
<path d="M185.655 0.455811H187.07V14.5985H185.655V0.455811Z" fill="#222222"/>
<path d="M206.612 10.642C206.688 12.4193 207.816 13.566 209.556 13.566C211.047 13.566 212.404 12.4193 212.404 10.7566C212.404 8.57796 210.205 8.02327 209.249 7.73663C207.969 7.35528 205.58 6.81929 205.58 4.00993C205.58 1.81126 207.319 0.207275 209.556 0.207275C211.868 0.207275 213.473 1.9833 213.473 4.04863H212.059C212.059 2.61399 210.893 1.48728 209.556 1.48728C207.931 1.48728 206.995 2.72996 206.995 3.9526C206.995 5.67263 208.504 6.07395 210.359 6.60864C213.836 7.54597 213.817 10.2793 213.817 10.6993C213.817 12.878 212.059 14.846 209.556 14.846C207.721 14.846 205.255 13.7567 205.197 10.642H206.612Z" fill="#222222"/>
<path d="M232.004 0.455078H233.419V6.68574H240.739V0.455078H242.152V14.5977H240.739V7.96575H233.419V14.5977H232.004V0.455078Z" fill="#222222"/>
<path d="M84.3564 19.5703H85.8098L89.2685 31.897H89.3059L92.6699 19.5703H93.9885L97.3725 31.8783H97.41L100.87 19.5703H102.303L98.2513 33.713H96.4538L93.3391 22.1116H93.3005L90.2045 33.713H88.3898L84.3564 19.5703Z" fill="#222222"/>
<path d="M110.859 32.6815C114.127 32.6815 116.936 30.0255 116.936 26.6602C116.936 23.3548 114.203 20.6029 110.859 20.6029C107.667 20.6029 104.8 23.2015 104.8 26.7188C104.8 29.9482 107.572 32.6815 110.859 32.6815ZM110.859 19.3215C114.835 19.3215 118.351 22.4762 118.351 26.6415C118.351 30.8082 114.815 33.9615 110.859 33.9615C106.846 33.9615 103.386 30.6935 103.386 26.7188C103.386 22.2655 107.094 19.3215 110.859 19.3215" fill="#222222"/>
<path d="M127.537 32.6815C130.805 32.6815 133.614 30.0255 133.614 26.6602C133.614 23.3548 130.881 20.6029 127.537 20.6029C124.345 20.6029 121.478 23.2015 121.478 26.7188C121.478 29.9482 124.25 32.6815 127.537 32.6815ZM127.537 19.3215C131.513 19.3215 135.029 22.4762 135.029 26.6415C135.029 30.8082 131.493 33.9615 127.537 33.9615C123.523 33.9615 120.063 30.6935 120.063 26.7188C120.063 22.2655 123.771 19.3215 127.537 19.3215" fill="#222222"/>
<path d="M138.749 32.433H140.794C142.074 32.433 144.023 32.433 145.649 31.2863C146.509 30.5596 147.865 29.0889 147.865 26.6223C147.865 24.7503 146.929 23.0103 145.457 21.9396C144.195 21.1183 142.877 20.8503 140.794 20.8503H138.749V32.433ZM137.334 19.5703H141.462C143.202 19.5703 144.922 19.9916 146.069 20.7356C148.553 22.2836 149.279 24.9796 149.279 26.6796C149.279 27.9996 148.763 30.8276 146.069 32.5476C144.922 33.2929 143.202 33.713 141.462 33.713H137.334V19.5703Z" fill="#222222"/>
<path d="M150.419 19.5703H151.871L155.331 31.897H155.369L158.733 19.5703H160.051L163.435 31.8783H163.473L166.933 19.5703H168.367L164.315 33.713H162.517L159.403 22.1116H159.364L156.268 33.713H154.453L150.419 19.5703Z" fill="#222222"/>
<path d="M176.922 32.6815C180.19 32.6815 182.999 30.0255 182.999 26.6602C182.999 23.3548 180.266 20.6029 176.922 20.6029C173.73 20.6029 170.863 23.2015 170.863 26.7188C170.863 29.9482 173.635 32.6815 176.922 32.6815ZM176.922 19.3215C180.896 19.3215 184.414 22.4762 184.414 26.6415C184.414 30.8082 180.878 33.9615 176.922 33.9615C172.908 33.9615 169.448 30.6935 169.448 26.7188C169.448 22.2655 173.156 19.3215 176.922 19.3215" fill="#222222"/>
<path d="M186.643 19.5703H190.236C192.128 19.5703 193.065 19.7997 193.715 20.105C195.301 20.8503 196.237 22.3983 196.237 24.1383C196.237 26.1836 194.765 28.2663 192.032 28.4383L196.027 33.713H194.249L189.452 27.3103C191.248 27.3103 191.86 27.2914 192.491 27.1009C194.039 26.6609 194.823 25.3609 194.823 24.0996C194.823 22.9916 194.192 21.8449 193.275 21.3862C192.435 20.9462 191.707 20.8503 190.523 20.8503H188.057V33.7129H186.643V19.5703Z" fill="#222222"/>
<path d="M198.523 19.5703H199.937V27.693H199.976L206.454 19.5703H208.27L202.67 26.4703L208.27 33.713H206.492L201.772 27.5783L199.937 29.833V33.713H198.522L198.523 19.5703Z" fill="#222222"/>
<path d="M209.791 19.5706H211.206V33.7132H209.791V19.5706Z" fill="#222222"/>
<path d="M214.159 19.5703H216.071L223.963 31.305H224.002V19.5703H225.416V33.713H224.002L215.612 21.2716H215.574V33.713H214.159L214.159 19.5703Z" fill="#222222"/>
<path d="M242.763 27.2148C242.438 31.4202 238.768 33.9616 235.291 33.9616C231.067 33.9616 227.703 30.5402 227.703 26.6415C227.703 22.9722 230.742 19.3215 235.271 19.3215C239.018 19.3215 241.406 21.9015 241.96 23.3349H240.316C239.514 21.9402 237.64 20.6015 235.291 20.6015C231.716 20.6015 229.116 23.5069 229.116 26.6602C229.116 29.8149 231.716 32.6815 235.348 32.6815C238.348 32.6815 240.566 30.4642 241.062 28.4962H233.168V27.2148H242.763Z" fill="#222222"/>
<path d="M85.2324 39.8564H92.3804V41.1378H86.6471V46.2591H92.1698V47.5405H86.6471V54.0004H85.2324V39.8564Z" fill="#222222"/>
<path d="M99.6709 39.8564H107.411V41.1378H101.086V46.2205H107.202V47.5018H101.086V52.7191H107.411V54.0004H99.6709V39.8564Z" fill="#222222"/>
<path d="M116.576 52.7192H118.621C119.901 52.7192 121.85 52.7191 123.476 51.5724C124.336 50.8458 125.692 49.3752 125.692 46.9098C125.692 45.0365 124.756 43.2978 123.284 42.2271C122.022 41.4045 120.704 41.1378 118.621 41.1378H116.576V52.7192ZM115.161 39.8564H119.29C121.029 39.8564 122.749 40.2778 123.896 41.0231C126.38 42.5711 127.106 45.2658 127.106 46.9658C127.106 48.2858 126.59 51.1138 123.896 52.8338C122.749 53.5805 121.029 54.0005 119.29 54.0005H115.161V39.8564Z" fill="#222222"/>
<path d="M134.474 39.8564H142.214V41.1378H135.888V46.2205H142.004V47.5018H135.888V52.7191H142.214V54.0004H134.474V39.8564Z" fill="#222222"/>
<path d="M149.888 39.8564H153.481C155.373 39.8564 156.31 40.0859 156.96 40.3911C158.546 41.1378 159.482 42.6858 159.482 44.4245C159.482 46.4698 158.01 48.5538 155.277 48.7258L159.272 54.0004H157.494L152.697 47.5978C154.494 47.5978 155.105 47.5789 155.737 47.3873C157.284 46.9486 158.068 45.6486 158.068 44.3873C158.068 43.2792 157.437 42.1313 156.52 41.6726C155.68 41.2326 154.953 41.138 153.768 41.138H151.302V54.0007H149.888V39.8564Z" fill="#222222"/>
<path d="M169.62 47.961H175.106L172.391 41.4623L169.62 47.961ZM171.588 39.8569H173.175L179.252 54.001H177.704L175.66 49.2409H169.086L167.022 54.001H165.55L171.588 39.8569Z" fill="#222222"/>
<path d="M187.997 41.1375H184.748V39.8562H192.641V41.1375H189.412V54.0002H187.997V41.1375Z" fill="#222222"/>
<path d="M199.396 39.8572H200.811V54.0012H199.396V39.8572Z" fill="#222222"/>
<path d="M215.726 52.9675C218.994 52.9675 221.805 50.3116 221.805 46.9476C221.805 43.6409 219.07 40.8889 215.726 40.8889C212.534 40.8889 209.667 43.4889 209.667 47.0049C209.667 50.2342 212.439 52.9675 215.726 52.9675V52.9675ZM215.726 39.6089C219.702 39.6089 223.218 42.7622 223.218 46.9275C223.218 51.0942 219.682 54.2488 215.726 54.2488C211.713 54.2488 208.254 50.9796 208.254 47.0049C208.254 42.5516 211.961 39.6089 215.726 39.6089" fill="#222222"/>
<path d="M230.644 39.8564H232.556L240.448 51.5924H240.486V39.8564H241.901V54.0004H240.486L232.097 41.5578H232.058V54.0004H230.644L230.644 39.8564Z" fill="#222222"/>
</svg>
