<svg width="517" height="265" viewBox="0 0 517 265" fill="none" xmlns="http://www.w3.org/2000/svg">
<g clip-path="url(#clip0)">
<path d="M39.7098 208.4C35.9001 209.969 31.8293 210.807 27.7098 210.87C20.5044 210.837 13.5767 208.087 8.30984 203.17C2.82984 197.93 0.0898438 191.17 0.0898438 182.83C0.0898438 166.75 10.5298 155.38 25.3398 155.38C30.7174 155.23 35.9616 157.067 40.0698 160.54L41.8098 156.73H48.1098V175.05H41.1098C40.2898 171.61 39.6198 169.82 38.1098 168.17C35.6698 165.48 31.4498 163.83 27.1098 163.83C17.3398 163.83 10.0098 171.69 10.0098 182.3C10.0098 193.37 17.7098 201.37 28.2198 201.37C35.0298 201.37 39.8398 198.08 41.0298 192.7H48.0298V203.31C45.426 205.332 42.5932 207.041 39.5898 208.4" fill="#222222"/>
<path d="M68.95 210.12C65.5604 210.126 62.2451 209.126 59.4239 207.247C56.6028 205.368 54.4025 202.694 53.1017 199.564C51.8008 196.434 51.4579 192.988 52.1163 189.663C52.7747 186.338 54.4048 183.283 56.8002 180.884C59.1957 178.486 62.2489 176.853 65.5732 176.19C68.8976 175.528 72.3437 175.867 75.4754 177.164C78.6071 178.461 81.2835 180.658 83.1659 183.477C85.0483 186.296 86.052 189.61 86.05 193C86.066 195.251 85.6347 197.483 84.7812 199.566C83.9278 201.649 82.6691 203.542 81.0783 205.134C79.4875 206.727 77.5962 207.988 75.5143 208.844C73.4323 209.699 71.201 210.133 68.95 210.12V210.12ZM68.88 184.12C64.29 184.12 60.96 187.79 60.96 192.87C60.96 198.18 64.14 201.77 68.88 201.77C73.62 201.77 76.81 198.23 76.81 193C76.81 187.77 73.47 184.17 68.88 184.17V184.12Z" fill="#222222"/>
<path d="M114.81 209.52V191.35C114.81 186.12 112.88 183.72 108.74 183.72C104.6 183.72 102 186.72 102 191.72V201.82H105.7V209.52H89.0098V201.82H92.9398V184.17H89.0098V176.55H102.01V182.3C104.68 177.74 107.64 175.87 112.45 175.87C114.352 175.818 116.237 176.234 117.941 177.082C119.644 177.929 121.114 179.182 122.22 180.73C123.22 182.23 123.92 185.29 123.92 188.06V201.82H127.33V209.52H114.81" fill="#222222"/>
<path d="M144.98 210.12C141.5 210.12 139.35 209.37 136.24 206.9L134.54 209.52H130.54V197.52H136.24C136.537 198.987 137.114 200.382 137.94 201.63C138.596 202.38 139.405 202.981 140.312 203.393C141.219 203.805 142.204 204.019 143.2 204.02C145.35 204.02 146.68 202.75 146.68 200.88C146.711 200.27 146.568 199.664 146.267 199.132C145.966 198.601 145.519 198.167 144.98 197.88C143.543 197.281 142.058 196.806 140.54 196.46C133.35 194.46 130.62 191.75 130.62 186.29C130.62 179.79 134.91 175.82 141.94 175.82C143.461 175.707 144.989 175.908 146.429 176.41C147.868 176.912 149.19 177.705 150.31 178.74L151.31 176.5H154.94V187.19H149.81C148.81 183.6 146.7 181.66 143.81 181.66C141.59 181.66 140.04 183.08 140.04 184.87C140.04 186.22 140.85 187.26 142.48 187.94C144.194 188.565 145.952 189.063 147.74 189.43C153.14 190.85 156.47 194.67 156.47 199.6C156.47 205.81 151.73 210.07 145 210.07" fill="#222222"/>
<path d="M171.41 210.12C165.63 210.12 162.52 207.58 162.52 202.72V184.17H158.6V176.55H162.52V169.14L171.63 165.14V176.51H177.18V184.13H171.63V197.29C171.63 200.88 172.29 201.93 174.44 201.93C175.4 201.903 176.339 201.646 177.18 201.18V208.73C175.4 209.658 173.416 210.122 171.41 210.08" fill="#222222"/>
<path d="M200.57 183.65C196.28 183.65 193.69 186.49 193.69 191.35V201.82H197.54V209.52H180.66V201.82H184.51V184.17H180.66V176.55H192.95V182.83C195.61 177.52 198.57 175.5 203.39 175.42V184.17C202.485 183.843 201.532 183.668 200.57 183.65" fill="#222222"/>
<path d="M231.74 209.52V203.61C229.15 208.4 226.33 210.27 221.45 210.27C219.502 210.355 217.564 209.947 215.816 209.083C214.068 208.22 212.566 206.929 211.45 205.33C210.45 203.84 209.67 200.7 209.67 197.93V184.17H206.04V176.55H218.85V194.72C218.85 199.95 220.85 202.42 225.07 202.42C229.29 202.42 231.73 199.42 231.73 194.34V184.17H228.11V176.55H240.92V201.82H244.54V209.52H231.74" fill="#222222"/>
<path d="M265.35 210.12C254.35 210.12 246.84 203.12 246.84 193.07C246.779 190.79 247.184 188.522 248.03 186.405C248.876 184.287 250.145 182.364 251.76 180.754C253.375 179.144 255.301 177.88 257.421 177.041C259.541 176.201 261.811 175.802 264.09 175.87C268.09 175.87 271.09 177 273.42 179.31L275.86 176.55H279.71V190.38H273.42C272.31 185.82 269.57 183.58 265.13 183.58C263.92 183.532 262.713 183.735 261.585 184.177C260.458 184.618 259.434 185.288 258.578 186.145C257.722 187.002 257.053 188.027 256.613 189.155C256.173 190.283 255.971 191.49 256.02 192.7C256.02 198.31 260.09 202.49 265.42 202.49C269.72 202.49 272.42 200.32 273.42 196.06H279.71V204.66C276.45 208.25 271.42 210.12 265.35 210.12" fill="#222222"/>
<path d="M295.4 210.12C289.63 210.12 286.52 207.58 286.52 202.72V184.17H282.6V176.55H286.52V169.14L295.63 165.14V176.51H301.18V184.13H295.63V197.29C295.63 200.88 296.29 201.93 298.44 201.93C299.4 201.903 300.339 201.646 301.18 201.18V208.73C299.396 209.657 297.409 210.121 295.4 210.08" fill="#222222"/>
<path d="M304.88 209.52V201.82H308.81V184.17H304.89V176.55H317.99V201.82H321.81V209.52H304.88V209.52ZM313.47 168C311.879 168 310.352 167.368 309.227 166.243C308.102 165.117 307.47 163.591 307.47 162C307.492 160.845 307.853 159.721 308.508 158.77C309.164 157.818 310.085 157.08 311.156 156.648C312.228 156.216 313.403 156.109 314.535 156.34C315.667 156.57 316.707 157.129 317.524 157.946C318.341 158.763 318.899 159.802 319.13 160.935C319.361 162.067 319.254 163.242 318.821 164.314C318.389 165.385 317.652 166.306 316.7 166.962C315.749 167.617 314.625 167.978 313.47 168V168Z" fill="#222222"/>
<path d="M341.15 210.12C337.761 210.126 334.445 209.126 331.624 207.247C328.803 205.368 326.603 202.694 325.302 199.564C324.001 196.434 323.658 192.988 324.316 189.663C324.975 186.338 326.605 183.283 329 180.884C331.396 178.486 334.449 176.853 337.773 176.19C341.098 175.528 344.544 175.867 347.676 177.164C350.807 178.461 353.484 180.658 355.366 183.477C357.248 186.296 358.252 189.61 358.25 193C358.266 195.251 357.835 197.483 356.981 199.566C356.128 201.649 354.869 203.542 353.279 205.134C351.688 206.727 349.796 207.988 347.714 208.844C345.632 209.699 343.401 210.133 341.15 210.12V210.12ZM341.08 184.12C336.49 184.12 333.16 187.79 333.16 192.87C333.16 198.18 336.34 201.77 341.08 201.77C345.82 201.77 349 198.18 349 192.95C349 187.72 345.67 184.17 341.08 184.17V184.12Z" fill="#222222"/>
<path d="M387.05 209.52V191.35C387.05 186.12 385.12 183.72 380.98 183.72C376.84 183.72 374.24 186.72 374.24 191.72V201.82H377.94V209.52H361.22V201.82H365.14V184.17H361.22V176.55H374.22V182.3C376.89 177.74 379.85 175.87 384.66 175.87C386.562 175.816 388.449 176.231 390.152 177.078C391.856 177.926 393.325 179.18 394.43 180.73C395.43 182.23 396.14 185.29 396.14 188.06V201.82H399.54V209.52H387.05" fill="#222222"/>
<path d="M403.34 209.52V201.82H406.97V164.43H403.34V156.73H416.15V201.82H419.92V209.52H403.34Z" fill="#222222"/>
<path d="M423.25 209.52V201.82H427.17V184.17H423.25V176.55H436.35V201.82H440.13V209.52H423.25V209.52ZM431.81 168C430.219 168 428.693 167.368 427.567 166.243C426.442 165.117 425.81 163.591 425.81 162C425.832 160.845 426.193 159.721 426.848 158.77C427.504 157.818 428.425 157.08 429.496 156.648C430.568 156.216 431.743 156.109 432.875 156.34C434.007 156.57 435.047 157.129 435.864 157.946C436.681 158.763 437.24 159.802 437.47 160.935C437.701 162.067 437.594 163.242 437.162 164.314C436.73 165.385 435.992 166.306 435.04 166.962C434.089 167.617 432.965 167.978 431.81 168V168Z" fill="#222222"/>
<path d="M469.3 209.52V191.35C469.3 186.12 467.37 183.72 463.23 183.72C459.09 183.72 456.49 186.72 456.49 191.72V201.82H460.19V209.52H443.46V201.82H447.38V184.17H443.46V176.55H456.46V182.3C459.12 177.74 462.08 175.87 466.9 175.87C468.802 175.818 470.687 176.234 472.391 177.082C474.094 177.929 475.564 179.182 476.67 180.73C477.67 182.23 478.37 185.29 478.37 188.06V201.82H481.81V209.52H469.3" fill="#222222"/>
<path d="M512.31 206.23C509.273 208.88 505.338 210.271 501.31 210.12C491.02 210.12 483.91 203.24 483.91 193.22C483.91 183.2 490.91 175.87 500.71 175.87C510.51 175.87 516.71 182.38 516.71 193.07V194.42H492.91C492.91 199.95 496.02 203.42 501.13 203.42C504.68 203.42 506.6 201.92 507.57 198.19H516.67C515.49 202.19 514.38 204.32 512.31 206.26V206.23ZM500.46 182.18C496.46 182.18 493.95 184.65 493.13 189.18H507.64C506.81 184.62 504.39 182.15 500.46 182.15V182.18Z" fill="#222222"/>
<path d="M239.21 18.4199H92.1299V23.8499H239.21V18.4199Z" fill="#222222"/>
<path d="M245.5 0H86.8203V13.84H245.5V0Z" fill="#222222"/>
<path fill-rule="evenodd" clip-rule="evenodd" d="M215.19 153.41C216.852 153.023 218.473 152.477 220.03 151.78V57H215.19V153.41Z" fill="#222222"/>
<path fill-rule="evenodd" clip-rule="evenodd" d="M195.6 154.92C197.16 155.02 198.75 155.07 200.4 155.02C201.54 155.02 202.63 154.98 203.67 154.9V57H195.6V154.92" fill="#222222"/>
<path fill-rule="evenodd" clip-rule="evenodd" d="M110.99 139.78C120.67 140.18 129.06 140.99 136.43 142.02V57H110.99V139.78Z" fill="#222222"/>
<path fill-rule="evenodd" clip-rule="evenodd" d="M172.81 150.17C176.81 151.3 180.52 152.35 184.11 153.17V57H172.81V150.17" fill="#222222"/>
<path fill-rule="evenodd" clip-rule="evenodd" d="M145.11 143.42C151.84 144.64 157.68 146.03 162.88 147.42V57H145.11V143.42" fill="#222222"/>
<path fill-rule="evenodd" clip-rule="evenodd" d="M111.9 51.2101H219.9C219.9 51.2101 217.47 47.6501 217.47 40.9101C217.47 34.1701 223.57 30.5901 223.57 30.5901H107.57C107.57 30.5901 114.27 34.1501 114.27 40.9101C114.27 47.6701 111.85 51.2101 111.85 51.2101" fill="#222222"/>
<path d="M0 233.12H4.72C6.47122 233.01 8.22115 233.354 9.8 234.12C10.9136 234.813 11.823 235.79 12.4348 236.95C13.0467 238.111 13.3391 239.413 13.2822 240.723C13.2252 242.034 12.8208 243.306 12.1106 244.409C11.4003 245.512 10.4096 246.406 9.24 247C7.7139 247.604 6.08051 247.89 4.44 247.84H3.11V256.17H0V233.12ZM4.65 245.3C5.73564 245.35 6.817 245.133 7.8 244.67C8.53567 244.27 9.13693 243.662 9.52832 242.922C9.91971 242.182 10.0838 241.343 10 240.51C10.057 239.704 9.89581 238.898 9.53327 238.177C9.17074 237.455 8.62032 236.845 7.94 236.41C6.94265 235.877 5.81942 235.625 4.69 235.68H3.11V245.3H4.65Z" fill="#222222"/>
<path d="M26.0396 254.4C24.739 255.736 22.9638 256.505 21.0996 256.54C20.4036 256.581 19.7067 256.476 19.0537 256.232C18.4007 255.987 17.806 255.609 17.3079 255.121C16.8097 254.633 16.4191 254.047 16.161 253.399C15.903 252.751 15.7833 252.057 15.8096 251.36C15.7709 250.418 16.0174 249.487 16.517 248.687C17.0166 247.888 17.746 247.258 18.6096 246.88C19.9266 246.315 21.3465 246.029 22.7796 246.04L25.8596 245.93V245.06C25.8596 242.71 24.4196 241.7 22.4296 241.7C20.8308 241.7 19.2643 242.151 17.9096 243L16.8096 240.86C18.6224 239.775 20.6968 239.204 22.8096 239.21C26.5596 239.21 28.9396 241 28.9396 244.99V250.99C28.8642 252.723 28.9681 254.459 29.2496 256.17H26.5596L26.0396 254.38V254.4ZM23.1296 248.23C22.1277 248.206 21.1332 248.408 20.2196 248.82C19.8144 249.058 19.4809 249.401 19.2539 249.813C19.0269 250.225 18.9149 250.69 18.9296 251.16C18.9056 251.543 18.964 251.926 19.1008 252.284C19.2376 252.642 19.4496 252.967 19.7226 253.236C19.9956 253.505 20.3232 253.713 20.6832 253.845C21.0432 253.976 21.4274 254.029 21.8096 254C22.5689 253.969 23.3141 253.785 24.0012 253.46C24.6883 253.136 25.3032 252.677 25.8096 252.11V248.11L23.1296 248.23Z" fill="#222222"/>
<path d="M33.1797 239.63H35.8097L36.1597 241.63C37.9097 239.77 39.3097 239.17 40.8097 239.17C41.5081 239.153 42.1984 239.322 42.8097 239.66L41.7297 242.39C41.2459 242.121 40.703 241.977 40.1497 241.97C38.9597 241.97 37.8697 242.6 36.3297 244.11V256.11H33.1797V239.63Z" fill="#222222"/>
<path d="M46.2296 252.48V242.12H43.3896V239.63H46.2296V235.85L49.3096 234.85V239.61H54.3096L53.4696 242.1H49.3096V251.86C49.3096 253.34 49.9096 253.96 50.9896 253.96C51.9402 253.924 52.8617 253.623 53.6496 253.09L54.6496 255.23C53.3523 256.082 51.8317 256.531 50.2796 256.52C49.7326 256.576 49.1798 256.51 48.6616 256.326C48.1434 256.142 47.6727 255.845 47.2838 255.456C46.895 255.067 46.5977 254.596 46.4136 254.078C46.2295 253.56 46.1632 253.007 46.2196 252.46" fill="#222222"/>
<path d="M63.7305 247.89C63.7305 243 66.8405 239.21 71.6005 239.21C76.3605 239.21 79.4505 243 79.4505 247.89C79.4505 252.78 76.3305 256.54 71.5705 256.54C66.8105 256.54 63.7305 252.76 63.7305 247.89V247.89ZM76.2605 247.89C76.2605 244.33 74.5105 241.77 71.6005 241.77C68.6905 241.77 66.9105 244.33 66.9105 247.89C66.9105 251.45 68.6605 254 71.5705 254C74.4805 254 76.2605 251.43 76.2605 247.89V247.89Z" fill="#222222"/>
<path d="M84.1696 242.12H81.8896V239.63H84.1696V236.94C84.1696 232.94 86.5796 231.41 89.2496 231.41C90.2242 231.403 91.189 231.604 92.0796 232L91.4496 234.49C90.8501 234.241 90.2087 234.109 89.5596 234.1C87.9796 234.1 87.2496 235.1 87.2496 236.83V239.63H91.4796L90.6796 242.12H87.2496V256.19H84.1696V242.12Z" fill="#222222"/>
<path d="M118.47 254.86C116.403 255.966 114.094 256.543 111.75 256.54C104.64 256.54 100.51 251.67 100.51 244.92C100.51 238.17 105.21 232.92 112.21 232.92C114.216 232.868 116.206 233.29 118.02 234.15V237C116.259 236.029 114.28 235.523 112.27 235.53C106.96 235.53 103.8 239.59 103.8 244.74C103.8 250.09 106.99 253.84 112.06 253.84C114.005 253.824 115.912 253.307 117.6 252.34L118.47 254.82" fill="#222222"/>
<path d="M131.24 254.4C130.6 255.064 129.835 255.595 128.989 255.962C128.143 256.329 127.233 256.526 126.31 256.54C125.612 256.585 124.912 256.483 124.255 256.241C123.598 255.999 123 255.621 122.499 255.133C121.997 254.645 121.604 254.056 121.344 253.407C121.084 252.757 120.964 252.059 120.99 251.36C120.952 250.418 121.198 249.487 121.698 248.687C122.197 247.888 122.927 247.258 123.79 246.88C125.107 246.314 126.527 246.028 127.96 246.04L131.04 245.93V245.06C131.04 242.71 129.6 241.7 127.6 241.7C126.005 241.701 124.442 242.152 123.09 243L122 240.86C123.813 239.775 125.887 239.204 128 239.21C131.74 239.21 134.13 241 134.13 244.99V250.99C134.055 252.723 134.159 254.459 134.44 256.17H131.81L131.28 254.38L131.24 254.4ZM128.38 248.23C127.378 248.205 126.383 248.407 125.47 248.82C125.064 249.057 124.729 249.399 124.502 249.812C124.275 250.224 124.163 250.69 124.18 251.16C124.156 251.544 124.215 251.93 124.353 252.289C124.491 252.649 124.705 252.975 124.98 253.244C125.255 253.514 125.585 253.721 125.948 253.851C126.31 253.982 126.696 254.032 127.08 254C127.839 253.967 128.584 253.783 129.271 253.459C129.958 253.134 130.573 252.676 131.08 252.11V248.11L128.38 248.23Z" fill="#222222"/>
<path d="M138.38 240.23C140.214 239.579 142.144 239.241 144.09 239.23C149.58 239.23 152.7 242.45 152.7 247.85C152.7 253.25 149.2 256.56 144.26 256.56C143.303 256.556 142.355 256.379 141.46 256.04V264.51H138.38V240.23V240.23ZM144.12 253.92C147.66 253.92 149.51 251.5 149.51 247.79C149.51 243.69 147.21 241.79 143.98 241.79C143.125 241.792 142.275 241.923 141.46 242.18V253.31C142.285 253.724 143.197 253.933 144.12 253.92V253.92Z" fill="#222222"/>
<path d="M156.06 234.24C156.06 233.71 156.271 233.201 156.646 232.826C157.021 232.451 157.53 232.24 158.06 232.24C158.591 232.24 159.099 232.451 159.475 232.826C159.85 233.201 160.06 233.71 160.06 234.24C160.06 234.77 159.85 235.279 159.475 235.654C159.099 236.029 158.591 236.24 158.06 236.24C157.795 236.251 157.53 236.207 157.282 236.111C157.034 236.014 156.809 235.867 156.621 235.679C156.433 235.491 156.286 235.266 156.19 235.019C156.093 234.771 156.049 234.506 156.06 234.24ZM156.51 239.63H159.59V256.19H156.51V239.63Z" fill="#222222"/>
<path d="M165.58 252.48V242.12H162.74V239.63H165.58V235.85L168.66 234.85V239.61H173.66L172.82 242.1H168.69V251.86C168.69 253.34 169.28 253.96 170.37 253.96C171.32 253.922 172.241 253.621 173.03 253.09L174.03 255.23C172.733 256.082 171.212 256.531 169.66 256.52C169.113 256.576 168.56 256.51 168.042 256.326C167.524 256.142 167.053 255.845 166.664 255.456C166.276 255.067 165.978 254.596 165.794 254.078C165.61 253.56 165.544 253.007 165.6 252.46" fill="#222222"/>
<path d="M186.16 254.4C185.519 255.065 184.752 255.597 183.904 255.964C183.057 256.331 182.144 256.527 181.22 256.54C180.522 256.585 179.822 256.484 179.165 256.241C178.509 255.999 177.91 255.621 177.409 255.133C176.907 254.645 176.514 254.057 176.254 253.407C175.994 252.757 175.874 252.059 175.9 251.36C175.862 250.418 176.108 249.487 176.608 248.687C177.107 247.888 177.837 247.258 178.7 246.88C180.018 246.316 181.437 246.03 182.87 246.04L185.95 245.93V245.06C185.95 242.71 184.51 241.7 182.52 241.7C180.922 241.702 179.356 242.152 178 243L176.92 240.86C178.732 239.772 180.807 239.201 182.92 239.21C186.67 239.21 189.05 241 189.05 244.99V250.99C188.975 252.723 189.079 254.459 189.36 256.17H186.7L186.18 254.38L186.16 254.4ZM183.27 248.23C182.272 248.205 181.28 248.406 180.37 248.82C179.963 249.056 179.627 249.399 179.398 249.811C179.169 250.223 179.056 250.689 179.07 251.16C179.048 251.545 179.108 251.93 179.247 252.29C179.386 252.65 179.601 252.975 179.877 253.245C180.153 253.514 180.484 253.721 180.846 253.851C181.209 253.981 181.596 254.032 181.98 254C182.74 253.97 183.486 253.788 184.173 253.463C184.86 253.138 185.475 252.678 185.98 252.11V248.11L183.27 248.23Z" fill="#222222"/>
<path d="M201.1 240.23C202.933 239.579 204.864 239.241 206.81 239.23C212.3 239.23 215.42 242.45 215.42 247.85C215.42 253.25 211.92 256.56 206.98 256.56C206.023 256.556 205.074 256.379 204.18 256.04V264.51H201.1V240.23ZM206.81 253.92C210.35 253.92 212.2 251.5 212.2 247.79C212.2 243.69 209.89 241.79 206.67 241.79C205.815 241.792 204.965 241.923 204.15 242.18V253.31C204.974 253.724 205.887 253.933 206.81 253.92V253.92Z" fill="#222222"/>
<path d="M219.09 231.41H222.17V252.06C222.17 253.32 222.56 253.71 223.43 253.71C223.771 253.683 224.107 253.612 224.43 253.5L225.06 255.91C224.243 256.225 223.376 256.391 222.5 256.4C220.19 256.4 219.07 255.14 219.07 252.94V231.41" fill="#222222"/>
<path d="M227 248.07C227 243.13 230.36 239.21 235.4 239.21C236.875 239.176 238.335 239.52 239.64 240.21V243C238.459 242.206 237.063 241.791 235.64 241.81C232.24 241.81 230.18 244.43 230.18 247.93C230.18 251.82 232.24 254.02 235.43 254.02C236.843 254.007 238.226 253.61 239.43 252.87L240.34 255.04C238.776 256.052 236.952 256.587 235.09 256.58C229.87 256.58 227.04 252.8 227.04 248.11" fill="#222222"/>
</g>
<defs>
<clipPath id="clip0">
<rect width="516.68" height="264.49" fill="white"/>
</clipPath>
</defs>
</svg>
