<svg width="208" height="210" viewBox="0 0 208 210" fill="none" xmlns="http://www.w3.org/2000/svg">
<path d="M196.657 80.9023L126.094 10.1992C119.379 3.92187 113.489 0.507813 103.747 0.5H103.739C93.9927 0.507813 88.1216 3.92187 81.4028 10.1992L10.8442 80.9023C3.49266 87.7695 0.590313 97.3828 0.633282 106.359V177.086C0.633282 182.121 6.14891 189 11.0942 189H196.407C201.352 189 206.868 182.121 206.868 177.086V106.359C206.911 97.3828 204.012 87.7695 196.657 80.9023Z" fill="white"/>
<path d="M196.321 81.125L126.016 10.6406C119.321 4.38672 113.454 0.984374 103.747 0.976562H103.739C94.0279 0.984374 88.1802 4.38672 81.4849 10.6406L11.1802 81.125C3.85603 87.9648 0.965404 97.5508 1.01228 106.496V176.984C1.01228 182 6.50447 188.859 11.4302 188.859H196.071C201.001 188.859 206.497 182 206.497 176.984V106.496C206.54 97.5508 203.649 87.9648 196.321 81.125Z" fill="white"/>
<path d="M196.321 81.125L126.016 10.6406C119.321 4.38672 113.454 0.984374 103.747 0.976562H103.739C94.0279 0.984374 88.1802 4.38672 81.4849 10.6406L11.1802 81.125C3.85603 87.9648 0.965404 97.5508 1.01228 106.496V176.984C1.01228 182 6.50447 188.859 11.4302 188.859H196.071C201.001 188.859 206.497 182 206.497 176.984V106.496C206.54 97.5508 203.649 87.9648 196.321 81.125Z" stroke="#222222" stroke-width="1.04"/>
<path d="M196.657 80.9023L126.094 10.1992C119.379 3.92187 113.489 0.507813 103.747 0.5H103.739C93.9927 0.507813 88.1216 3.92187 81.4028 10.1992L10.8442 80.9023C3.49266 87.7695 0.590313 97.3828 0.633282 106.359V177.086C0.633282 182.121 6.14891 189 11.0942 189H196.407C201.352 189 206.868 182.121 206.868 177.086V106.359C206.911 97.3828 204.012 87.7695 196.657 80.9023Z" stroke="#222222"/>
<path d="M11.0664 99.7695C11.0664 99.7695 11.1797 94.0391 17.2344 88.3125C22.293 83.5312 88.6172 16.3438 88.6172 16.3438C88.6172 16.3438 95.4297 10.5156 103.48 10.5156C111.531 10.5156 118.434 16.3438 121.078 18.9844C123.723 21.6289 192.605 90.8086 192.605 90.8086C192.605 90.8086 197.016 96.3906 197.016 101.238C197.016 106.086 195.105 111.078 183.793 120.184C172.484 129.289 144.434 150 101.984 150C59.5352 150 27.8125 127.086 16.3555 112.988C12.3906 107.699 11.0664 103.734 11.0664 99.7695Z" fill="#222222"/>
<path d="M21.7891 165.602H24.8359V168.594H24.8867C25.0391 167.363 26.4453 165.297 28.4883 165.297C28.8203 165.297 29.1797 165.297 29.5352 165.398V168.848C29.2305 168.668 28.6172 168.566 28.0039 168.566C25.2188 168.566 25.2188 172.043 25.2188 173.938V178.77H21.7891V165.602Z" fill="#222222"/>
<path d="M38.9492 170.895C38.8516 169.23 38.082 167.801 36.1641 167.801C34.2461 167.801 33.2734 169.129 33.1211 170.895H38.9492ZM41.2539 178.027C40 178.719 38.5664 179.074 36.7266 179.074C32.3789 179.074 29.8516 176.57 29.8516 172.246C29.8516 168.441 31.8672 165.297 35.9609 165.297C40.8437 165.297 42.2227 168.645 42.2227 173.246H33.1211C33.2734 175.367 34.7578 176.57 36.8789 176.57C38.543 176.57 39.9727 175.957 41.2539 175.238V178.027Z" fill="#222222"/>
<path d="M52.9375 168.441C52.3242 168.156 51.6562 167.953 50.6094 167.953C48.4883 167.953 47.1328 169.641 47.1328 172.121C47.1328 174.551 48.2812 176.414 50.6875 176.414C51.6562 176.414 52.7305 176.059 53.3203 175.805L53.4727 178.641C52.4766 178.945 51.4531 179.074 50.0469 179.074C45.7266 179.074 43.5547 176.137 43.5547 172.121C43.5547 168.312 45.8047 165.297 49.918 165.297C51.3008 165.297 52.2969 165.449 53.2422 165.73L52.9375 168.441Z" fill="#222222"/>
<path d="M61.2695 176.414C63.9063 176.414 64.5977 174.066 64.5977 171.863C64.5977 169.848 63.5195 167.953 61.2695 167.953C59.0469 167.953 57.9727 169.895 57.9727 171.863C57.9727 174.039 58.6641 176.414 61.2695 176.414ZM61.2695 165.297C65.1836 165.297 68.1758 167.93 68.1758 172.273C68.1758 176.059 65.6445 179.074 61.2695 179.074C56.9258 179.074 54.3945 176.059 54.3945 172.273C54.3945 167.93 57.3867 165.297 61.2695 165.297Z" fill="#222222"/>
<path d="M70.2969 165.602H73.4922V167.441H73.543C74.6172 165.832 76.1797 165.297 77.4531 165.297C79.2969 165.297 80.6016 165.984 81.3398 167.621C82.1367 166.035 83.8477 165.297 85.457 165.297C88.7031 165.297 89.625 167.52 89.625 170.457V178.77H86.1992V170.918C86.1992 169.691 86.1992 167.953 84.2305 167.953C81.9531 167.953 81.6758 170.664 81.6758 172.375V178.77H78.2461V170.918C78.2461 169.691 78.2461 167.953 76.2773 167.953C74.0039 167.953 73.7227 170.664 73.7227 172.375V178.77H70.2969V165.602Z" fill="#222222"/>
<path d="M92.5156 165.602H95.7109V167.441H95.7617C96.8359 165.832 98.3945 165.297 99.6758 165.297C101.516 165.297 102.816 165.984 103.559 167.621C104.352 166.035 106.063 165.297 107.676 165.297C110.922 165.297 111.844 167.52 111.844 170.457V178.77H108.418V170.918C108.418 169.691 108.418 167.953 106.449 167.953C104.172 167.953 103.895 170.664 103.895 172.375V178.77H100.465V170.918C100.465 169.691 100.465 167.953 98.4961 167.953C96.2227 167.953 95.9414 170.664 95.9414 172.375V178.77H92.5156V165.602Z" fill="#222222"/>
<path d="M123.039 170.895C122.937 169.23 122.172 167.801 120.254 167.801C118.336 167.801 117.367 169.129 117.215 170.895H123.039ZM125.344 178.027C124.09 178.719 122.656 179.074 120.816 179.074C116.473 179.074 113.938 176.57 113.938 172.246C113.938 168.441 115.961 165.297 120.051 165.297C124.934 165.297 126.312 168.645 126.312 173.246H117.215C117.367 175.367 118.848 176.57 120.969 176.57C122.633 176.57 124.062 175.957 125.344 175.238V178.027Z" fill="#222222"/>
<path d="M128.488 165.602H131.734V167.391H131.785C132.859 165.883 134.316 165.297 136.105 165.297C139.227 165.297 140.582 167.492 140.582 170.457V178.77H137.152V171.738C137.152 170.125 137.129 167.953 134.93 167.953C132.449 167.953 131.914 170.637 131.914 172.324V178.77H128.488V165.602Z" fill="#222222"/>
<path d="M149.223 176.414C151.496 176.414 152.238 174.012 152.238 172.145C152.238 170.305 151.371 167.953 149.172 167.953C146.945 167.953 146.336 170.383 146.336 172.145C146.336 173.961 146.973 176.414 149.223 176.414ZM152.367 177.285H152.316C151.293 178.563 149.887 179.074 148.277 179.074C144.238 179.074 142.754 175.75 142.754 172.145C142.754 168.516 144.238 165.297 148.277 165.297C149.988 165.297 151.191 165.883 152.215 167.137H152.266V159.594H155.691V178.77H152.367V177.285Z" fill="#222222"/>
<path d="M166.965 170.895C166.863 169.23 166.098 167.801 164.18 167.801C162.262 167.801 161.289 169.129 161.137 170.895H166.965ZM169.27 178.027C168.016 178.719 166.582 179.074 164.742 179.074C160.395 179.074 157.863 176.57 157.863 172.246C157.863 168.441 159.883 165.297 163.977 165.297C168.855 165.297 170.238 168.645 170.238 173.246H161.137C161.289 175.367 162.773 176.57 164.895 176.57C166.559 176.57 167.988 175.957 169.27 175.238V178.027Z" fill="#222222"/>
<path d="M178.035 176.414C180.313 176.414 181.055 174.012 181.055 172.145C181.055 170.305 180.184 167.953 177.984 167.953C175.762 167.953 175.145 170.383 175.145 172.145C175.145 173.961 175.785 176.414 178.035 176.414ZM181.184 177.285H181.129C180.105 178.563 178.699 179.074 177.09 179.074C173.051 179.074 171.566 175.75 171.566 172.145C171.566 168.516 173.051 165.297 177.09 165.297C178.805 165.297 180.004 165.883 181.027 167.137H181.078V159.594H184.504V178.77H181.184V177.285Z" fill="#222222"/>
<path d="M40.2111 111.016C41.1877 109.711 41.5236 108.152 40.0939 106.937C38.6603 105.719 37.0939 106.094 35.8556 107.312L40.2111 111.016ZM37.3947 117.805C36.0197 117.523 34.7267 116.879 33.3517 115.711C30.1056 112.949 29.8087 109.473 32.5548 106.246C34.9728 103.402 38.4806 102.336 41.5314 104.934C45.1798 108.035 44.0822 111.414 41.1564 114.852L34.3634 109.07C33.1291 110.75 33.4728 112.59 35.0587 113.937C36.297 114.992 37.758 115.445 39.1642 115.723L37.3947 117.805Z" fill="white"/>
<path d="M47.0391 109.879L49.7422 111.559L48.8125 113.051L48.8555 113.074C50.5312 112.375 52.0508 112.641 53.5391 113.566C56.1367 115.184 56.125 117.715 54.5898 120.184L50.2891 127.102L47.4375 125.328L51.0781 119.473C51.9102 118.133 53.0156 116.312 51.1836 115.172C49.1172 113.891 47.2813 115.848 46.4102 117.25L43.0742 122.613L40.2227 120.84L47.0391 109.879Z" fill="white"/>
<path d="M64.0867 124.922C64.6452 123.387 64.5124 121.801 62.7898 121.051C61.0671 120.301 59.6726 121.113 58.8445 122.641L64.0867 124.922ZM63.364 132.234C61.9695 132.363 60.5437 132.125 58.8874 131.406C54.9812 129.707 53.6843 126.465 55.3718 122.582C56.864 119.156 59.907 117.117 63.5867 118.719C67.9773 120.625 67.907 124.176 66.1101 128.316L57.9265 124.758C57.2351 126.723 58.0984 128.383 60.0046 129.215C61.5007 129.863 63.0281 129.871 64.4538 129.727L63.364 132.234Z" fill="white"/>
<path d="M70.7383 121.848L73.5977 122.699L72.7578 125.508L72.8047 125.523C73.293 124.414 75.1953 122.859 77.1172 123.434C77.4297 123.527 77.7656 123.629 78.0703 123.824L77.1055 127.066C76.8672 126.813 76.3203 126.547 75.7422 126.371C73.125 125.594 72.1484 128.859 71.6211 130.637L70.2695 135.176L67.0508 134.215L70.7383 121.848Z" fill="white"/>
<path d="M86.7773 132.031C87.1367 129.855 86.5898 127.938 84.6602 127.621C82.4063 127.25 81.3516 129.211 81.0273 131.164C80.7422 132.895 81.3086 135.172 83.2148 135.484C85.293 135.828 86.4297 134.16 86.7773 132.031ZM91.1172 126.344L89.2266 137.848C88.6562 141.309 86.7344 144.344 81.3945 143.469C80.0859 143.25 78.6055 142.805 77.1367 141.879L77.8711 139.102C78.793 139.813 80.3594 140.656 81.3945 140.824C85.0586 141.426 85.6836 138.711 86.043 136.508L85.9922 136.5C85.1953 137.488 83.5586 138.184 81.7031 137.879C77.9453 137.262 77.0039 134.008 77.5664 130.594C78.0703 127.527 80.2344 124.254 84.043 124.879C85.7266 125.152 86.9414 125.938 87.6172 127.547L87.668 127.555L87.9492 125.824L91.1172 126.344Z" fill="white"/>
<path d="M99.1875 136.113H99.2383L102.582 126.773L105.992 126.855L100.836 139.539C99.6836 142.367 98.8398 145.156 95.3281 145.066C94.5273 145.047 93.7305 144.902 92.957 144.656L93.2461 142.184C93.668 142.344 94.1445 142.43 94.9688 142.449C96.3203 142.484 97.1719 141.578 97.207 140.199L92.6094 126.523L96.3203 126.613L99.1875 136.113Z" fill="white"/>
<path d="M116.106 137.02C117.122 137.348 118.31 137.492 119.524 137.309C121.013 137.082 122.2 136.063 121.981 134.625C121.52 131.629 115.52 133.027 114.962 129.359C114.579 126.859 116.466 125.606 118.548 125.285C119.216 125.188 120.575 125.129 121.759 125.379L121.817 126.766C120.942 126.52 119.794 126.465 118.927 126.598C117.313 126.848 116.274 127.512 116.52 129.121C116.884 131.477 123.056 130.227 123.688 134.363C124.099 137.039 121.735 138.34 119.829 138.633C118.614 138.816 117.38 138.856 116.192 138.578L116.106 137.02Z" fill="white"/>
<path d="M133.043 128.899L132.605 129.012C129.965 129.703 126.883 130.793 127.59 133.512C128.016 135.137 129.34 135.438 130.742 135.07C134.332 134.133 133.59 130.984 133.238 129.652L133.043 128.899ZM134.297 133.106L134.25 133.117C133.957 134.774 132.445 136.024 130.918 136.422C127.398 137.344 126.223 135.109 125.93 133.996C124.848 129.852 129.211 128.504 132.41 127.664L132.699 127.59L132.535 126.957C131.984 124.848 130.953 123.981 128.895 124.516C127.605 124.852 126.473 125.461 125.52 126.484L125.137 125.008C125.961 124.301 127.461 123.492 128.551 123.207C131.605 122.41 133.254 123.453 134.098 126.68L135.52 132.137C135.781 133.133 135.977 133.883 136.32 134.699L134.816 135.094L134.297 133.106Z" fill="white"/>
<path d="M144.633 131.707L142.898 132.371L134.27 121.996L135.883 121.375L143.145 130.426L143.191 130.406L142.688 118.758L144.234 118.164L144.633 131.707Z" fill="white"/>
<path d="M145.938 117.23L147.359 116.551L152.887 128.074L151.461 128.758L145.938 117.23ZM145.887 113.477L144.465 114.156L143.555 112.262L144.977 111.578L145.887 113.477Z" fill="white"/>
<path d="M151.945 117.715C151.445 116.875 150.934 116.016 150.32 115.184L151.637 114.402L152.801 116.359L152.844 116.336C152.711 115.074 152.797 113.359 155.082 112.004C157.797 110.391 159.906 111.586 161.34 114L165.516 121.023L164.156 121.832L160.188 115.152C158.961 113.082 157.434 112.184 155.559 113.297C153.078 114.769 153.598 117.406 154.688 119.234L158.297 125.312L156.938 126.117L151.945 117.715Z" fill="white"/>
<path d="M171.665 114.887C173.93 113.145 173.094 110.371 171.677 108.523C169.798 106.078 167.708 104.84 165.423 106.598C163.036 108.43 164.161 111.168 165.677 113.137C167.2 115.121 169.536 116.52 171.665 114.887ZM176.18 111.797C178.348 114.617 178.848 117.902 175.372 120.57C174.04 121.598 172.536 122.148 171.895 122.387L171.036 121.059C172.114 120.859 173.473 120.324 174.563 119.484C177.786 117.012 176.262 114.449 174.063 111.59L174.024 111.621C174.477 113.609 173.762 114.98 172.469 115.977C169.231 118.465 166.028 116.438 164.305 114.191C161.938 111.109 161.419 107.969 164.399 105.676C165.751 104.637 166.762 104.145 168.63 104.641L168.669 104.609L167.782 103.457L169.032 102.492L176.18 111.797Z" fill="white"/>
<path d="M142.383 69.2773C142.383 91.2734 124.547 109.109 102.547 109.109C80.5508 109.109 62.7148 91.2734 62.7148 69.2773C62.7148 47.2773 80.5508 29.4414 102.547 29.4414C124.547 29.4414 142.383 47.2773 142.383 69.2773Z" fill="white"/>
<path d="M132.512 68.4843C130.485 70.6015 128.145 72.7929 125.594 74.7539C124.895 75.2929 122.024 77.539 120.68 78.3789C118.797 79.5547 116.633 80.8008 113.954 81.8515C107.664 84.3164 101.625 85.0586 97.5551 81.4804C93.4848 77.9062 96.9379 69.8906 98.7855 66.9297C100.637 63.9726 103.106 61.6289 102.61 61.3828C102.118 61.1367 99.8988 61.875 96.4457 64.3437C92.9926 66.8086 90.0316 71.3711 89.0473 73.8359C87.9809 76.5078 86.5824 85.9218 93.1176 89.6172C94.141 90.1992 95.1879 90.6523 96.2465 90.9961L94.9965 97.8984C86.6449 95.7695 81.0121 90.6406 77.1449 84.9726C73.5941 79.7695 73.3598 74.0703 73.0395 74.0078C72.7191 73.9414 70.0238 75.8008 68.1645 77.0859C66.3051 78.3672 64.8324 79.6484 64.641 79.6484C64.4457 79.6484 64.5121 79.3281 64.7191 79.0234C64.7191 79.0234 70.9184 69.7656 79.5043 63.1679C88.6879 56.1172 99.9027 51.5273 106.032 55.2422C111.063 58.289 109.774 64.8086 108.164 68.0468C107.036 70.3203 104.813 73.3828 103.442 74.7578C102.067 76.1289 101.914 76.5859 102.524 76.8906C103.137 77.1953 106.336 75.6718 109.079 73.2304C109.079 73.2304 113.993 68.7109 116.055 64.0859C117.227 61.457 118.52 52 111.985 48.3047C101.563 42.4023 88.9301 49.5351 83.0082 54.7148C77.6449 59.4062 73.391 65.0703 73.1449 65.1953C72.8988 65.3164 73.0199 64.332 73.8871 60.5078C74.7465 56.6875 77.7973 49.9609 84.3637 45.0976C90.5785 40.4961 98.8441 38.2617 107.036 39.414C107.743 39.5117 108.446 39.6406 109.149 39.7968C118.028 41.7695 123.946 47.0703 127.957 52.9492C131.508 58.1523 131.739 63.8515 132.063 63.914" fill="#222222"/>
<path d="M106.059 75.4805C107.027 74.8789 108.086 74.1172 109.078 73.2305C109.078 73.2305 112.488 71.7773 116.055 64.0859C116.949 62.1523 117.855 56.4531 115.633 52.1289L120.23 44.7969C123.391 47.125 125.922 49.9648 127.957 52.9492C131.508 58.1523 131.738 63.8516 132.062 63.9141C132.383 63.9805 135.074 62.1211 136.934 60.8359C138.793 59.5547 140.27 58.2734 140.461 58.2734C140.652 58.2734 140.59 58.5937 140.383 58.8984C140.383 58.8984 134.184 68.1563 125.594 74.7539C124.895 75.293 122.023 77.5391 120.68 78.3789C118.797 79.5547 116.633 80.8008 113.953 81.8516C110.977 83.0195 108.051 83.8008 105.363 83.918" fill="#222222"/>
<path d="M90.1367 86.8985C90.8711 87.961 91.8437 88.8985 93.1172 89.6172C103.535 95.5196 116.172 88.3868 122.094 83.2071C127.457 78.5157 131.711 72.8516 131.957 72.7266C132.203 72.6055 132.297 73.5157 131.215 77.4102C130.172 81.1915 126.344 88.5508 120.734 92.8243C113 98.7188 104.828 100.102 95.9492 98.129C91.168 97.0665 87.2461 95.0352 84.0195 92.4727" fill="#222222"/>
<path d="M169.012 95.121L169.567 94.7733C169.926 94.5468 170.11 94.3241 169.875 93.953C169.672 93.6288 169.321 93.7186 169.02 93.9061L168.469 94.2577L169.012 95.121ZM167.77 94.1874L168.864 93.4921C169.52 93.078 170.012 93.1405 170.356 93.6796C170.645 94.1405 170.563 94.6561 170.118 94.9374L171.727 95.6913L171.231 96.0038L169.637 95.2382L169.243 95.4882L170.043 96.7538L169.575 97.0507L167.77 94.1874ZM170.926 97.1054C172.047 96.3944 172.321 94.953 171.582 93.7851C170.844 92.6132 169.43 92.2382 168.305 92.9491C167.168 93.664 166.895 95.1093 167.633 96.2772C168.372 97.4452 169.79 97.8202 170.926 97.1054ZM168.067 92.5897C169.415 91.7382 171.2 92.1444 172.051 93.4882C172.899 94.8358 172.497 96.6249 171.149 97.4726C169.801 98.3202 168.016 97.9179 167.165 96.5702C166.317 95.2265 166.723 93.4374 168.067 92.5897Z" fill="white"/>
<path d="M59.8906 202.703C59.3633 202.395 58.7734 202.234 58.1602 202.234C56.2305 202.234 54.9453 203.629 54.9453 205.512C54.9453 207.48 56.3633 208.789 58.1016 208.789C58.7031 208.789 59.5078 208.633 59.9258 208.379L59.9961 209.543C59.3633 209.809 58.582 209.844 58.0898 209.844C55.4375 209.844 53.6758 208.141 53.6758 205.477C53.6758 202.898 55.5469 201.18 58.1016 201.18C58.75 201.18 59.3867 201.277 59.9844 201.539L59.8906 202.703Z" fill="#222222"/>
<path d="M65.2891 206.051C65.2891 205.117 64.7383 204.348 63.7656 204.348C62.6602 204.348 62.207 205.262 62.1211 206.051H65.2891ZM66.0234 209.449C65.5898 209.605 65.0977 209.844 64.0898 209.844C61.918 209.844 60.9219 208.523 60.9219 206.531C60.9219 204.719 62.0625 203.438 63.7891 203.438C65.8281 203.438 66.4883 204.926 66.4883 206.895H62.1211C62.1211 208.105 63.0703 208.934 64.1367 208.934C64.8828 208.934 65.7461 208.547 66.0234 208.32V209.449Z" fill="#222222"/>
<path d="M68.0039 203.578H69.0586V204.527H69.082C69.3828 203.895 70.0312 203.438 70.6797 203.438C71.0156 203.438 71.1836 203.473 71.4219 203.52V204.527C71.2188 204.445 70.9883 204.422 70.7969 204.422C69.7891 204.422 69.1289 205.379 69.1289 206.914V209.699H68.0039V203.578Z" fill="#222222"/>
<path d="M75.9219 204.492H74.3008V207.84C74.3008 208.547 74.7344 208.934 75.25 208.934C75.5977 208.934 75.8516 208.824 76.0195 208.715V209.676C75.7656 209.746 75.418 209.844 75.0586 209.844C73.8945 209.844 73.1758 209.293 73.1758 208.07V204.492H71.793V203.578H73.1758V202.164L74.3008 201.805V203.578H75.9219V204.492Z" fill="#222222"/>
<path d="M77.4805 203.578H78.6094V209.699H77.4805V203.578ZM78.6836 202.211H77.4102V200.941H78.6836V202.211Z" fill="#222222"/>
<path d="M81.4062 204.492H79.9648V203.578H81.4062V203.016C81.4062 201.527 81.7891 200.555 83.457 200.555C83.7461 200.555 83.9844 200.594 84.2148 200.629L84.1641 201.539C84.0352 201.492 83.8164 201.469 83.625 201.469C82.6523 201.469 82.5352 202.094 82.5352 202.922V203.578H84.1523V204.492H82.5352V209.699H81.4062V204.492Z" fill="#222222"/>
<path d="M85.4844 203.578H86.6133V209.699H85.4844V203.578ZM86.6875 202.211H85.4141V200.941H86.6875V202.211Z" fill="#222222"/>
<path d="M92.5664 204.613C92.1328 204.434 91.7031 204.348 91.3438 204.348C90.082 204.348 89.375 205.477 89.375 206.641C89.375 207.734 89.9609 208.934 91.4141 208.934C91.7969 208.934 92.2773 208.812 92.625 208.586L92.7109 209.594C92.2422 209.809 91.7031 209.844 91.293 209.844C89.4453 209.844 88.1758 208.395 88.1758 206.641C88.1758 204.781 89.4219 203.438 91.293 203.438C91.75 203.438 92.3398 203.543 92.6602 203.676L92.5664 204.613Z" fill="#222222"/>
<path d="M97.6406 206.785C97.4023 206.785 97.1602 206.762 96.9219 206.762C96.3086 206.762 94.7969 206.855 94.7969 207.938C94.7969 208.586 95.4219 208.934 95.9375 208.934C97.0547 208.934 97.6406 208.234 97.6406 207.324V206.785ZM94.293 204.012C94.8594 203.676 95.5312 203.438 96.3086 203.438C98.0625 203.438 98.7695 204.301 98.7695 205.969V208.5C98.7695 209.195 98.793 209.52 98.8164 209.699H97.7617V208.906H97.7383C97.4727 209.281 96.875 209.844 95.8438 209.844C94.5195 209.844 93.5977 209.27 93.5977 207.938C93.5977 206.402 95.2773 205.922 96.4414 205.922C96.8867 205.922 97.1992 205.922 97.6406 205.945C97.6406 204.887 97.2578 204.348 96.1289 204.348C95.4922 204.348 94.8086 204.59 94.3555 204.973L94.293 204.012Z" fill="#222222"/>
<path d="M103.93 204.492H102.309V207.84C102.309 208.547 102.742 208.934 103.258 208.934C103.605 208.934 103.855 208.824 104.023 208.715V209.676C103.773 209.746 103.426 209.844 103.066 209.844C101.902 209.844 101.184 209.293 101.184 208.07V204.492H99.8008V203.578H101.184V202.164L102.309 201.805V203.578H103.93V204.492Z" fill="#222222"/>
<path d="M105.488 203.578H106.617V209.699H105.488V203.578ZM106.688 202.211H105.418V200.941H106.688V202.211Z" fill="#222222"/>
<path d="M111.395 208.934C112.715 208.934 113.301 207.734 113.301 206.641C113.301 205.477 112.594 204.348 111.395 204.348C110.184 204.348 109.473 205.477 109.473 206.641C109.473 207.734 110.063 208.934 111.395 208.934ZM111.395 203.438C113.254 203.438 114.504 204.781 114.504 206.641C114.504 208.395 113.23 209.844 111.395 209.844C109.547 209.844 108.273 208.395 108.273 206.641C108.273 204.781 109.52 203.438 111.395 203.438Z" fill="#222222"/>
<path d="M116.016 203.578H117.105V204.551H117.129C117.465 203.855 118.281 203.438 119.133 203.438C120.719 203.438 121.426 204.422 121.426 206.066V209.699H120.297V206.531C120.297 205.105 119.984 204.406 119.004 204.348C117.719 204.348 117.141 205.379 117.141 206.867V209.699H116.016V203.578Z" fill="#222222"/>
<path d="M126.672 203.578H127.727V204.469H127.75C128.184 203.762 128.793 203.438 129.691 203.438C130.402 203.438 131.109 203.797 131.434 204.625C131.855 203.746 132.777 203.438 133.328 203.438C134.891 203.438 135.453 204.445 135.453 205.777V209.699H134.324V206.051C134.324 205.297 134.145 204.348 133.234 204.348C132.082 204.348 131.625 205.477 131.625 206.617V209.699H130.496V206.051C130.496 205.297 130.316 204.348 129.406 204.348C128.254 204.348 127.797 205.477 127.797 206.617V209.699H126.672V203.578Z" fill="#222222"/>
<path d="M140.984 206.785C140.746 206.785 140.508 206.762 140.266 206.762C139.652 206.762 138.141 206.855 138.141 207.938C138.141 208.586 138.766 208.934 139.281 208.934C140.398 208.934 140.984 208.234 140.984 207.324V206.785ZM137.637 204.012C138.203 203.676 138.875 203.438 139.652 203.438C141.406 203.438 142.113 204.301 142.113 205.969V208.5C142.113 209.195 142.137 209.52 142.16 209.699H141.105V208.906H141.082C140.816 209.281 140.219 209.844 139.188 209.844C137.863 209.844 136.941 209.27 136.941 207.938C136.941 206.402 138.621 205.922 139.785 205.922C140.23 205.922 140.543 205.922 140.984 205.945C140.984 204.887 140.602 204.348 139.473 204.348C138.84 204.348 138.152 204.59 137.695 204.973L137.637 204.012Z" fill="#222222"/>
<path d="M144.02 203.578H145.078V204.527H145.102C145.402 203.895 146.051 203.438 146.695 203.438C147.031 203.438 147.199 203.473 147.441 203.52V204.527C147.238 204.445 147.012 204.422 146.816 204.422C145.809 204.422 145.148 205.379 145.148 206.914V209.699H144.02V203.578Z" fill="#222222"/>
<path d="M148.688 200.699H149.816V206.066L152.277 203.578H153.812L150.969 206.293L154.176 209.699H152.555L149.816 206.559V209.699H148.688V200.699Z" fill="#222222"/>
</svg>
