<svg width="128" height="128" viewBox="0 0 128 128" fill="none" xmlns="http://www.w3.org/2000/svg">
<rect width="128" height="128" fill="#9A9779"/>
<path d="M37.3094 45.1674L37.4331 44C37.825 44 38.2065 44.0205 38.5777 44.0614C38.949 44.0819 39.5986 44.1024 40.5267 44.1229C41.5991 44.2048 42.5994 44.2765 43.5275 44.3379C44.4555 44.3994 45.4042 44.4301 46.3735 44.4301C46.7654 44.4096 47.1366 44.3994 47.4872 44.3994C47.8378 44.3789 48.3534 44.3687 49.034 44.3687C49.7146 46.1915 50.323 47.7276 50.8592 48.977C51.4161 50.2263 52.5092 52.4178 54.1384 55.5515C55.7677 58.6646 57.3351 61.6344 58.8407 64.4608C60.3668 67.2668 62.2746 70.7998 64.5638 75.0599C65.4919 73.5238 67.0077 70.7384 69.1114 66.7035C69.5032 65.9662 70.9366 63.2832 73.4114 58.6544C75.9069 54.0256 77.66 50.7588 78.6705 48.8541C79.6811 46.9493 80.4442 45.4337 80.9598 44.3072C82.5684 44.3482 84.3215 44.3687 86.2189 44.3687C87.7863 44.3687 89.034 44.3482 89.9621 44.3072L89.9002 45.4439C88.3122 45.6283 87.1882 45.8433 86.5282 46.0891C85.8683 46.3144 85.363 46.724 85.0124 47.318C84.6618 47.9119 84.4349 48.7721 84.3318 49.8986C84.2493 51.0251 84.2287 53.0015 84.2699 55.828L84.4555 64.3687C84.4762 64.8602 84.4865 65.3518 84.4865 65.8433C84.5071 66.3144 84.5277 66.9083 84.5483 67.6252C84.5896 68.3216 84.6308 69.233 84.6721 70.3594C84.7133 71.4654 84.7649 72.8479 84.8268 74.5069C84.9299 76.4322 85.0433 77.8761 85.1671 78.8387C85.3114 79.8013 85.5795 80.5591 85.9714 81.1121C86.3632 81.6446 86.8685 82.0031 87.4872 82.1874C88.106 82.3513 89.0547 82.4537 90.3333 82.4946V83.6313L85.0124 83.5699L80.8979 83.6313C78.6293 83.6313 76.67 83.7337 75.0201 83.9386L74.9582 82.8018C76.6906 82.3922 77.9281 81.9519 78.6705 81.4808C79.413 80.9892 79.9492 80.1393 80.2792 78.9309C80.6092 77.702 80.7742 75.8689 80.7742 73.4316C80.7742 71.8751 80.7535 70.6155 80.7123 69.6528L80.4648 61.3579C80.3411 57.7942 80.0626 54.5172 79.6295 51.5269C79.0108 52.7148 78.0518 54.4967 76.7525 56.8725C75.4738 59.2483 74.288 61.4501 73.1949 63.4777C72.1225 65.5054 71.0809 67.4818 70.0704 69.4071C69.0598 71.3323 68.2349 72.9708 67.5955 74.3226C66.2756 77.19 65.3991 79.1254 64.966 80.129C64.5535 81.1326 64.141 82.2796 63.7285 83.5699L62.7695 83.6313C62.2539 82.0133 61.6352 80.2417 60.9134 78.3164C60.1915 76.3912 59.1707 74.1792 57.8507 71.6805C55.1903 66.6421 51.6326 59.8628 47.1779 51.3425C46.8273 54.8244 46.487 58.8899 46.157 63.5392C45.827 68.1884 45.662 73.1039 45.662 78.2857C45.662 79.8833 45.992 80.9995 46.652 81.6344C47.3326 82.2693 48.9103 82.7199 51.3852 82.9862L51.3233 84C49.9621 83.8361 48.4978 83.7542 46.9304 83.7542L43.1872 83.8157C42.7541 83.8157 42.3519 83.8259 41.9807 83.8464C41.6301 83.8464 41.1145 83.8566 40.4339 83.8771C39.7533 83.8976 39.083 83.9181 38.423 83.9386C37.7631 83.9795 37.2887 84 37 84L37.0619 83.1091C39.0418 82.7609 40.4442 82.2591 41.2691 81.6037C42.0941 80.9278 42.6303 79.9652 42.8778 78.7158C43.1253 77.4665 43.3625 75.2238 43.5893 71.9877L44.5174 55.9508C44.6205 54.4762 44.6721 53.4828 44.6721 52.9708C44.6721 50.8817 44.3937 49.2944 43.8368 48.2089C43.3006 47.1234 42.5169 46.3861 41.4857 45.9969C40.4751 45.5873 39.083 45.3108 37.3094 45.1674Z" fill="white"/>
</svg>
