<svg width="394" height="90" viewBox="0 0 394 90" fill="none" xmlns="http://www.w3.org/2000/svg">
<path fill-rule="evenodd" clip-rule="evenodd" d="M49.59 88.794H79.381V38.357L19.75 21.26V0H0V88.794H29.791V60.838H49.59V88.794Z" fill="#222222"/>
<path fill-rule="evenodd" clip-rule="evenodd" d="M251.788 38.808V66.143C251.803 67.705 252.021 69.259 252.437 70.765C252.855 72.294 253.559 73.731 254.511 74.999C255.5 76.304 256.771 77.368 258.23 78.111C261.884 79.702 266.042 79.702 269.696 78.111C271.154 77.368 272.426 76.304 273.415 74.999C274.365 73.73 275.07 72.294 275.489 70.765C275.904 69.259 276.12 67.705 276.131 66.143V38.928H287.11V67.202C287.11 74.456 284.69 84.01 273.146 88.37C267.259 90.528 260.796 90.543 254.899 88.412C245.493 84.884 240.822 77.828 240.822 67.244V38.808H251.787H251.788ZM221.214 45.328C223.593 47.716 225.498 50.531 226.831 53.626C228.21 56.849 228.909 60.323 228.884 63.829C228.921 70.791 226.149 77.482 221.2 82.379C218.778 84.748 215.928 86.638 212.803 87.946C206.143 90.679 198.668 90.679 192.009 87.946C188.884 86.638 186.034 84.748 183.612 82.379C178.667 77.48 175.9 70.789 175.942 63.829C175.918 60.323 176.617 56.85 177.995 53.626C182.181 43.884 191.813 37.54 202.416 37.54C209.464 37.54 216.23 40.343 221.213 45.328H221.214ZM340.102 38.893V48.32L313.832 78.957H341.52V88.8H299.805V79.274L325.884 48.735H300.715V38.892H340.102V38.893ZM392.338 38.893V48.32L366.068 78.957H393.756V88.8H352.041V79.274L378.12 48.735H352.951V38.892H392.338V38.893ZM130.431 21.26V42.266C136.28 37.553 145.319 36.297 152.686 39.345C160.342 42.513 164.731 49.534 164.738 58.608V88.787H153.695V62.242C153.695 56.004 150.527 48.716 141.608 48.716C131.892 48.716 130.438 57.19 130.438 62.242V88.794H119.381V21.26H130.431ZM216.162 70.222C217.572 66.072 217.572 61.571 216.162 57.422C215.53 55.594 214.533 53.914 213.234 52.483C211.931 51.103 210.354 50.009 208.605 49.272C204.63 47.691 200.197 47.691 196.222 49.272C194.472 50.008 192.896 51.102 191.593 52.483C190.288 53.913 189.29 55.593 188.658 57.422C187.247 61.571 187.247 66.073 188.658 70.222C189.29 72.051 190.289 73.732 191.593 75.161C192.896 76.542 194.472 77.636 196.222 78.372C200.198 79.948 204.629 79.948 208.605 78.372C210.354 77.635 211.931 76.542 213.234 75.161C214.534 73.73 215.531 72.049 216.162 70.222Z" fill="black"/>
</svg>
