<svg width="44" height="44" viewBox="0 0 44 44" fill="none" xmlns="http://www.w3.org/2000/svg">
<rect width="44" height="44" rx="3" fill="white"/>
<path d="M30.7929 31.2071C31.1834 31.5976 31.8166 31.5976 32.2071 31.2071C32.5976 30.8166 32.5976 30.1834 32.2071 29.7929L30.7929 31.2071ZM26.2071 23.7929C25.8166 23.4024 25.1834 23.4024 24.7929 23.7929C24.4024 24.1834 24.4024 24.8166 24.7929 25.2071L26.2071 23.7929ZM32.2071 29.7929L26.2071 23.7929L24.7929 25.2071L30.7929 31.2071L32.2071 29.7929ZM26.5 19.5C26.5 22.8137 23.8137 25.5 20.5 25.5V27.5C24.9183 27.5 28.5 23.9183 28.5 19.5H26.5ZM20.5 25.5C17.1863 25.5 14.5 22.8137 14.5 19.5H12.5C12.5 23.9183 16.0817 27.5 20.5 27.5V25.5ZM14.5 19.5C14.5 16.1863 17.1863 13.5 20.5 13.5V11.5C16.0817 11.5 12.5 15.0817 12.5 19.5H14.5ZM20.5 13.5C23.8137 13.5 26.5 16.1863 26.5 19.5H28.5C28.5 15.0817 24.9183 11.5 20.5 11.5V13.5Z" fill="#4A5568"/>
</svg>
