<svg width="40" height="40" viewBox="0 0 40 40" fill="none" xmlns="http://www.w3.org/2000/svg">
<rect width="40" height="40" rx="3" fill="#E4405F"/>
<path fill-rule="evenodd" clip-rule="evenodd" d="M15.8807 10C12.6527 10 10 12.6491 10 15.8807V24.1193C10 27.3473 12.6491 30 15.8807 30H24.1193C27.3473 30 30 27.3509 30 24.1193V15.8807C30 12.6527 27.3509 10 24.1193 10H15.8807ZM15.8807 11.8182H24.1193C26.3672 11.8182 28.1818 13.6328 28.1818 15.8807V24.1193C28.1818 26.3672 26.3672 28.1818 24.1193 28.1818H15.8807C13.6328 28.1818 11.8182 26.3672 11.8182 24.1193V15.8807C11.8182 13.6328 13.6328 11.8182 15.8807 11.8182ZM24.5455 14.6307C24.5455 14.1726 24.9112 13.8068 25.3693 13.8068C25.8274 13.8068 26.1932 14.1726 26.1932 14.6307C26.1932 15.0888 25.8274 15.4545 25.3693 15.4545C24.9112 15.4545 24.5455 15.0888 24.5455 14.6307ZM20 14.5455C16.9993 14.5455 14.5455 16.9993 14.5455 20C14.5455 23.0007 16.9993 25.4545 20 25.4545C23.0007 25.4545 25.4545 23.0007 25.4545 20C25.4545 16.9993 23.0007 14.5455 20 14.5455ZM23.6364 20C23.6364 17.9794 22.0206 16.3636 20 16.3636C17.9794 16.3636 16.3636 17.9794 16.3636 20C16.3636 22.0206 17.9794 23.6364 20 23.6364C22.0206 23.6364 23.6364 22.0206 23.6364 20Z" fill="white"/>
</svg>
