<svg xmlns="http://www.w3.org/2000/svg" viewBox="0 0 307.17 155.91"><g id="Scheme_type" data-name="Scheme type"><path d="M161.89,128a9.38,9.38,0,0,1-3.67.75,4.58,4.58,0,0,1-3.87-1.64,7.11,7.11,0,0,1-1.1-4.34q0-3.24,1.48-4.75a5,5,0,0,1,3.76-1.22,15.48,15.48,0,0,1,3,.3L161.3,119a19.73,19.73,0,0,0-2.59-.18,3,3,0,0,0-2.34.76,4.82,4.82,0,0,0-.8,3.2,5.82,5.82,0,0,0,.54,2.87,2.52,2.52,0,0,0,2.33,1.1,10.13,10.13,0,0,0,2.86-.54Z" transform="translate(0 0)" style="fill:#1d1d1b"/><path d="M163,128.55V117h7.2v2h-4.93v2.7h4.09v1.94h-4.09v3h4.93v2Z" transform="translate(0 0)" style="fill:#1d1d1b"/><path d="M177.53,128.55c-.83-1.53-1.54-3-2.23-4.48-.5,0-1.19,0-1.62,0v4.53h-2.27V117a34.25,34.25,0,0,1,3.66-.24c2.37,0,4.59.58,4.59,3.59a3.26,3.26,0,0,1-2.22,3.38c.67,1.37,1.7,3.14,2.7,4.79Zm-3.85-6.17a9.42,9.42,0,0,0,2.45-.18,1.58,1.58,0,0,0,1.22-1.79c0-1.38-1-1.63-2.1-1.63-.53,0-1.08,0-1.57,0Z" transform="translate(0 0)" style="fill:#1d1d1b"/><path d="M183.15,128.55v-9.61H180v-2h8.53v2h-3.13v9.61Z" transform="translate(0 0)" style="fill:#1d1d1b"/><path d="M189.39,128.55V117h2.27v11.59Z" transform="translate(0 0)" style="fill:#1d1d1b"/><path d="M193.53,128.55V117h7.37v2h-5.1v2.9H200v1.94H195.8v4.77Z" transform="translate(0 0)" style="fill:#1d1d1b"/><path d="M202,128.55V117h2.26v11.59Z" transform="translate(0 0)" style="fill:#1d1d1b"/><path d="M206.12,128.55V117h7.2v2h-4.94v2.7h4.09v1.94h-4.09v3h4.94v2Z" transform="translate(0 0)" style="fill:#1d1d1b"/><path d="M214.56,117.1a25.9,25.9,0,0,1,3.62-.31c3.92,0,5.29,2.06,5.29,5.95s-1.37,6-5.29,6c-1.08,0-2.43-.06-3.62-.18Zm2.27,9.58c.48,0,.73,0,1.15,0,2.55,0,3.18-1.1,3.18-4,0-2.72-.63-4-3.18-4a10.48,10.48,0,0,0-1.15,0Z" transform="translate(0 0)" style="fill:#1d1d1b"/></g><g id="Scheme_text" data-name="Scheme text"><path d="M155,43.87V29.06h2.21V43.87Z" transform="translate(0 0)" style="fill:#1d1d1b"/><path d="M159.54,41.8a22.79,22.79,0,0,0,3.5.32,4.65,4.65,0,0,0,3.15-.83,2,2,0,0,0,.62-1.52c0-1.45-.9-1.93-3.45-2.69s-4.19-1.79-4.19-4.3a3.59,3.59,0,0,1,1.43-2.94,5.84,5.84,0,0,1,3.66-1,22.18,22.18,0,0,1,4.09.46l-.28,1.84a20.42,20.42,0,0,0-3.42-.32,4.72,4.72,0,0,0-2.56.52,1.63,1.63,0,0,0-.69,1.38c0,1.52,1.18,2,3.61,2.69s4,1.75,4,4.35a4,4,0,0,1-1.5,3.27,6.5,6.5,0,0,1-4.07,1.08,24,24,0,0,1-4.2-.44Z" transform="translate(0 0)" style="fill:#1d1d1b"/><path d="M170.08,36.46c0-5,1.9-7.63,6.39-7.63s6.39,2.62,6.39,7.63S181,44.1,176.47,44.1,170.08,41.48,170.08,36.46Zm10.53,0c0-3.91-1.18-5.65-4.14-5.65s-4.14,1.74-4.14,5.65,1.17,5.66,4.14,5.66S180.61,40.37,180.61,36.46Z" transform="translate(0 0)" style="fill:#1d1d1b"/><path d="M188.64,41.8a22,22,0,0,0,3.58.34,4.12,4.12,0,0,0,3-.8,3.19,3.19,0,0,0,.71-2.26c0-2.18-1-2.92-3.08-2.92h-4.18l.25-7.1h8.39v2h-6.35l-.11,3.22h2.32c3.15,0,5,1.34,5,4.88a4.9,4.9,0,0,1-1.48,3.81,5.94,5.94,0,0,1-4.11,1.18,23.46,23.46,0,0,1-4.21-.44Z" transform="translate(0 0)" style="fill:#1d1d1b"/><path d="M199.68,36.46c0-5,1-7.63,5.35-7.63s5.34,2.67,5.34,7.63-1,7.64-5.34,7.64S199.68,41.41,199.68,36.46Zm8.48,0c0-3.52-.21-5.7-3.13-5.7s-3.15,2.18-3.15,5.7.19,5.73,3.15,5.73S208.16,40,208.16,36.46Z" transform="translate(0 0)" style="fill:#1d1d1b"/><path d="M212,36.46c0-5,1-7.63,5.35-7.63s5.34,2.67,5.34,7.63-1,7.64-5.34,7.64S212,41.41,212,36.46Zm8.48,0c0-3.52-.21-5.7-3.13-5.7s-3.15,2.18-3.15,5.7.19,5.73,3.15,5.73S220.44,40,220.44,36.46Z" transform="translate(0 0)" style="fill:#1d1d1b"/><path d="M224.24,36.46c0-5,1-7.63,5.36-7.63s5.33,2.67,5.33,7.63-1,7.64-5.33,7.64S224.24,41.41,224.24,36.46Zm8.48,0c0-3.52-.2-5.7-3.12-5.7s-3.15,2.18-3.15,5.7.18,5.73,3.15,5.73S232.72,40,232.72,36.46Z" transform="translate(0 0)" style="fill:#1d1d1b"/><path d="M238.8,43.87V31.29l-3.08,1.17L235.05,31,239,29.06h2V43.87Z" transform="translate(0 0)" style="fill:#1d1d1b"/><path d="M154.57,62.87V51.27h6.9V52.8H156.3v3.33h4.23v1.51H156.3v3.7h5.17v1.53Z" transform="translate(0 0)" style="fill:#1d1d1b"/><path d="M167.64,62.87V57.41c0-1.06-.48-1.57-1.4-1.57a4.63,4.63,0,0,0-2,.53v6.5h-1.64V54.55h1.21l.14.75a4.25,4.25,0,0,1,2.52-.93,2.6,2.6,0,0,1,2.83,2.9v5.6Z" transform="translate(0 0)" style="fill:#1d1d1b"/><path d="M176.8,62.38a7.15,7.15,0,0,1-2.88.67c-2.45,0-3.76-1.53-3.76-4.29,0-2.29,1.05-4.39,3.58-4.39,2,0,3.19,1.44,3.19,3.67a6,6,0,0,1-.13,1.26h-5a2.65,2.65,0,0,0,.56,1.71,2.13,2.13,0,0,0,1.65.58,6.5,6.5,0,0,0,2.4-.52ZM175.38,58c0-1.25-.36-2.24-1.69-2.24s-1.78,1.08-1.85,2.24Z" transform="translate(0 0)" style="fill:#1d1d1b"/><path d="M178,62.87V54.55h1.22l.22,1h.07A2.66,2.66,0,0,1,182,54.39a6.92,6.92,0,0,1,.72,0l-.11,1.5a5.37,5.37,0,0,0-1-.08,3,3,0,0,0-2,.63v6.4Z" transform="translate(0 0)" style="fill:#1d1d1b"/><path d="M188.13,62.4a3.62,3.62,0,0,1-2,.65c-2.36,0-3.23-1.53-3.23-4.27,0-3.12,1-4.41,3.28-4.41a12.4,12.4,0,0,1,3.56.57v8.68a2.59,2.59,0,0,1-.75,2,3.78,3.78,0,0,1-2.56.72,15.53,15.53,0,0,1-2.68-.28l.22-1.41a15.43,15.43,0,0,0,2.23.22,2.32,2.32,0,0,0,1.58-.38,1.47,1.47,0,0,0,.33-1Zm0-6.41a10.58,10.58,0,0,0-1.77-.16c-1.42,0-1.78,1-1.78,3s.38,2.9,1.76,2.9a4,4,0,0,0,1.79-.4Z" transform="translate(0 0)" style="fill:#1d1d1b"/><path d="M192.73,66.14c.49-1.27.88-2.41,1.17-3.27H193c-.85-2.31-1.71-5.33-2.47-8.32h1.71c.56,2.45,1.17,4.79,1.9,7h.12c.67-2,1.37-4.63,1.91-7h1.67a96.7,96.7,0,0,1-3.52,11.59Z" transform="translate(0 0)" style="fill:#1d1d1b"/><path d="M164.14,81.87c-.1-3.1-.24-6.29-.38-9.35h-.09L161,79.9h-1.86l-2.63-7.38h-.09c-.14,3.06-.28,6.25-.37,9.35h-1.75c.13-3.86.32-7.73.54-11.6h2.52L160.07,78h.09l2.66-7.69h2.52c.22,3.87.42,7.74.54,11.6Z" transform="translate(0 0)" style="fill:#1d1d1b"/><path d="M172.32,81.87l-.18-.71a3.65,3.65,0,0,1-2.43.89A2.55,2.55,0,0,1,167,79.44a2.47,2.47,0,0,1,.88-2,3.53,3.53,0,0,1,2.23-.63c.58,0,1.24,0,1.82.07v-.7a1.41,1.41,0,0,0-.34-1,2.14,2.14,0,0,0-1.48-.36,11.51,11.51,0,0,0-2.34.27l-.25-1.37a10.22,10.22,0,0,1,2.74-.36,3.77,3.77,0,0,1,2.5.65,2.58,2.58,0,0,1,.81,2.12v5.73Zm-.43-3.73c-.41,0-1,0-1.48,0-1.2,0-1.78.43-1.78,1.35a1.27,1.27,0,0,0,1.42,1.31,3.08,3.08,0,0,0,1.84-.61Z" transform="translate(0 0)" style="fill:#1d1d1b"/><path d="M180.15,81.87V76.41c0-1.06-.48-1.57-1.4-1.57a4.63,4.63,0,0,0-2,.53v6.5h-1.64V73.55h1.21l.14.75a4.25,4.25,0,0,1,2.52-.93,2.6,2.6,0,0,1,2.83,2.9v5.6Z" transform="translate(0 0)" style="fill:#1d1d1b"/><path d="M188.16,81.87l-.18-.71a3.65,3.65,0,0,1-2.43.89,2.55,2.55,0,0,1-2.75-2.61,2.47,2.47,0,0,1,.88-2,3.53,3.53,0,0,1,2.23-.63c.58,0,1.24,0,1.82.07v-.7a1.41,1.41,0,0,0-.34-1,2.14,2.14,0,0,0-1.48-.36,11.51,11.51,0,0,0-2.34.27l-.25-1.37a10.22,10.22,0,0,1,2.74-.36,3.77,3.77,0,0,1,2.5.65,2.58,2.58,0,0,1,.81,2.12v5.73Zm-.43-3.73c-.41,0-1,0-1.48,0-1.2,0-1.78.43-1.78,1.35a1.27,1.27,0,0,0,1.42,1.31,3.08,3.08,0,0,0,1.84-.61Z" transform="translate(0 0)" style="fill:#1d1d1b"/><path d="M195.74,81.4a3.62,3.62,0,0,1-2,.65c-2.36,0-3.22-1.53-3.22-4.27,0-3.12,1-4.41,3.27-4.41a12.42,12.42,0,0,1,3.57.57v8.68a2.59,2.59,0,0,1-.76,2,3.75,3.75,0,0,1-2.55.72,15.65,15.65,0,0,1-2.69-.28l.22-1.41a15.58,15.58,0,0,0,2.23.22,2.35,2.35,0,0,0,1.59-.38,1.51,1.51,0,0,0,.32-1Zm0-6.41a10.55,10.55,0,0,0-1.76-.16c-1.43,0-1.79,1-1.79,3s.38,2.9,1.77,2.9a4,4,0,0,0,1.78-.4Z" transform="translate(0 0)" style="fill:#1d1d1b"/><path d="M205,81.38a7.19,7.19,0,0,1-2.88.67c-2.45,0-3.77-1.53-3.77-4.29,0-2.29,1.05-4.39,3.59-4.39,2,0,3.18,1.44,3.18,3.67A6.83,6.83,0,0,1,205,78.3h-5a2.7,2.7,0,0,0,.56,1.71,2.14,2.14,0,0,0,1.65.58,6.5,6.5,0,0,0,2.4-.52ZM203.53,77c0-1.25-.36-2.24-1.69-2.24S200.06,75.85,200,77Z" transform="translate(0 0)" style="fill:#1d1d1b"/><path d="M216,81.87V76.36c0-1-.5-1.52-1.42-1.52a4,4,0,0,0-1.92.58,7,7,0,0,1,.09,1v5.42h-1.64V76.36c0-1-.49-1.52-1.41-1.52a3.77,3.77,0,0,0-1.85.51v6.52h-1.64V73.55h1.21l.14.75a4.14,4.14,0,0,1,2.5-.93,2.4,2.4,0,0,1,2.16,1.06,4.18,4.18,0,0,1,2.6-1.06c1.85,0,2.82,1,2.82,3.06v5.44Z" transform="translate(0 0)" style="fill:#1d1d1b"/><path d="M225.12,81.38a7.19,7.19,0,0,1-2.88.67c-2.45,0-3.77-1.53-3.77-4.29,0-2.29,1.05-4.39,3.59-4.39,2,0,3.18,1.44,3.18,3.67a6.83,6.83,0,0,1-.12,1.26h-5a2.76,2.76,0,0,0,.56,1.71,2.14,2.14,0,0,0,1.65.58,6.5,6.5,0,0,0,2.4-.52ZM223.69,77c0-1.25-.36-2.24-1.69-2.24s-1.78,1.08-1.85,2.24Z" transform="translate(0 0)" style="fill:#1d1d1b"/><path d="M231.38,81.87V76.41c0-1.06-.49-1.57-1.41-1.57a4.63,4.63,0,0,0-2,.53v6.5h-1.64V73.55h1.21l.14.75a4.25,4.25,0,0,1,2.52-.93,2.6,2.6,0,0,1,2.83,2.9v5.6Z" transform="translate(0 0)" style="fill:#1d1d1b"/><path d="M238.9,81.51a4.58,4.58,0,0,1-2,.5c-1.35,0-2.12-.76-2.12-2.27V74.9h-1.24V73.69l1.29-.07.13-2.45h1.46v2.38h2.32V74.9h-2.32v4.59c0,.61.11,1,.74,1a2.79,2.79,0,0,0,1.2-.3Z" transform="translate(0 0)" style="fill:#1d1d1b"/><text/></g><g id="Key_line" data-name="Key line"><path d="M236.3,155.91H70.86a1.78,1.78,0,0,1,0-3.55H236.3a67.32,67.32,0,1,0,0-134.64h-130a1.78,1.78,0,0,1,0-3.55h130a70.87,70.87,0,1,1,0,141.74Z" transform="translate(0 0)" style="fill:#1d1d1b"/></g><g id="Roundel"><path d="M75,68.21a15.06,15.06,0,0,1,30.08,0Zm12.68,35.71c-2.13-6.27-7.19-9.57-11.45-12.35-4.73-3.08-6.71-4.68-6.8-7.64a7.34,7.34,0,0,1,7.22-7.37h26.27ZM67.34,127.74a24,24,0,0,0,3.54.32,18.16,18.16,0,0,0,3.53-.33l-3.53,6.34ZM63.06,76.56a16.09,16.09,0,0,0-1.82,7.16h0a2,2,0,0,0,0,.25v0c.12,7.84,5.92,11.63,10.59,14.67,5.55,3.62,8.69,6,8.69,11.9s-4.64,9.26-10.34,9.26c-3.66,0-8.3-2-10.15-5.22l-1.64-2.84L38.67,76.56Zm-11-22.68a15.2,15.2,0,0,1,15,14.33H37.05a15.2,15.2,0,0,1,15-14.33m38-8a22.46,22.46,0,0,0-19,10.37,22.43,22.43,0,0,0-19-10.37A23.31,23.31,0,0,0,28.83,69.22v2.37a13,13,0,0,0,2,7.33l40,69s38-65.55,39.85-69,2.18-5,2.18-7.33V69.22A23.13,23.13,0,0,0,90,45.9" transform="translate(0 0)" style="fill:#1d1d1b"/><path d="M56.48,12.39a12.58,12.58,0,0,0-6.81,2V0H44V39.07h3.34l.92-2.1a13.13,13.13,0,0,0,8.23,2.71c7.4,0,10.14-5.09,10.14-13.64S63.88,12.39,56.48,12.39m-1.33,4.95c5,0,5.73,3.9,5.73,8.7s-.75,8.71-5.73,8.71a10.6,10.6,0,0,1-5.48-1.52V18.85a10.51,10.51,0,0,1,5.48-1.51M73.8,20.52c0-2.35,1.89-3.23,4.89-3.23a20.46,20.46,0,0,1,7.75,1.46V13.69a19,19,0,0,0-7.87-1.3c-7.45,0-10.29,3.8-10.29,8.28s1.88,6.92,9.54,7.62c3.4.3,4.21,1.29,4.21,3.22,0,2.29-2,3.24-6,3.24a21.81,21.81,0,0,1-7.56-1.46v5a23.72,23.72,0,0,0,8.38,1.4c8.12,0,10.81-3.9,10.81-8.38,0-4.84-2-7.19-9.59-7.86-3.31-.32-4.23-1.1-4.23-2.92M96.63,39.43a5.76,5.76,0,0,0,1.11-.11V34.59c-1.62,0-2.13-.53-2.13-2V13H89.93V32.66c0,4.47,2.09,6.77,6.7,6.77M89.07,5.3a3.71,3.71,0,1,0,7.41,0,3.71,3.71,0,1,0-7.41,0" transform="translate(0 0)" style="fill:#1d1d1b"/><path d="M70.87,155.91A70.88,70.88,0,0,1,34.52,24.19a1.77,1.77,0,1,1,1.82,3A67.33,67.33,0,1,0,138.19,85a66.8,66.8,0,0,0-32.8-57.81,1.77,1.77,0,0,1,1.82-3A70.88,70.88,0,0,1,70.87,155.91Z" transform="translate(0 0)" style="fill:#1d1d1b"/></g></svg>