<svg width="292" height="264" viewBox="0 0 292 264" fill="none" xmlns="http://www.w3.org/2000/svg">
<g clip-path="url(#clip0)">
<path d="M134.21 0.979893C134.74 -0.0601074 136.05 0.219893 137.05 0.139893C137.41 4.64989 138.05 9.13989 138.53 13.6099C138.733 14.8018 138.807 16.0121 138.75 17.2199C137.921 17.2701 137.089 17.2701 136.26 17.2199C136.12 12.9599 135.31 8.72989 135.03 4.50989C134.23 5.32907 133.556 6.2626 133.03 7.27989C132.189 8.74391 131.247 10.1473 130.21 11.4799C128.81 10.2699 127.52 8.92989 126.21 7.60989C125.651 6.91947 124.974 6.33372 124.21 5.87989C124.54 10.1599 125.21 14.3899 125.64 18.6199C124.82 18.6199 124.04 18.6199 123.23 18.5599C123.79 18.6699 124.35 18.7599 124.94 18.8399C124.32 18.8399 123.7 18.8399 123.12 18.8999C122.67 14.6099 122.12 10.3299 121.66 6.04989C121.423 4.65261 121.309 3.23714 121.32 1.81989C122.32 1.86989 123.59 1.36989 124.32 2.26989C126.17 4.13989 127.99 6.04989 129.95 7.80989C131.4 5.53989 132.86 3.24989 134.26 0.949893L134.21 0.979893Z" fill="#222222" stroke="#222222" stroke-width="0.09375" stroke-miterlimit="10"/>
<path d="M163.16 1.00994C164.03 1.00994 165.16 0.86994 165.62 1.81994C168.454 6.57994 171.31 11.3199 174.19 16.0399C175.19 11.8099 175.64 7.44994 176.6 3.18994C177.32 3.29994 178.08 3.46994 178.81 3.63994C178.05 9.23994 176.81 14.7799 175.98 20.3799C175.37 20.3793 174.761 20.3224 174.16 20.2099C173.4 19.9299 173.16 19.0699 172.79 18.4799C170.86 15.2899 168.98 12.0399 166.99 8.86994C166.356 7.71847 165.637 6.61547 164.84 5.56994C164.22 8.90327 163.63 12.2633 163.07 15.6499C162.999 16.4316 162.841 17.2029 162.6 17.9499C161.95 18.2799 161.17 17.8899 160.5 17.8299C160.462 17.3163 160.479 16.8 160.55 16.2899C161.39 11.1999 162.4 6.12994 163.16 1.00994V1.00994Z" fill="#222222" stroke="#222222" stroke-width="0.09375" stroke-miterlimit="10"/>
<path fill-rule="evenodd" clip-rule="evenodd" d="M150.79 0.0801176C150.123 0.0169685 149.451 0.0371238 148.79 0.140118H148.78C147.627 2.71099 146.44 5.27045 145.254 7.82789C144.516 9.41867 143.779 11.0087 143.05 12.6001C142.298 14.012 141.656 15.4797 141.13 16.9901H143.74C144.328 15.6301 144.929 14.2842 145.527 12.9465C145.642 12.6907 145.756 12.4353 145.87 12.1801C148.203 12.1535 150.537 12.1801 152.87 12.2601C153 12.3394 153.121 12.4334 153.23 12.5401C153.641 13.3454 153.984 14.1922 154.328 15.0439C154.57 15.6411 154.812 16.2407 155.08 16.8301C155.314 17.6022 156.084 17.5314 156.823 17.4635C157.127 17.4355 157.426 17.408 157.68 17.4401C157.36 16.2454 156.928 15.0836 156.39 13.9701C155.636 12.0646 154.857 10.1741 154.078 8.28438C152.956 5.56264 151.835 2.84228 150.79 0.0801176ZM152.04 9.97998C151.35 7.92896 150.529 5.92476 149.58 3.97998L149.53 4.01998C149.224 4.7882 148.872 5.54738 148.521 6.30571C147.966 7.50189 147.413 8.69595 147.04 9.91998C148.74 9.97998 150.39 9.97998 152.04 9.97998Z" fill="#222222"/>
<path d="M148.79 0.140118V0.187557L148.797 0.186435L148.79 0.140118ZM150.79 0.0801176L150.834 0.0635355L150.823 0.0362072L150.794 0.0334515L150.79 0.0801176ZM148.78 0.140118V0.0932426H148.75L148.737 0.120937L148.78 0.140118ZM145.254 7.82789L145.211 7.80817L145.211 7.80817L145.254 7.82789ZM143.05 12.6001L143.091 12.6222L143.093 12.6196L143.05 12.6001ZM141.13 16.9901L141.086 16.9747L141.064 17.037H141.13V16.9901ZM143.74 16.9901V17.037H143.771L143.783 17.0087L143.74 16.9901ZM145.527 12.9465L145.485 12.9273L145.485 12.9273L145.527 12.9465ZM145.87 12.1801L145.869 12.1332L145.839 12.1336L145.827 12.161L145.87 12.1801ZM152.87 12.2601L152.894 12.2201L152.884 12.2137L152.871 12.2133L152.87 12.2601ZM153.23 12.5401L153.272 12.5188L153.268 12.512L153.263 12.5066L153.23 12.5401ZM154.328 15.0439L154.372 15.0263L154.372 15.0263L154.328 15.0439ZM155.08 16.8301L155.125 16.8164L155.123 16.8107L155.08 16.8301ZM156.823 17.4635L156.819 17.4168L156.819 17.4168L156.823 17.4635ZM157.68 17.4401L157.674 17.4866L157.743 17.4954L157.725 17.428L157.68 17.4401ZM156.39 13.9701L156.346 13.9874L156.348 13.9905L156.39 13.9701ZM154.078 8.28438L154.121 8.26651L154.121 8.26651L154.078 8.28438ZM149.58 3.97998L149.622 3.95943L149.596 3.90679L149.551 3.94338L149.58 3.97998ZM152.04 9.97998V10.0269H152.105L152.084 9.96504L152.04 9.97998ZM149.53 4.01998L149.501 3.98338L149.491 3.99111L149.486 4.00261L149.53 4.01998ZM148.521 6.30571L148.478 6.286L148.478 6.286L148.521 6.30571ZM147.04 9.91998L146.995 9.90631L146.977 9.96467L147.038 9.96683L147.04 9.91998ZM148.797 0.186435C149.455 0.0840399 150.123 0.0640018 150.785 0.126784L150.794 0.0334515C150.124 -0.0300648 149.448 -0.00979229 148.783 0.0938005L148.797 0.186435ZM148.78 0.186993H148.79V0.0932426H148.78V0.186993ZM145.296 7.84761C146.482 5.29022 147.67 2.73048 148.823 0.159298L148.737 0.120937C147.584 2.69149 146.397 5.25069 145.211 7.80817L145.296 7.84761ZM143.093 12.6196C143.821 11.0283 144.558 9.43841 145.296 7.84761L145.211 7.80817C144.473 9.39893 143.736 10.989 143.007 12.5806L143.093 12.6196ZM141.174 17.0055C141.7 15.4974 142.341 14.0319 143.091 12.6221L143.009 12.5781C142.256 13.9921 141.613 15.462 141.086 16.9747L141.174 17.0055ZM143.74 16.9432H141.13V17.037H143.74V16.9432ZM145.485 12.9273C144.887 14.265 144.285 15.6112 143.697 16.9715L143.783 17.0087C144.37 15.649 144.972 14.3034 145.57 12.9656L145.485 12.9273ZM145.827 12.161C145.713 12.4162 145.599 12.6716 145.485 12.9273L145.57 12.9656C145.685 12.7099 145.799 12.4544 145.913 12.1992L145.827 12.161ZM152.871 12.2133C150.537 12.1332 148.203 12.1066 145.869 12.1332L145.87 12.227C148.203 12.2003 150.536 12.227 152.868 12.307L152.871 12.2133ZM153.263 12.5066C153.151 12.3974 153.028 12.3012 152.894 12.2201L152.846 12.3002C152.973 12.3776 153.091 12.4693 153.197 12.5736L153.263 12.5066ZM154.372 15.0263C154.027 14.175 153.684 13.3263 153.272 12.5188L153.188 12.5614C153.599 13.3646 153.94 14.2095 154.285 15.0615L154.372 15.0263ZM155.123 16.8107C154.855 16.2224 154.613 15.6237 154.372 15.0263L154.285 15.0615C154.526 15.6585 154.769 16.2591 155.037 16.8495L155.123 16.8107ZM156.819 17.4168C156.447 17.4509 156.078 17.4844 155.772 17.416C155.621 17.3821 155.487 17.3235 155.378 17.2289C155.269 17.1345 155.181 17.0022 155.125 16.8165L155.035 16.8437C155.096 17.0441 155.192 17.1924 155.316 17.2998C155.44 17.407 155.589 17.4711 155.752 17.5075C156.075 17.5798 156.46 17.5439 156.827 17.5101L156.819 17.4168ZM157.686 17.3936C157.426 17.3608 157.121 17.389 156.819 17.4168L156.827 17.5101C157.133 17.482 157.426 17.4553 157.674 17.4866L157.686 17.3936ZM156.348 13.9905C156.885 15.1014 157.316 16.2604 157.635 17.4522L157.725 17.428C157.405 16.2305 156.972 15.0659 156.432 13.9497L156.348 13.9905ZM154.034 8.30224C154.813 10.1921 155.592 12.0822 156.346 13.9874L156.433 13.9529C155.679 12.047 154.9 10.1562 154.121 8.26651L154.034 8.30224ZM150.746 0.0966996C151.791 2.85961 152.913 5.58061 154.034 8.30224L154.121 8.26651C152.999 5.54467 151.878 2.82495 150.834 0.0635355L150.746 0.0966996ZM149.538 4.00053C150.486 5.94349 151.307 7.94581 151.996 9.99492L152.084 9.96504C151.394 7.9121 150.572 5.90603 149.622 3.95943L149.538 4.00053ZM149.559 4.05658L149.609 4.01658L149.551 3.94338L149.501 3.98338L149.559 4.05658ZM148.563 6.32541C148.914 5.56728 149.267 4.80695 149.574 4.03735L149.486 4.00261C149.181 4.76945 148.829 5.52747 148.478 6.286L148.563 6.32541ZM147.085 9.93366C147.457 8.71326 148.009 7.52215 148.563 6.32541L148.478 6.286C147.924 7.48163 147.37 8.67865 146.995 9.90631L147.085 9.93366ZM152.04 9.93311C150.39 9.93311 148.741 9.9331 147.042 9.87313L147.038 9.96683C148.739 10.0269 150.39 10.0269 152.04 10.0269V9.93311Z" fill="#222222"/>
<path d="M100.28 7.20005C101 7.00005 101.73 6.80005 102.49 6.55005C104.03 11.25 105.23 16.01 106.74 20.72C109.32 20.35 111.67 18.9 114.28 18.84C114.39 19.51 114.56 20.16 114.69 20.84C112.09 21.71 109.46 22.38 106.86 23.22C106.213 23.4236 105.539 23.5281 104.86 23.53C103.46 18.69 101.97 13.84 100.54 9.03005C100.359 8.44993 100.258 7.84763 100.24 7.24005L100.28 7.20005Z" fill="#222222" stroke="#222222" stroke-width="0.09375" stroke-miterlimit="10"/>
<path fill-rule="evenodd" clip-rule="evenodd" d="M190.15 7.22008C188.639 8.75255 187.207 10.3613 185.86 12.0401H185.89C184.531 13.4156 183.288 14.8745 182.047 16.3307C181.015 17.5423 179.984 18.752 178.89 19.9101C178.532 20.2376 178.246 20.6361 178.05 21.0801C178.83 21.2801 179.59 21.5301 180.35 21.7801C180.715 21.3829 181.073 20.9808 181.43 20.5792C182.305 19.5953 183.177 18.6148 184.15 17.7201C185.132 18.0697 186.123 18.3841 187.114 18.6988C188.362 19.0951 189.612 19.4918 190.85 19.9601C191.012 21.3049 191.131 22.6334 191.251 23.9697C191.293 24.4418 191.335 24.9149 191.38 25.3901C192.153 25.758 192.986 25.9849 193.84 26.0601C193.84 25.8837 193.825 25.7073 193.811 25.5274C193.795 25.3401 193.78 25.149 193.78 24.9501C193.505 22.5562 193.272 20.154 193.039 17.7509C192.704 14.3015 192.37 10.8504 191.91 7.42008C191.755 7.38969 191.594 7.33793 191.429 7.28525C190.998 7.14725 190.548 7.00296 190.15 7.22008ZM189.89 10.95C188.47 12.51 187.09 14.11 185.78 15.79C187.317 16.4414 188.897 16.9827 190.51 17.41C190.4 15.23 190.17 13.07 189.89 10.95Z" fill="#222222"/>
<path d="M185.86 12.0401L185.823 12.0107L185.762 12.087H185.86V12.0401ZM190.15 7.22008L190.126 7.1771L190.116 7.18717L190.15 7.22008ZM185.89 12.0401L185.923 12.073L186.002 11.9932H185.89V12.0401ZM182.047 16.3307L182.083 16.3611L182.083 16.3611L182.047 16.3307ZM178.89 19.9101L178.922 19.9448L178.924 19.9423L178.89 19.9101ZM178.05 21.0801L178.007 21.0612L177.985 21.1118L178.038 21.1255L178.05 21.0801ZM180.35 21.7801L180.335 21.8246L180.364 21.834L180.384 21.8118L180.35 21.7801ZM181.43 20.5792L181.465 20.6103L181.465 20.6103L181.43 20.5792ZM184.15 17.7201L184.166 17.6759L184.139 17.6664L184.118 17.6856L184.15 17.7201ZM187.114 18.6988L187.128 18.6541L187.128 18.6541L187.114 18.6988ZM190.85 19.9601L190.896 19.9545L190.893 19.9263L190.866 19.9162L190.85 19.9601ZM191.251 23.9697L191.298 23.9655L191.298 23.9655L191.251 23.9697ZM191.38 25.3901L191.333 25.3944L191.336 25.421L191.36 25.4324L191.38 25.3901ZM193.84 26.0601L193.836 26.1068L193.887 26.1113V26.0601H193.84ZM193.811 25.5274L193.857 25.5235L193.857 25.5235L193.811 25.5274ZM193.78 24.9501H193.827L193.826 24.9447L193.78 24.9501ZM193.039 17.7509L192.992 17.7554L192.992 17.7554L193.039 17.7509ZM191.91 7.42008L191.956 7.41386L191.952 7.38056L191.919 7.37409L191.91 7.42008ZM191.429 7.28525L191.443 7.24061L191.443 7.24061L191.429 7.28525ZM185.78 15.79L185.743 15.7611L185.706 15.8093L185.762 15.8331L185.78 15.79ZM189.89 10.95L189.937 10.9438L189.924 10.8438L189.856 10.9184L189.89 10.95ZM190.51 17.41L190.498 17.4553L190.56 17.4717L190.557 17.4076L190.51 17.41ZM185.896 12.0694C187.242 10.3919 188.673 8.78432 190.183 7.253L190.116 7.18717C188.604 8.72077 187.171 10.3307 185.823 12.0107L185.896 12.0694ZM185.89 11.9932H185.86V12.087H185.89V11.9932ZM182.083 16.3611C183.324 14.9047 184.565 13.4471 185.923 12.073L185.856 12.0071C184.496 13.3841 183.252 14.8443 182.011 16.3003L182.083 16.3611ZM178.924 19.9423C180.019 18.7831 181.051 17.5725 182.083 16.3611L182.011 16.3003C180.979 17.512 179.949 18.7208 178.856 19.8779L178.924 19.9423ZM178.093 21.099C178.286 20.6609 178.568 20.2678 178.921 19.9447L178.858 19.8755C178.495 20.2074 178.205 20.6112 178.007 21.0612L178.093 21.099ZM180.364 21.7356C179.605 21.4856 178.843 21.2351 178.061 21.0347L178.038 21.1255C178.816 21.325 179.575 21.5745 180.335 21.8246L180.364 21.7356ZM181.395 20.548C181.038 20.9497 180.68 21.3516 180.315 21.7484L180.384 21.8118C180.75 21.4143 181.108 21.0119 181.465 20.6103L181.395 20.548ZM184.118 17.6856C183.143 18.5822 182.27 19.5645 181.395 20.548L181.465 20.6103C182.34 19.6262 183.211 18.6475 184.182 17.7546L184.118 17.6856ZM187.128 18.6541C186.137 18.3394 185.147 18.0252 184.166 17.6759L184.134 17.7642C185.118 18.1142 186.109 18.4288 187.1 18.7434L187.128 18.6541ZM190.866 19.9162C189.628 19.4475 188.376 19.0503 187.128 18.6541L187.1 18.7434C188.348 19.1398 189.597 19.5362 190.833 20.0039L190.866 19.9162ZM191.298 23.9655C191.178 22.6293 191.059 21.3001 190.896 19.9545L190.803 19.9657C190.966 21.3097 191.085 22.6375 191.204 23.9739L191.298 23.9655ZM191.426 25.3857C191.382 24.9107 191.34 24.4377 191.298 23.9655L191.204 23.9739C191.246 24.446 191.289 24.9192 191.333 25.3944L191.426 25.3857ZM193.844 26.0134C192.996 25.9387 192.169 25.7133 191.4 25.3478L191.36 25.4324C192.138 25.8027 192.977 26.0311 193.836 26.1068L193.844 26.0134ZM193.764 25.5312C193.779 25.7114 193.793 25.8859 193.793 26.0601H193.887C193.887 25.8815 193.872 25.7031 193.857 25.5235L193.764 25.5312ZM193.733 24.9501C193.733 25.1512 193.749 25.3442 193.764 25.5312L193.857 25.5235C193.842 25.336 193.827 25.1468 193.827 24.9501H193.733ZM192.992 17.7554C193.225 20.1584 193.458 22.5611 193.733 24.9554L193.826 24.9447C193.551 22.5514 193.318 20.1495 193.085 17.7464L192.992 17.7554ZM191.863 7.42631C192.323 10.8556 192.658 14.3059 192.992 17.7554L193.085 17.7464C192.751 14.2971 192.416 10.8451 191.956 7.41386L191.863 7.42631ZM191.415 7.32989C191.579 7.38238 191.743 7.43507 191.901 7.46608L191.919 7.37409C191.767 7.34432 191.608 7.29348 191.443 7.24061L191.415 7.32989ZM190.172 7.26123C190.36 7.15877 190.562 7.14061 190.772 7.16603C190.983 7.19158 191.198 7.26061 191.415 7.32989L191.443 7.24061C191.229 7.1719 191.004 7.09978 190.783 7.07296C190.56 7.04602 190.338 7.06428 190.127 7.17893L190.172 7.26123ZM185.817 15.8188C187.126 14.14 188.505 12.5409 189.925 10.9815L189.856 10.9184C188.435 12.479 187.054 14.0799 185.743 15.7611L185.817 15.8188ZM190.522 17.3646C188.911 16.938 187.333 16.3974 185.799 15.7468L185.762 15.8331C187.3 16.4854 188.883 17.0275 190.498 17.4553L190.522 17.3646ZM189.844 10.9561C190.124 13.0753 190.354 15.234 190.463 17.4123L190.557 17.4076C190.447 15.2259 190.217 13.0646 189.937 10.9438L189.844 10.9561Z" fill="#222222"/>
<path d="M199.72 16.38C200.642 15.4397 201.769 14.7256 203.013 14.2936C204.257 13.8616 205.584 13.7235 206.89 13.89C210.19 14.22 212.89 16.35 214.98 18.81C214.61 19.54 214.28 20.27 213.98 21C212.89 20.13 212.25 18.81 211.07 18C209.31 16.77 207.15 15.7 204.97 16.24C203.924 16.4709 202.949 16.9491 202.126 17.6346C201.303 18.3202 200.656 19.193 200.24 20.18C199.707 21.4634 199.561 22.8747 199.82 24.24C200.68 27.52 204.04 29.45 207.26 29.62C207.82 28.62 208.33 27.55 208.8 26.48C207.784 26.0786 206.818 25.5619 205.92 24.94C206.31 24.38 206.4 23.01 207.38 23.35C208.94 24.02 210.45 24.8 211.99 25.56C211.15 27.8 209.99 29.93 208.94 32.08C206.044 32.1197 203.207 31.2602 200.82 29.62C199.627 28.7778 198.659 27.655 198.001 26.3507C197.344 25.0463 197.017 23.6003 197.05 22.14C197.275 19.9635 198.234 17.9285 199.77 16.37L199.72 16.38Z" fill="#222222" stroke="#222222" stroke-width="0.09375" stroke-miterlimit="10"/>
<path d="M77.8199 16.8C78.866 16.0946 79.9739 15.4854 81.1299 14.98C81.8799 15.23 82.0499 16.24 82.2499 16.98C80.5999 17.9 78.9199 18.8 77.2499 19.75C79.3799 23.95 81.8999 27.95 84.0799 32.15C84.1996 32.4032 84.221 32.6919 84.1399 32.96C83.55 33.4287 82.8688 33.7693 82.1399 33.96C79.8399 29.67 77.3499 25.47 75.1399 21.16C73.2899 21.72 71.7499 23.01 69.9899 23.82C69.4726 23.2526 69.1049 22.5652 68.9199 21.82C71.9199 20.16 74.8599 18.48 77.8499 16.89L77.8199 16.8Z" fill="#222222" stroke="#222222" stroke-width="0.09375" stroke-miterlimit="10"/>
<path fill-rule="evenodd" clip-rule="evenodd" d="M88.0642 11.8283C87.9782 11.8833 87.8964 11.9356 87.8204 11.9801C87.7199 12.7524 87.6898 13.5323 87.7304 14.3101V30.5901C87.9011 30.5362 88.0844 30.4888 88.2717 30.4404C88.9183 30.2734 89.6127 30.0941 90.0004 29.5901C90.0924 28.6529 90.0701 27.7129 90.0478 26.773C90.0288 25.9779 90.0099 25.1829 90.0604 24.3901C90.9203 23.7372 91.934 23.3524 92.9454 22.9683C93.5453 22.7405 94.1445 22.513 94.7104 22.2301C94.8859 22.1738 95.0756 22.0902 95.2726 22.0034C95.9507 21.7045 96.7146 21.3679 97.2804 21.9801C98.0208 22.6819 98.782 23.3588 99.5452 24.0375C99.9673 24.413 100.39 24.789 100.81 25.1701C101.069 25.0555 101.332 24.9532 101.594 24.851C102.042 24.6769 102.488 24.5033 102.91 24.2701C102.951 24.004 102.776 23.8224 102.608 23.6467C102.567 23.6045 102.527 23.5627 102.49 23.5201C100.5 21.5969 98.4466 19.7307 96.3922 17.8638C94.1415 15.8186 91.8899 13.7726 89.7204 11.6501C89.2407 11.0762 88.5776 11.5001 88.0642 11.8283ZM92.779 17.7696C91.9047 16.9556 91.0282 16.1394 90.0496 15.45V15.49C90.0196 17.54 89.9896 19.65 90.1296 21.65C91.779 21.1172 93.3812 20.4483 94.9196 19.65C94.1737 19.0683 93.4771 18.4197 92.779 17.7696Z" fill="#222222"/>
<path d="M87.8204 11.9801L87.7967 11.9396L87.7768 11.9512L87.7739 11.974L87.8204 11.9801ZM88.0642 11.8283L88.0894 11.8678L88.0894 11.8678L88.0642 11.8283ZM87.7304 14.3101H87.7773L87.7772 14.3076L87.7304 14.3101ZM87.7304 30.5901H87.6835V30.654L87.7445 30.6348L87.7304 30.5901ZM88.2717 30.4404L88.2599 30.3951L88.2599 30.3951L88.2717 30.4404ZM90.0004 29.5901L90.0375 29.6186L90.0457 29.608L90.047 29.5947L90.0004 29.5901ZM90.0478 26.773L90.0946 26.7719L90.0946 26.7719L90.0478 26.773ZM90.0604 24.3901L90.032 24.3527L90.0149 24.3657L90.0136 24.3871L90.0604 24.3901ZM92.9454 22.9683L92.9621 23.0121L92.9621 23.0121L92.9454 22.9683ZM94.7104 22.2301L94.6959 22.1849L94.6894 22.1881L94.7104 22.2301ZM95.2726 22.0034L95.2537 21.9605L95.2537 21.9605L95.2726 22.0034ZM97.2804 21.9801L97.2459 22.012L97.2481 22.0141L97.2804 21.9801ZM99.5452 24.0375L99.514 24.0726L99.514 24.0726L99.5452 24.0375ZM100.81 25.1701L100.779 25.2048L100.801 25.2253L100.829 25.2129L100.81 25.1701ZM101.594 24.851L101.577 24.8073L101.577 24.8073L101.594 24.851ZM102.91 24.2701L102.933 24.3111L102.953 24.2999L102.957 24.2771L102.91 24.2701ZM102.608 23.6467L102.574 23.6792L102.574 23.6792L102.608 23.6467ZM102.49 23.5201L102.526 23.4893L102.523 23.4864L102.49 23.5201ZM96.3922 17.8638L96.3606 17.8985L96.3606 17.8985L96.3922 17.8638ZM89.7204 11.6501L89.6842 11.6803L89.6876 11.6836L89.7204 11.6501ZM90.0496 15.45L90.0766 15.4116L90.0027 15.3596V15.45H90.0496ZM92.779 17.7696L92.747 17.8039L92.747 17.8039L92.779 17.7696ZM90.0496 15.49L90.0965 15.4906V15.49H90.0496ZM90.1296 21.65L90.0829 21.6532L90.087 21.713L90.144 21.6946L90.1296 21.65ZM94.9196 19.65L94.9412 19.6916L95.0061 19.6579L94.9484 19.613L94.9196 19.65ZM87.844 12.0205C87.921 11.9755 88.0036 11.9227 88.0894 11.8678L88.0389 11.7888C87.9527 11.8439 87.8718 11.8957 87.7967 11.9396L87.844 12.0205ZM87.7772 14.3076C87.7368 13.5327 87.7668 12.7556 87.8668 11.9861L87.7739 11.974C87.6731 12.7492 87.6428 13.5319 87.6835 14.3125L87.7772 14.3076ZM87.7772 30.5901V14.3101H87.6835V30.5901H87.7772ZM88.2599 30.3951C88.0729 30.4434 87.8883 30.491 87.7162 30.5454L87.7445 30.6348C87.9138 30.5813 88.0958 30.5343 88.2834 30.4858L88.2599 30.3951ZM89.9632 29.5615C89.7761 29.8048 89.5135 29.9715 89.2148 30.0985C88.9157 30.2256 88.5839 30.3114 88.2599 30.3951L88.2834 30.4858C88.606 30.4025 88.9448 30.3151 89.2515 30.1848C89.5585 30.0543 89.8369 29.8794 90.0375 29.6186L89.9632 29.5615ZM90.0009 26.7742C90.0232 27.7145 90.0455 28.6517 89.9537 29.5855L90.047 29.5947C90.1394 28.6542 90.1169 27.7113 90.0946 26.7719L90.0009 26.7742ZM90.0136 24.3871C89.963 25.1823 89.982 25.9794 90.0009 26.7742L90.0946 26.7719C90.0757 25.9764 90.0569 25.1835 90.1071 24.393L90.0136 24.3871ZM92.9288 22.9245C91.9184 23.3081 90.8983 23.6951 90.032 24.3527L90.0887 24.4274C90.9424 23.7794 91.9495 23.3966 92.9621 23.0121L92.9288 22.9245ZM94.6894 22.1881C94.126 22.4698 93.5291 22.6965 92.9288 22.9245L92.9621 23.0121C93.5616 22.7845 94.163 22.5562 94.7313 22.272L94.6894 22.1881ZM95.2537 21.9605C95.0561 22.0476 94.8688 22.1301 94.6961 22.1854L94.7247 22.2747C94.903 22.2175 95.0951 22.1328 95.2915 22.0463L95.2537 21.9605ZM97.3148 21.9483C97.0194 21.6286 96.6706 21.5571 96.3126 21.6036C95.9582 21.6496 95.5912 21.8117 95.2537 21.9605L95.2915 22.0463C95.6321 21.8962 95.9862 21.7405 96.3247 21.6966C96.6596 21.6531 96.9756 21.7193 97.2459 22.0119L97.3148 21.9483ZM99.5763 24.0025C98.813 23.3237 98.0524 22.6473 97.3126 21.946L97.2481 22.0141C97.9892 22.7165 98.7509 23.3939 99.514 24.0726L99.5763 24.0025ZM100.842 25.1353C100.421 24.7541 99.9984 24.3779 99.5763 24.0025L99.514 24.0726C99.9362 24.448 100.359 24.8239 100.779 25.2048L100.842 25.1353ZM101.577 24.8073C101.315 24.9094 101.051 25.0121 100.791 25.1272L100.829 25.2129C101.087 25.0988 101.349 24.9969 101.611 24.8947L101.577 24.8073ZM102.888 24.229C102.469 24.4605 102.025 24.633 101.577 24.8073L101.611 24.8947C102.058 24.7208 102.508 24.5461 102.933 24.3111L102.888 24.229ZM102.574 23.6792C102.746 23.8583 102.9 24.0233 102.864 24.263L102.957 24.2771C103.001 23.9847 102.807 23.7865 102.642 23.6142L102.574 23.6792ZM102.455 23.5507C102.493 23.5944 102.534 23.6371 102.574 23.6792L102.642 23.6142C102.601 23.5719 102.562 23.5309 102.526 23.4894L102.455 23.5507ZM96.3606 17.8985C98.4152 19.7654 100.468 21.6312 102.458 23.5538L102.523 23.4864C100.532 21.5626 98.4781 19.6959 96.4237 17.8291L96.3606 17.8985ZM89.6876 11.6836C91.8579 13.8068 94.1101 15.8534 96.3606 17.8985L96.4237 17.8291C94.1729 15.7838 91.922 13.7384 89.7531 11.6166L89.6876 11.6836ZM88.0894 11.8678C88.3478 11.7027 88.6354 11.5193 88.9167 11.4463C89.0564 11.41 89.1918 11.4018 89.3196 11.435C89.4468 11.4681 89.57 11.5433 89.6844 11.6801L89.7563 11.62C89.6308 11.4699 89.4913 11.3828 89.3432 11.3443C89.1957 11.3059 89.0434 11.3165 88.8931 11.3555C88.5946 11.433 88.294 11.6258 88.0389 11.7888L88.0894 11.8678ZM90.0226 15.4883C90.9981 16.1756 91.8724 16.9895 92.747 17.8039L92.8109 17.7353C91.9371 16.9216 91.0582 16.1032 90.0766 15.4116L90.0226 15.4883ZM90.0965 15.49V15.45H90.0027V15.49H90.0965ZM90.1764 21.6467C90.0365 19.649 90.0665 17.541 90.0965 15.4906L90.0027 15.4893C89.9728 17.5389 89.9427 19.6509 90.0829 21.6532L90.1764 21.6467ZM94.898 19.6083C93.3619 20.4055 91.7621 21.0734 90.1152 21.6053L90.144 21.6946C91.7959 21.161 93.4004 20.4911 94.9412 19.6916L94.898 19.6083ZM92.747 17.8039C93.4449 18.4537 94.143 19.1038 94.8908 19.6869L94.9484 19.613C94.2044 19.0328 93.5093 18.3856 92.8109 17.7353L92.747 17.8039Z" fill="#222222"/>
<path d="M213.05 32.7799C215.62 28.7799 218.05 24.7799 220.83 20.9099C222.43 21.9099 224.02 22.8199 225.56 23.9099C226.68 24.6899 228.03 25.1999 228.92 26.2899C228.536 26.8763 228.115 27.4375 227.66 27.9699C225.7 26.6366 223.7 25.3766 221.66 24.1899C220.65 25.5098 219.741 26.9037 218.94 28.3599C220.79 29.7299 222.81 30.8799 224.68 32.1999C224.29 32.7799 224.01 33.5399 223.36 33.8799C221.988 33.1655 220.671 32.3499 219.42 31.4399C218.88 30.9899 218.232 30.6898 217.54 30.5699C216.73 31.5699 216.11 32.7299 215.39 33.7599C215.19 34.0999 214.74 34.7599 215.25 34.9999C217.15 36.1999 219.08 37.3999 220.93 38.6899C220.658 39.3782 220.269 40.0142 219.78 40.5699C216.98 38.8899 214.27 37.0699 211.55 35.2199C211.964 34.3568 212.467 33.5391 213.05 32.7799V32.7799Z" fill="#222222" stroke="#222222" stroke-width="0.09375" stroke-miterlimit="10"/>
<path d="M62.8197 25.8399C63.4297 25.3699 64.0797 24.8899 64.6897 24.4399C65.4514 25.2496 66.147 26.1191 66.7697 27.0399C69.1397 30.2599 71.5797 33.4599 73.9897 36.6499C74.3636 37.0863 74.6982 37.5547 74.9897 38.0499C74.3697 38.6899 73.5597 39.6199 72.5797 39.2499C68.9697 38.4099 65.3297 37.7399 61.7197 36.8999C60.0897 36.5599 58.4997 36.1699 56.8697 35.9499C57.3797 37.3999 58.5497 38.4699 59.4197 39.6999C60.9597 41.9099 62.7497 43.9299 64.2097 46.1899C63.6758 46.7698 63.0381 47.2446 62.3297 47.5899C59.1097 43.1999 55.7497 38.9099 52.5397 34.5899C52.0897 33.8299 52.9597 33.1899 53.5397 32.9399C55.0218 33.0076 56.4898 33.2595 57.9097 33.6899C62.0797 34.5299 66.2197 35.5699 70.4197 36.2699C70.3397 36.0999 70.1697 35.7399 70.0597 35.5399C67.6197 32.3199 65.1897 29.1299 62.8097 25.8799L62.8197 25.8399Z" fill="#222222" stroke="#222222" stroke-width="0.09375" stroke-miterlimit="10"/>
<path d="M122.39 29.9599C130.114 28.4027 137.982 27.6785 145.86 27.7999C163.699 27.7577 181.303 31.866 197.28 39.7999C201.982 42.0862 206.52 44.6958 210.86 47.6099C215.225 50.5261 219.372 53.7545 223.27 57.2699C225.53 59.0899 227.52 61.2699 229.59 63.2699C233.651 67.3721 237.376 71.7929 240.73 76.4899C243.197 79.808 245.442 83.2856 247.45 86.8999C252.19 95.048 255.885 103.76 258.45 112.83C265.491 137.352 264.41 163.493 255.37 187.35C254.9 188.5 254.54 189.68 254.06 190.82C253.86 191.24 253.61 191.82 253.06 191.72C247.26 191.78 241.5 191.72 235.7 191.72C236.12 189.4 236.96 187.16 237.49 184.86C239.141 178.514 240.33 172.057 241.05 165.54C241.36 162.27 241.75 158.99 241.75 155.69C241.81 151.01 241.81 146.37 241.75 141.69C241.268 133.384 240.08 125.135 238.2 117.03C236.151 108.408 233.243 100.013 229.52 91.9699C225.776 83.7698 221.098 76.0287 215.58 68.8999C210.861 62.8442 205.522 57.2975 199.65 52.3499C186.43 41.3499 170.05 33.8999 152.86 32.3499C149.14 32.0268 145.403 31.9333 141.67 32.0699C127.991 32.7437 114.692 36.8053 102.97 43.8899C97.9657 46.876 93.24 50.3065 88.8505 54.1399C74.7438 66.8574 63.9607 82.8313 57.4405 100.67C52.5075 113.82 49.6108 127.646 48.8505 141.67C48.7605 147.47 48.6505 153.26 48.9605 159.03C49.633 169.226 51.3964 179.32 54.2205 189.14C54.5336 189.96 54.7419 190.817 54.8405 191.69C51.1205 191.63 47.3905 191.69 43.6705 191.69C41.7057 191.866 39.7327 191.933 37.7605 191.89C37.5643 191.93 37.3605 191.904 37.18 191.818C36.9995 191.731 36.8522 191.588 36.7605 191.41C30.5587 176.7 27.3988 160.886 27.4709 144.922C27.5431 128.958 30.846 113.174 37.1805 98.5199C44.8022 81.074 56.5251 65.7273 71.3521 53.7852C86.179 41.8432 103.671 33.6594 122.34 29.9299L122.39 29.9599Z" fill="#222222" stroke="#222222" stroke-width="0.09375" stroke-miterlimit="10"/>
<path d="M229.26 33.5399C230.63 32.0599 231.86 30.4599 233.18 28.9199C233.85 29.6799 235.11 30.2099 234.97 31.3599C234.69 34.0399 234.83 36.7299 234.77 39.4199C237.54 39.0499 240.26 38.2999 243 37.9099C243.9 37.7399 244.54 38.5499 245.13 39.0799C245.24 39.6199 244.71 39.9799 244.43 40.3999C241.07 44.3199 237.77 48.2699 234.43 52.2399C233.51 52.2399 233.03 51.2399 232.43 50.6999C234.92 47.6199 237.53 44.6999 240.04 41.5999C240.237 41.3417 240.418 41.0712 240.58 40.7899C237.89 41.0999 235.29 41.9399 232.58 42.2199L232.21 41.7699C232.457 39.2011 232.524 36.6181 232.41 34.0399C232.132 34.2154 231.868 34.4127 231.62 34.6299C229.08 37.5699 226.62 40.6299 224.07 43.5599C223.2 43.5599 222.69 42.5599 222.16 42.0499C224.4 39.1399 226.95 36.4499 229.22 33.5399H229.26Z" fill="#222222" stroke="#222222" stroke-width="0.09375" stroke-miterlimit="10"/>
<path d="M47.7305 37.94C48.5105 37.01 49.2105 38.49 49.7305 38.94C48.1905 40.65 46.4805 42.16 44.8905 43.81C44.8905 43.92 44.8305 44.09 44.8305 44.18C45.6205 45.24 46.6805 46.05 47.5505 47.03C47.7705 47.26 48.1405 47.76 48.4705 47.4C50.1005 45.94 51.5505 44.34 53.1705 42.89C53.7405 43.39 54.2705 43.95 54.8005 44.51C53.1705 46.14 51.4105 47.62 49.8005 49.27C50.815 50.4798 51.8967 51.6316 53.0405 52.72C53.4605 53.08 53.9105 52.6 54.2205 52.32C55.7305 50.84 57.2205 49.32 58.7305 47.9C59.2005 48.4 59.9305 48.8 60.1005 49.5C59.8904 49.8487 59.6234 50.1597 59.3105 50.42C57.3105 52.3 55.5105 54.26 53.5205 56.1C53.1805 56.44 52.7605 56.02 52.5205 55.77C48.8205 51.93 45.0505 48.07 41.2305 44.26C43.3005 42.08 45.6305 40.15 47.7305 37.94Z" fill="#222222" stroke="#222222" stroke-width="0.09375" stroke-miterlimit="10"/>
<path d="M245.55 47.06C246.87 45.89 248.21 44.74 249.44 43.48C251.68 45.89 253.89 48.27 256.11 50.7C255.49 51.15 254.98 52.3 254.11 51.91C252.68 50.37 251.25 48.8 249.82 47.26C249.4 46.87 248.93 47.4 248.62 47.68C247.636 48.5294 246.71 49.4448 245.85 50.42C247.36 52.1 248.96 53.75 250.44 55.49C249.94 56.02 249.44 56.55 248.87 57.03C247.33 55.52 245.96 53.84 244.42 52.35C244.14 51.91 243.66 52.24 243.42 52.52C242.42 53.52 241.42 54.52 240.34 55.46C241.97 57.25 243.59 59.07 245.27 60.84C244.843 61.4815 244.266 62.0099 243.59 62.38C241.44 59.91 239.03 57.7 236.96 55.15C239.76 52.41 242.75 49.83 245.55 47.06V47.06Z" fill="#222222" stroke="#222222" stroke-width="0.09375" stroke-miterlimit="10"/>
<path d="M142.05 44.6299C143.208 44.3719 144.395 44.2677 145.58 44.3199C149.573 44.0116 153.531 45.2544 156.63 47.7899C157.934 48.8954 159.117 50.1357 160.16 51.4899C161.961 54.06 163.001 57.0857 163.16 60.2199C163.273 61.9341 163.159 63.6557 162.82 65.3399C162.259 67.7248 161.201 69.9647 159.715 71.9134C158.23 73.8621 156.351 75.476 154.2 76.6499C150.705 78.465 146.709 79.0766 142.83 78.3899C139.932 77.8416 137.221 76.5604 134.958 74.6681C132.695 72.7759 130.954 70.3357 129.9 67.5799C128.908 64.7731 128.59 61.7724 128.97 58.8199C129.503 55.4264 131.03 52.267 133.358 49.7412C135.687 47.2155 138.711 45.4367 142.05 44.6299V44.6299Z" fill="#222222" stroke="#222222" stroke-width="0.09375" stroke-miterlimit="10"/>
<path d="M35.6904 50.9799C35.4404 49.9799 36.4504 49.3599 36.9504 48.6599C39.4104 50.4199 41.7404 52.3299 44.0604 54.2299C46.1604 55.9099 48.3704 57.5299 50.3604 59.3499C49.8584 59.9989 49.3174 60.6167 48.7404 61.1999C45.5704 58.7599 42.5504 56.1999 39.3604 53.7799L38.6804 53.4999C38.9904 56.1899 40.0804 58.7599 40.2204 61.4999C37.4004 61.5799 34.5404 61.4999 31.6904 61.5799C35.1604 64.2199 38.4004 67.1299 41.9304 69.6499C41.5826 70.443 41.0347 71.1322 40.3404 71.6499C36.9804 69.0799 33.6704 66.3899 30.3404 63.6499C29.3404 62.8099 28.1804 62.0799 27.2304 61.1599C27.1804 60.2899 28.1304 59.5899 28.8004 59.2299C31.6804 59.1099 34.5404 59.1699 37.4204 59.1699C36.9504 56.3999 36.1904 53.6799 35.6604 50.9099L35.6904 50.9799Z" fill="#222222" stroke="#222222" stroke-width="0.09375" stroke-miterlimit="10"/>
<path d="M179.05 50.3901C183.492 49.3686 188.157 50.1222 192.05 52.4901C196.92 55.6601 200.42 61.2801 200.14 67.2201C200.48 75.0601 194.38 82.3701 186.82 84.0201C184.029 84.6537 181.124 84.5844 178.366 83.8183C175.608 83.0522 173.083 81.6133 171.018 79.6308C168.953 77.6483 167.413 75.1842 166.536 72.4595C165.658 69.7349 165.471 66.835 165.99 64.0201C166.626 60.7329 168.196 57.6988 170.513 55.2814C172.829 52.8639 175.793 51.1657 179.05 50.3901V50.3901Z" fill="#222222" stroke="#222222" stroke-width="0.09375" stroke-miterlimit="10"/>
<path d="M245.66 64.6999C250.25 61.2799 255.01 58.12 259.58 54.7C260.102 55.2366 260.492 55.887 260.72 56.5999C259.49 62.1199 257.98 67.5999 256.81 73.0599C257.941 72.5244 259.002 71.8528 259.97 71.0599C261.73 69.7399 263.52 68.45 265.34 67.22C265.955 66.7088 266.626 66.2693 267.34 65.9099C267.82 66.0999 268.1 66.6299 268.43 67.0299C268.69 67.2799 268.8 67.7799 268.43 68.0299C263.97 71.2499 259.43 74.3799 255.01 77.6299C254.503 77.1552 254.08 76.5971 253.76 75.9799C253.808 75.0267 253.986 74.0846 254.29 73.18C255.18 69.74 255.94 66.2899 256.78 62.8499C257.103 61.7385 257.347 60.6057 257.51 59.4599C256.325 60.0802 255.2 60.8101 254.15 61.6399C252.15 63.0999 250.15 64.4699 248.15 65.9599C247.75 66.2099 247.28 66.6 246.8 66.32C246.382 65.8405 246.008 65.3251 245.68 64.7799L245.66 64.6999Z" fill="#222222" stroke="#222222" stroke-width="0.09375" stroke-miterlimit="10"/>
<path d="M32.0498 61.6501C33.9798 61.4801 35.9198 61.5601 37.8198 61.5601C38.612 61.5216 39.4052 61.6094 40.1698 61.8201C37.5698 61.9301 34.9598 61.9801 32.3598 62.0101C32.2652 61.8828 32.1616 61.7625 32.0498 61.6501V61.6501Z" fill="#CBE7D1" stroke="#CBE7D1" stroke-width="0.09375" stroke-miterlimit="10"/>
<path d="M22.1104 68.79C22.3969 68.0339 22.8477 67.3507 23.4304 66.79C28.3004 69.6 33.2004 72.29 38.0504 75.14C37.7104 75.84 37.4904 76.74 36.7904 77.14C31.2504 78.29 25.6504 79.24 20.1304 80.56C23.9404 82.63 27.6904 84.87 31.5004 86.91C31.1378 87.6525 30.7165 88.3648 30.2404 89.04C25.2404 86.21 20.3604 83.39 15.4004 80.59C15.7104 79.86 15.9904 78.85 16.8604 78.65C21.5304 77.76 26.1504 76.83 30.8004 75.88C31.6801 75.7654 32.5368 75.5158 33.3404 75.14C29.6104 72.98 25.7804 71 22.1104 68.76V68.79Z" fill="#222222" stroke="#222222" stroke-width="0.09375" stroke-miterlimit="10"/>
<path d="M269.35 72.7899C270.02 72.4799 271.11 71.4499 271.64 72.4499C273.8 76.4499 275.76 80.4499 277.91 84.3499C277.303 84.8634 276.572 85.2083 275.79 85.3499C275.03 83.6699 274.02 82.0999 273.35 80.3499C272.301 80.5971 271.305 81.0307 270.41 81.6299C267.41 83.2899 264.34 84.7099 261.41 86.3899C260.93 86.6357 260.432 86.843 259.92 87.0099C259.56 86.3099 258.8 85.5299 259.11 84.7099C261.57 83.2899 264.11 82.1099 266.64 80.7099C268.35 79.8699 269.97 78.7999 271.76 78.1299C271.717 77.3103 271.436 76.5212 270.95 75.8599C270.39 74.8599 269.86 73.7599 269.36 72.6999L269.35 72.7899Z" fill="#222222" stroke="#222222" stroke-width="0.09375" stroke-miterlimit="10"/>
<path d="M121.86 77.33C123.407 77.0832 124.976 77.0061 126.54 77.1C129.12 77.2046 131.636 77.9357 133.87 79.23C135.864 80.4164 137.62 81.9626 139.05 83.79C141.538 87.1675 142.756 91.3136 142.49 95.5C142.195 99.777 140.294 103.785 137.17 106.72C135.214 108.587 132.846 109.968 130.257 110.75C127.669 111.533 124.932 111.695 122.27 111.224C119.607 110.753 117.092 109.661 114.929 108.038C112.767 106.415 111.016 104.305 109.82 101.88C107.984 98.0697 107.569 93.7291 108.65 89.64C109.489 86.5676 111.166 83.7891 113.493 81.6152C115.821 79.4413 118.707 77.9576 121.83 77.33H121.86Z" fill="#222222" stroke="#222222" stroke-width="0.09375" stroke-miterlimit="10"/>
<path d="M146.53 88.6599C147.254 86.1648 148.703 83.9411 150.693 82.2711C152.684 80.601 155.125 79.56 157.708 79.2801C160.291 79.0003 162.899 79.4942 165.201 80.6992C167.503 81.9042 169.394 83.7659 170.636 86.0481C171.878 88.3302 172.414 90.9298 172.175 93.517C171.937 96.1041 170.935 98.562 169.297 100.579C167.659 102.596 165.459 104.08 162.976 104.844C160.492 105.608 157.838 105.617 155.35 104.87C154.579 105.424 153.904 106.099 153.35 106.87C150.515 110.338 148.085 114.119 146.11 118.14C141.11 127.69 138.11 138.14 136 148.63C134.286 157.227 133.236 165.942 132.86 174.7C132.75 180.27 132.86 185.81 132.86 191.38C129.45 191.38 126.06 191.38 122.67 191.38C122.72 178.049 123.514 164.732 125.05 151.49C126.711 139.079 130.683 127.089 136.76 116.14C140.01 110.184 143.763 104.516 147.98 99.1999C147.018 97.6428 146.391 95.9016 146.142 94.0882C145.892 92.2748 146.024 90.4292 146.53 88.6699V88.6599Z" fill="#222222" stroke="#222222" stroke-width="0.09375" stroke-miterlimit="10"/>
<path d="M191.05 85.56C195.083 84.8219 199.247 85.5301 202.81 87.56C206.201 89.5419 208.824 92.6113 210.253 96.2706C211.681 99.9299 211.832 103.964 210.68 107.72C209.943 110.08 208.708 112.254 207.058 114.094C205.407 115.935 203.381 117.399 201.115 118.387C198.849 119.375 196.397 119.865 193.925 119.822C191.454 119.779 189.02 119.206 186.79 118.14C184.763 117.203 182.942 115.874 181.432 114.23C179.921 112.586 178.751 110.659 177.99 108.56C177.086 105.91 176.772 103.094 177.07 100.31C177.613 95.9408 179.806 91.9446 183.2 89.14C185.477 87.3102 188.175 86.0795 191.05 85.56V85.56Z" fill="#222222" stroke="#222222" stroke-width="0.09375" stroke-miterlimit="10"/>
<path fill-rule="evenodd" clip-rule="evenodd" d="M21.5086 89.5997C19.4843 88.5726 17.1412 88.3685 14.9699 89.03V89.06C9.87985 90.6 7.14985 96.95 9.14985 101.8C9.85593 103.386 11.0057 104.734 12.4607 105.682C13.9156 106.629 15.6136 107.136 17.3498 107.14C19.02 107.121 20.6495 106.623 22.0447 105.704C23.4398 104.786 24.5419 103.486 25.2199 101.96C26.3128 99.6415 26.5294 97.0058 25.8299 94.54C25.0814 92.397 23.5329 90.6267 21.5086 89.5997ZM20.85 92.3C19.6007 91.4641 18.0909 91.1089 16.6 91.3V91.38C15.6582 91.5429 14.7558 91.8822 13.94 92.38C12.4377 93.4095 11.4034 94.9911 11.0624 96.7801C10.7215 98.569 11.1016 100.42 12.12 101.93C13.1832 103.259 14.6941 104.155 16.37 104.45C17.5508 104.704 18.7827 104.556 19.87 104.03C20.8165 103.599 21.6534 102.959 22.3183 102.159C22.9832 101.359 23.4589 100.419 23.71 99.41C24.0848 98.0754 24.0076 96.6543 23.4902 95.3682C22.9729 94.0821 22.0446 93.0033 20.85 92.3Z" fill="#222222"/>
<path d="M14.9699 89.03L14.9562 88.9851L14.923 88.9953V89.03H14.9699ZM21.5086 89.5997L21.5298 89.5579L21.5086 89.5997ZM14.9699 89.06L14.9834 89.1049L15.0167 89.0948V89.06H14.9699ZM9.14985 101.8L9.1065 101.818L9.10703 101.819L9.14985 101.8ZM12.4607 105.682L12.4351 105.721L12.4351 105.721L12.4607 105.682ZM17.3498 107.14L17.3497 107.187L17.3504 107.187L17.3498 107.14ZM22.0447 105.704L22.0704 105.744L22.0704 105.744L22.0447 105.704ZM25.2199 101.96L25.1774 101.94L25.177 101.941L25.2199 101.96ZM25.8299 94.54L25.875 94.5272L25.8741 94.5245L25.8299 94.54ZM16.6 91.3L16.594 91.2535L16.5531 91.2588V91.3H16.6ZM20.85 92.3L20.8239 92.3391L20.8262 92.3404L20.85 92.3ZM16.6 91.38L16.608 91.4262L16.6468 91.4195V91.38H16.6ZM13.94 92.38L13.9155 92.34L13.9135 92.3414L13.94 92.38ZM11.0624 96.7801L11.1085 96.7888L11.1085 96.7888L11.0624 96.7801ZM12.12 101.93L12.081 101.956L12.0834 101.959L12.12 101.93ZM16.37 104.45L16.3798 104.404L16.3781 104.404L16.37 104.45ZM19.87 104.03L19.8505 103.987L19.8496 103.988L19.87 104.03ZM23.71 99.41L23.6648 99.3973L23.6645 99.3987L23.71 99.41ZM23.4902 95.3682L23.4467 95.3857L23.4467 95.3857L23.4902 95.3682ZM14.9835 89.0748C17.1433 88.4168 19.4739 88.6199 21.4874 89.6415L21.5298 89.5579C19.4948 88.5253 17.1392 88.3201 14.9562 88.9851L14.9835 89.0748ZM15.0167 89.06V89.03H14.923V89.06H15.0167ZM9.19319 101.782C8.19876 99.3706 8.37963 96.5841 9.44388 94.2079C10.5081 91.8318 12.4536 89.8703 14.9834 89.1049L14.9563 89.0151C12.3961 89.7897 10.4316 91.7732 9.35832 94.1696C8.28507 96.5659 8.10094 99.3793 9.10652 101.818L9.19319 101.782ZM12.4863 105.643C11.0389 104.7 9.89507 103.359 9.19268 101.781L9.10703 101.819C9.81678 103.414 10.9726 104.769 12.4351 105.721L12.4863 105.643ZM17.35 107.093C15.6228 107.089 13.9336 106.585 12.4863 105.643L12.4351 105.721C13.8976 106.674 15.6044 107.183 17.3497 107.187L17.35 107.093ZM22.0189 105.665C20.6312 106.579 19.0105 107.074 17.3493 107.093L17.3504 107.187C19.0295 107.168 20.6678 106.667 22.0704 105.744L22.0189 105.665ZM25.177 101.941C24.5027 103.459 23.4066 104.752 22.0189 105.665L22.0704 105.744C23.4731 104.82 24.5811 103.514 25.2627 101.979L25.177 101.941ZM25.7848 94.5528C26.4813 97.0077 26.2655 99.6318 25.1775 101.94L25.2623 101.98C26.36 99.6513 26.5776 97.0039 25.8749 94.5272L25.7848 94.5528ZM21.4874 89.6415C23.5009 90.663 25.0411 92.4239 25.7856 94.5554L25.8741 94.5245C25.1216 92.3702 23.5649 90.5904 21.5298 89.5579L21.4874 89.6415ZM16.6059 91.3465C18.0857 91.1568 19.584 91.5094 20.8239 92.339L20.876 92.2611C19.6173 91.4188 18.0962 91.0609 16.594 91.2535L16.6059 91.3465ZM16.6468 91.38V91.3H16.5531V91.38H16.6468ZM13.9644 92.42C14.7751 91.9253 15.6721 91.5881 16.608 91.4262L16.592 91.3338C15.6444 91.4977 14.7364 91.8391 13.9155 92.34L13.9644 92.42ZM11.1085 96.7888C11.4471 95.012 12.4744 93.4412 13.9665 92.4187L13.9135 92.3414C12.401 93.3778 11.3596 94.9702 11.0164 96.7713L11.1085 96.7888ZM12.1588 101.904C11.1474 100.404 10.7699 98.5656 11.1085 96.7888L11.0164 96.7713C10.6732 98.5724 11.0559 100.436 12.0811 101.956L12.1588 101.904ZM16.3781 104.404C14.7134 104.11 13.2127 103.221 12.1566 101.901L12.0834 101.959C13.1537 103.297 14.6747 104.199 16.3618 104.496L16.3781 104.404ZM19.8496 103.988C18.7717 104.509 17.5505 104.656 16.3798 104.404L16.3601 104.496C17.5512 104.752 18.7937 104.603 19.8904 104.072L19.8496 103.988ZM22.2823 102.129C21.6219 102.924 20.7906 103.559 19.8505 103.987L19.8894 104.073C20.8424 103.638 21.6849 102.994 22.3544 102.189L22.2823 102.129ZM23.6645 99.3987C23.4151 100.401 22.9426 101.335 22.2823 102.129L22.3544 102.189C23.0238 101.384 23.5027 100.438 23.7555 99.4213L23.6645 99.3987ZM23.4467 95.3857C23.9602 96.6622 24.0369 98.0727 23.6648 99.3973L23.7551 99.4227C24.1328 98.0781 24.0549 96.6464 23.5337 95.3507L23.4467 95.3857ZM20.8262 92.3404C22.0119 93.0385 22.9333 94.1092 23.4467 95.3857L23.5337 95.3507C23.0125 94.055 22.0773 92.9682 20.8737 92.2596L20.8262 92.3404Z" fill="#222222"/>
<path d="M275.48 97.1399C275.825 96.6036 276.282 96.1475 276.818 95.8025C277.355 95.4575 277.959 95.2315 278.59 95.1399C279.505 95.0351 280.431 95.2056 281.248 95.6296C282.066 96.0535 282.739 96.7117 283.18 97.5199C283.924 98.9596 284.197 100.597 283.96 102.2C283.65 103.29 282.28 103.26 281.39 103.57C281.47 102.22 282.09 100.82 281.53 99.4799C281.393 98.9272 281.092 98.4285 280.668 98.0487C280.244 97.6688 279.715 97.4254 279.15 97.3499C277.72 97.5999 277.21 99.1199 276.93 100.35C276.49 102.42 276.23 104.8 274.55 106.35C274.066 106.778 273.496 107.098 272.88 107.291C272.263 107.484 271.612 107.545 270.97 107.47C270.168 107.443 269.39 107.185 268.731 106.727C268.071 106.27 267.557 105.632 267.25 104.89C266.538 103.172 266.36 101.28 266.74 99.4599C267.47 98.6799 268.65 98.5999 269.65 98.3199C269.096 99.4486 268.819 100.693 268.84 101.95C268.798 102.613 268.954 103.273 269.289 103.847C269.624 104.42 270.122 104.881 270.72 105.17C272.17 105.54 273.27 104.17 273.72 102.99C274.4 101.09 274.4 98.8999 275.49 97.1399H275.48Z" fill="#222222" stroke="#222222" stroke-width="0.09375" stroke-miterlimit="10"/>
<path d="M282.87 109.05C283.87 107.98 284.55 106.61 285.75 105.77C286.071 106.67 286.25 107.615 286.28 108.57C286.018 109.03 285.71 109.463 285.36 109.86C284.1 111.29 282.87 112.71 281.72 114.23C283.9 115.23 286.15 116.23 288.27 117.39C288.86 118.14 288.78 119.26 289.06 120.16C287.24 119.77 285.7 118.7 284.06 117.98C282.656 117.251 281.206 116.613 279.72 116.07C276.78 116.58 273.92 117.58 270.95 117.84C270.84 117.08 270.65 116.3 270.51 115.54C273.39 114.7 276.36 114.31 279.21 113.44C280.64 112.15 281.62 110.44 282.91 109.05H282.87Z" fill="#222222" stroke="#222222" stroke-width="0.09375" stroke-miterlimit="10"/>
<path d="M162.77 108.82C166.977 108.042 171.323 108.859 174.961 111.111C178.6 113.362 181.269 116.888 182.45 121C182.996 123.09 183.186 125.257 183.01 127.41C182.855 129.364 182.34 131.273 181.49 133.04C180.116 136.051 177.893 138.596 175.093 140.361C172.294 142.127 169.04 143.037 165.73 142.98C163.162 142.999 160.624 142.425 158.313 141.303C156.003 140.181 153.983 138.541 152.41 136.51C150.46 134.149 149.216 131.286 148.82 128.25C148.682 126.586 148.682 124.914 148.82 123.25C149.326 119.545 151.091 116.127 153.82 113.57C156.229 111.064 159.388 109.411 162.82 108.86L162.77 108.82Z" fill="#222222" stroke="#222222" stroke-width="0.09375" stroke-miterlimit="10"/>
<path fill-rule="evenodd" clip-rule="evenodd" d="M19.0548 110.642C16.967 111.342 14.8739 112.043 13.0497 113.36C12.9126 112.673 12.6197 112.026 12.1935 111.47C11.7673 110.914 11.2191 110.463 10.5913 110.152C9.96342 109.841 9.27256 109.678 8.57189 109.676C7.87121 109.674 7.1794 109.833 6.54969 110.14C4.88969 110.8 4.21969 112.6 3.71969 114.14C3.30831 115.576 3.04362 117.05 2.92969 118.54C4.72574 118.856 6.49809 119.275 8.27254 119.695C9.7584 120.046 11.2457 120.398 12.7497 120.69C13.5521 120.838 14.3471 121.051 15.1424 121.263C16.5971 121.651 18.0533 122.04 19.5597 122.04C19.7433 121.266 19.8472 120.475 19.8697 119.68C17.4897 119.26 15.1697 118.7 12.8697 118.14C12.8581 117.669 12.9476 117.202 13.1322 116.769C13.3168 116.336 13.5922 115.947 13.9397 115.63C15.2611 114.544 16.8665 114.011 18.4725 113.478C19.5281 113.128 20.584 112.778 21.5597 112.27C21.9743 111.392 22.2121 110.44 22.2597 109.47C21.2183 109.917 20.1373 110.279 19.0548 110.642ZM8.65791 112.239C8.22993 112.208 7.80091 112.284 7.40969 112.46L7.42969 112.5C6.06598 113.049 5.79098 114.554 5.55105 115.867C5.51123 116.085 5.47238 116.298 5.42969 116.5C6.17958 116.592 6.91017 116.783 7.63983 116.973C8.65188 117.237 9.66215 117.5 10.7197 117.5C10.742 117.103 10.8101 116.704 10.8787 116.302C10.9638 115.803 11.0497 115.3 11.0497 114.79C11.046 114.361 10.9353 113.94 10.7277 113.564C10.5201 113.188 10.2221 112.871 9.86071 112.639C9.49929 112.408 9.08588 112.27 8.65791 112.239Z" fill="#222222"/>
<path d="M13.0497 113.36L13.0037 113.369L13.018 113.441L13.0771 113.398L13.0497 113.36ZM19.0548 110.642L19.0399 110.598L19.0399 110.598L19.0548 110.642ZM10.5913 110.152L10.5705 110.194L10.5705 110.194L10.5913 110.152ZM6.54969 110.14L6.56706 110.184L6.57024 110.182L6.54969 110.14ZM3.71969 114.14L3.67508 114.125L3.67462 114.127L3.71969 114.14ZM2.92969 118.54L2.88295 118.536L2.87971 118.579L2.92157 118.586L2.92969 118.54ZM8.27254 119.695L8.26174 119.74L8.26174 119.74L8.27254 119.695ZM12.7497 120.69L12.7408 120.736L12.7412 120.736L12.7497 120.69ZM15.1424 121.263L15.1545 121.218L15.1545 121.218L15.1424 121.263ZM19.5597 122.04V122.087H19.5967L19.6053 122.051L19.5597 122.04ZM19.8697 119.68L19.9165 119.681L19.9177 119.641L19.8778 119.634L19.8697 119.68ZM12.8697 118.14L12.8228 118.141L12.8237 118.177L12.8586 118.186L12.8697 118.14ZM13.9397 115.63L13.9099 115.594L13.9081 115.595L13.9397 115.63ZM18.4725 113.478L18.4873 113.523L18.4873 113.523L18.4725 113.478ZM21.5597 112.27L21.5813 112.312L21.5953 112.304L21.6021 112.29L21.5597 112.27ZM22.2597 109.47L22.3065 109.472L22.3102 109.397L22.2412 109.427L22.2597 109.47ZM7.40969 112.46L7.39043 112.417L7.34594 112.437L7.36776 112.481L7.40969 112.46ZM7.42969 112.5L7.44719 112.544L7.49435 112.525L7.47161 112.479L7.42969 112.5ZM5.55105 115.867L5.59716 115.876L5.59716 115.876L5.55105 115.867ZM5.42969 116.5L5.38382 116.49L5.37327 116.54L5.42397 116.547L5.42969 116.5ZM7.63983 116.973L7.62801 117.018L7.63983 116.973ZM10.7197 117.5V117.547H10.764L10.7665 117.503L10.7197 117.5ZM10.8787 116.302L10.9249 116.31L10.9249 116.31L10.8787 116.302ZM11.0497 114.79H11.0966L11.0966 114.79L11.0497 114.79ZM10.7277 113.564L10.7688 113.541L10.7688 113.541L10.7277 113.564ZM9.86071 112.639L9.83544 112.679L9.83544 112.679L9.86071 112.639ZM13.0771 113.398C14.8946 112.086 16.9808 111.386 19.0697 110.687L19.0399 110.598C16.9532 111.297 14.8532 112 13.0222 113.322L13.0771 113.398ZM12.1563 111.499C12.5781 112.049 12.868 112.689 13.0037 113.369L13.0957 113.351C12.9572 112.657 12.6612 112.003 12.2307 111.442L12.1563 111.499ZM10.5705 110.194C11.1919 110.502 11.7344 110.948 12.1563 111.499L12.2307 111.442C11.8001 110.88 11.2464 110.424 10.6121 110.11L10.5705 110.194ZM8.57175 109.723C9.26525 109.725 9.94903 109.886 10.5705 110.194L10.6121 110.11C9.9778 109.796 9.27987 109.631 8.57203 109.629L8.57175 109.723ZM6.57024 110.182C7.19351 109.878 7.87824 109.721 8.57175 109.723L8.57203 109.629C7.86418 109.627 7.16528 109.787 6.52913 110.098L6.57024 110.182ZM3.76427 114.154C4.01424 113.385 4.30537 112.554 4.73982 111.834C5.1739 111.115 5.74941 110.509 6.56701 110.184L6.53237 110.096C5.68997 110.431 5.10047 111.055 4.65955 111.786C4.219 112.516 3.92513 113.355 3.6751 114.125L3.76427 114.154ZM2.97643 118.544C3.09012 117.057 3.35425 115.586 3.76475 114.153L3.67462 114.127C3.26238 115.566 2.99713 117.044 2.88295 118.536L2.97643 118.544ZM8.28333 119.649C6.5091 119.229 4.73542 118.81 2.9378 118.494L2.92157 118.586C4.71605 118.902 6.48707 119.321 8.26174 119.74L8.28333 119.649ZM12.7586 120.644C11.2558 120.352 9.76935 120.001 8.28333 119.649L8.26174 119.74C9.74746 120.092 11.2357 120.444 12.7408 120.736L12.7586 120.644ZM15.1545 121.218C14.3594 121.005 13.5627 120.793 12.7582 120.644L12.7412 120.736C13.5415 120.884 14.3347 121.096 15.1303 121.308L15.1545 121.218ZM19.5597 121.993C18.0605 121.993 16.6103 121.606 15.1545 121.218L15.1303 121.308C16.584 121.696 18.0462 122.087 19.5597 122.087V121.993ZM19.8228 119.679C19.8004 120.471 19.697 121.258 19.5141 122.029L19.6053 122.051C19.7897 121.274 19.894 120.48 19.9165 119.681L19.8228 119.679ZM12.8586 118.186C15.1585 118.745 17.4798 119.306 19.8615 119.726L19.8778 119.634C17.4995 119.214 15.1809 118.654 12.8808 118.094L12.8586 118.186ZM13.0891 116.75C12.9019 117.19 12.8111 117.664 12.8228 118.141L12.9165 118.139C12.9051 117.675 12.9934 117.214 13.1753 116.787L13.0891 116.75ZM13.9081 115.595C13.5556 115.917 13.2763 116.311 13.0891 116.75L13.1753 116.787C13.3573 116.36 13.6287 115.978 13.9713 115.665L13.9081 115.595ZM18.4577 113.434C16.8532 113.966 15.2392 114.501 13.9099 115.594L13.9695 115.666C15.283 114.587 16.8798 114.056 18.4873 113.523L18.4577 113.434ZM21.5381 112.228C20.5663 112.734 19.514 113.083 18.4577 113.434L18.4873 113.523C19.5423 113.173 20.6018 112.821 21.5813 112.312L21.5381 112.228ZM22.2129 109.468C22.1656 110.432 21.9293 111.377 21.5173 112.25L21.6021 112.29C22.0193 111.406 22.2586 110.449 22.3065 109.472L22.2129 109.468ZM19.0697 110.687C20.1518 110.324 21.2347 109.961 22.2782 109.513L22.2412 109.427C21.2019 109.873 20.1227 110.235 19.0399 110.598L19.0697 110.687ZM7.42895 112.503C7.81306 112.33 8.23429 112.255 8.65449 112.286L8.66132 112.192C8.22557 112.16 7.78876 112.238 7.39043 112.417L7.42895 112.503ZM7.47161 112.479L7.45161 112.439L7.36776 112.481L7.38776 112.521L7.47161 112.479ZM5.59716 115.876C5.71733 115.218 5.84526 114.519 6.11183 113.916C6.37769 113.315 6.77987 112.812 7.44719 112.544L7.41218 112.457C6.7158 112.737 6.29863 113.262 6.02608 113.878C5.75423 114.493 5.62469 115.203 5.50494 115.859L5.59716 115.876ZM5.47555 116.51C5.5184 116.307 5.55737 116.094 5.59716 115.876L5.50494 115.859C5.4651 116.077 5.42636 116.289 5.38382 116.49L5.47555 116.51ZM7.65166 116.927C6.9225 116.737 6.18891 116.546 5.43541 116.454L5.42397 116.547C6.17026 116.638 6.89784 116.828 7.62801 117.018L7.65166 116.927ZM10.7197 117.453C9.66914 117.453 8.66466 117.192 7.65166 116.927L7.62801 117.018C8.6391 117.282 9.65515 117.547 10.7197 117.547V117.453ZM10.8325 116.294C10.764 116.696 10.6954 117.097 10.6729 117.497L10.7665 117.503C10.7886 117.109 10.8562 116.712 10.9249 116.31L10.8325 116.294ZM11.0028 114.79C11.0028 115.295 10.9177 115.794 10.8325 116.294L10.9249 116.31C11.0099 115.812 11.0966 115.304 11.0966 114.79H11.0028ZM10.6867 113.587C10.8906 113.955 10.9992 114.369 11.0028 114.79L11.0966 114.79C11.0928 114.353 10.9801 113.924 10.7688 113.541L10.6867 113.587ZM9.83544 112.679C10.1903 112.906 10.4829 113.218 10.6867 113.587L10.7688 113.541C10.5574 113.159 10.254 112.835 9.88598 112.6L9.83544 112.679ZM8.65449 112.286C9.07469 112.317 9.48059 112.452 9.83544 112.679L9.88598 112.6C9.518 112.364 9.09708 112.224 8.66132 112.192L8.65449 112.286Z" fill="#222222"/>
<path d="M55.1699 123.14C58.0024 122.33 60.9 121.768 63.8299 121.46C67.1899 121.29 70.5399 121.32 73.8999 121.4C85.1681 122.48 95.8175 127.053 104.36 134.48C109.912 139.163 114.718 144.667 118.61 150.8C119.285 151.66 119.868 152.589 120.35 153.57C116.499 154.462 112.571 154.977 108.62 155.11C105.82 155.48 103.02 155 100.19 154.97C99.1972 154.92 98.2122 154.769 97.2499 154.52C85.8948 152.996 75.3439 147.818 67.1899 139.77C63.2094 135.798 59.7728 131.315 56.9699 126.44C56.2751 125.394 55.6728 124.29 55.1699 123.14Z" fill="#222222" stroke="#222222" stroke-width="0.09375" stroke-miterlimit="10"/>
<path d="M281.05 126.85C281.81 124.98 283.35 123.04 285.56 123.07C287.85 122.88 289.84 124.95 290.18 127.13C290.46 128.682 290.203 130.284 289.45 131.67C288.632 131.787 287.805 131.833 286.98 131.81C287.43 130.66 288.11 129.51 287.98 128.25C288.037 127.666 287.912 127.078 287.622 126.568C287.332 126.057 286.891 125.649 286.36 125.4C285.874 125.309 285.372 125.38 284.931 125.602C284.491 125.824 284.135 126.186 283.92 126.63C282.92 128.22 282.58 130.16 281.43 131.7C280.962 132.393 280.32 132.952 279.569 133.32C278.818 133.689 277.984 133.854 277.15 133.8C276.08 133.774 275.055 133.363 274.264 132.643C273.472 131.923 272.967 130.942 272.84 129.88C272.5 128.08 272.827 126.217 273.76 124.64C274.705 124.437 275.674 124.363 276.64 124.42C276.086 125.005 275.655 125.695 275.372 126.449C275.089 127.202 274.959 128.005 274.99 128.81C274.961 129.171 275.012 129.533 275.14 129.871C275.268 130.21 275.469 130.516 275.729 130.767C275.989 131.019 276.301 131.209 276.644 131.326C276.986 131.442 277.35 131.481 277.71 131.44C279.71 130.74 280.2 128.53 281.04 126.85H281.05Z" fill="#222222" stroke="#222222" stroke-width="0.09375" stroke-miterlimit="10"/>
<path d="M1.90004 123.55C3.19387 123.523 4.48714 123.626 5.76004 123.86C10.16 124.44 14.52 125.2 18.92 125.7C18.9246 126.546 18.8033 127.389 18.56 128.2C12.96 127.52 7.38004 126.54 1.79004 125.84C1.79004 125.09 1.84004 124.3 1.90004 123.55V123.55Z" fill="#222222" stroke="#222222" stroke-width="0.09375" stroke-miterlimit="10"/>
<path d="M1.05004 128.81C2.03268 129.088 2.9742 129.495 3.85004 130.02C7.18004 131.67 10.51 133.35 13.85 135.02C15.1475 135.565 16.4099 136.189 17.63 136.89C17.91 137.03 17.77 137.54 17.49 137.62C16.8422 137.92 16.1739 138.174 15.49 138.38C10.31 140.06 5.25004 142.18 0.0400391 143.78C0.0400391 142.97 0.100039 142.13 0.120039 141.32C4.24004 139.92 8.33004 138.46 12.36 136.95C8.61004 134.95 4.66004 133.2 0.940039 131.1C0.940039 130.31 0.940039 129.56 1.08004 128.8L1.05004 128.81Z" fill="#222222" stroke="#222222" stroke-width="0.09375" stroke-miterlimit="10"/>
<path d="M288.78 135.14C289.45 135.14 290.149 135.08 290.849 135.14C290.974 135.538 291.031 135.953 291.02 136.37C291.02 138.61 291.02 140.85 291.02 143.09C291.226 145.194 291.263 147.31 291.129 149.42H289.05C289.16 147.42 288.769 145.55 288.849 143.59C286.733 143.457 284.608 143.503 282.5 143.73C279.67 143.73 276.81 143.82 273.99 143.79C273.916 142.94 273.943 142.084 274.069 141.24C278.969 141.41 283.899 140.96 288.819 140.99C288.819 139.06 288.739 137.1 288.819 135.14H288.78Z" fill="#222222" stroke="#222222" stroke-width="0.09375" stroke-miterlimit="10"/>
<path d="M6.15004 147.79C9.85004 147.62 13.52 147.07 17.21 147.12C17.21 148.02 17.6 149.12 16.76 149.81C13.24 153.25 9.76004 156.81 6.29004 160.31C5.96762 160.62 5.69446 160.977 5.48004 161.37C9.76004 161.23 14.02 160.53 18.28 160.59C18.28 161.32 18.28 162.04 18.36 162.77C13.66 163.3 8.92004 163.39 4.19004 163.92C3.19004 163.98 2.19004 163.98 1.25004 163.98C1.31004 163.16 0.920039 162.16 1.65004 161.54C5.34004 157.96 8.84004 154.18 12.51 150.54C12.7349 150.274 12.9325 149.986 13.1 149.68C8.76004 149.93 4.45004 150.4 0.100039 150.54C0.100039 149.79 0.0400391 149.01 0.0400391 148.22C2.04004 147.91 4.13004 148.08 6.14004 147.77L6.15004 147.79Z" fill="#222222" stroke="#222222" stroke-width="0.09375" stroke-miterlimit="10"/>
<path d="M273.94 151.88C279.57 152.1 285.14 153 290.76 153.08C290.787 156.368 290.573 159.653 290.12 162.91C289.39 162.86 288.69 162.83 287.96 162.77C288.13 160.36 288.33 157.96 288.53 155.55C286.82 155.44 285.14 155.21 283.43 155.18C283.12 157.45 283.12 159.75 282.9 162.02C282.14 162.02 281.39 162.02 280.66 161.96C280.66 159.61 281.11 157.26 280.99 154.9C279.301 154.706 277.601 154.623 275.9 154.65C275.79 157.09 275.53 159.5 275.37 161.9C274.595 162.004 273.805 161.918 273.07 161.65C273.46 158.4 273.57 155.13 273.94 151.88Z" fill="#222222" stroke="#222222" stroke-width="0.09375" stroke-miterlimit="10"/>
<path d="M179.45 156.56C183.983 155.675 188.564 155.058 193.17 154.71C197.93 154.6 202.69 154.57 207.45 154.71C215.322 155.226 223.118 156.567 230.71 158.71C230.24 159.63 229.26 160.11 228.5 160.78C223.45 164.964 217.929 168.545 212.05 171.45C203.433 175.607 194.224 178.404 184.75 179.74C178.911 180.485 173.022 180.756 167.14 180.55C160.326 180.518 153.534 179.788 146.87 178.37C145.269 177.935 143.642 177.601 142 177.37L142.45 177.2C141.336 177.186 140.253 176.837 139.34 176.2C141.44 174.55 143.46 172.73 145.67 171.2C148.05 169.63 150.34 167.92 152.86 166.58C161.12 161.804 170.105 158.41 179.46 156.53L179.45 156.56Z" fill="#222222" stroke="#222222" stroke-width="0.09375" stroke-miterlimit="10"/>
<path d="M272.43 167.08C272.435 166.267 272.584 165.461 272.87 164.7C276.68 165.26 280.43 166.27 284.21 167.03C285.95 167.36 287.69 167.73 289.39 168.09C289.404 168.701 289.347 169.312 289.22 169.91C289.08 170.53 288.47 170.72 287.99 171C285.75 172.15 283.48 173.27 281.27 174.47C282.59 176.71 284.55 178.53 286.09 180.61C286.96 181.47 286.54 182.84 286.15 183.83C280.69 182.45 275.15 181.5 269.65 180.21C269.607 179.334 269.783 178.462 270.16 177.67C272.99 178.42 275.84 178.93 278.7 179.57C280.029 179.927 281.388 180.161 282.76 180.27C281.3 178.39 279.76 176.63 278.22 174.81C277.914 174.451 277.754 173.991 277.77 173.52C279.4 172.79 280.97 171.95 282.56 171.17C283.403 170.85 284.167 170.352 284.8 169.71C280.686 168.823 276.563 167.947 272.43 167.08V167.08Z" fill="#222222" stroke="#222222" stroke-width="0.09375" stroke-miterlimit="10"/>
<path d="M16.8496 165.93C17.5196 165.79 18.1596 165.68 18.8496 165.57C19.2596 167.22 19.4896 168.96 19.8496 170.64C20.2647 172.197 20.526 173.792 20.6296 175.4C16.5196 176.15 12.3996 177.02 8.3196 177.81C6.90778 178.192 5.46587 178.453 4.0096 178.59C3.4996 176.1 3.0096 173.59 2.4896 171.09C2.34621 170.406 2.28245 169.708 2.2996 169.01C2.95213 168.982 3.5995 168.882 4.2296 168.71C4.9596 171 5.1296 173.44 5.7696 175.71C7.3896 175.52 8.9596 175.04 10.5596 174.82C10.3584 172.517 9.94324 170.237 9.3196 168.01C10.0364 167.697 10.8076 167.527 11.5896 167.51C12.1796 169.75 12.3796 172.07 13.0796 174.31C14.7721 174.027 16.4428 173.626 18.0796 173.11C17.4369 170.753 17.0052 168.344 16.7896 165.91L16.8496 165.93Z" fill="#222222" stroke="#222222" stroke-width="0.09375" stroke-miterlimit="10"/>
<path d="M54.4503 204.23C55.9051 202.028 58.0351 200.358 60.5203 199.47C61.8774 199.141 63.2782 199.029 64.6703 199.14C66.6516 199.236 68.5717 199.857 70.234 200.94C71.8963 202.022 73.241 203.527 74.1303 205.3C74.5415 205.961 74.7979 206.706 74.8803 207.48C72.7064 208.675 70.4736 209.76 68.1903 210.73C67.7306 209.196 66.7648 207.864 65.4503 206.95C64.8489 206.56 64.1293 206.395 63.418 206.482C62.7067 206.57 62.049 206.906 61.5603 207.43C60.6103 208.27 60.7703 209.61 60.9403 210.73C61.5903 212.07 63.0703 212.73 64.3003 213.42C67.8603 215.15 72.0303 216.47 74.3003 219.97C76.0103 222.35 75.9503 225.43 75.7503 228.2C75.3948 230.93 74.1219 233.458 72.1403 235.37C71.0316 236.504 69.6961 237.391 68.2211 237.974C66.746 238.556 65.1646 238.821 63.5803 238.75C62.0647 238.802 60.5538 238.553 59.1357 238.015C57.7176 237.478 56.4206 236.664 55.3203 235.62C53.4886 233.803 52.1173 231.574 51.3203 229.12C53.0003 228.23 54.7903 227.58 56.5003 226.71C57.1413 226.353 57.8434 226.119 58.5703 226.02C59.0494 227.86 60.1214 229.491 61.6203 230.66C62.5548 231.167 63.6267 231.363 64.6803 231.22C65.3659 231.194 66.0235 230.941 66.5501 230.502C67.0767 230.062 67.4425 229.46 67.5903 228.79C67.7145 228.059 67.6511 227.309 67.4063 226.609C67.1614 225.91 66.7431 225.284 66.1903 224.79C63.6703 222.79 60.3903 222.11 57.7003 220.32C55.6066 218.975 54.0744 216.913 53.3903 214.52C52.4403 211.16 52.4703 207.27 54.4603 204.27L54.4503 204.23Z" fill="#222222" stroke="#222222" stroke-width="0.09375" stroke-miterlimit="10"/>
<path d="M39.8604 199.75C42.6904 199.75 45.5204 199.75 48.3404 199.75C48.3404 212.517 48.3404 225.277 48.3404 238.03C45.5204 238.08 42.6904 238.19 39.8604 238.03C39.8604 225.29 39.8604 212.52 39.8604 199.78V199.75Z" fill="#222222" stroke="#222222" stroke-width="0.09375" stroke-miterlimit="10"/>
<path d="M131.74 199.84C133.31 199.64 134.94 199.84 136.53 199.75V227.64C136.467 228.928 136.514 230.22 136.67 231.5C138.288 231.662 139.916 231.709 141.54 231.64C141.54 233.77 141.54 235.9 141.54 238C137.85 238.19 134.15 238 130.46 238.08C128.16 238.03 125.87 238.19 123.57 237.97C123.57 235.87 123.57 233.77 123.57 231.64C124.94 231.64 126.29 231.64 127.66 231.64C128.02 231.56 128.75 231.59 128.66 231.03C128.66 223.86 128.66 216.67 128.66 209.47C126.92 209.64 125.33 210.34 123.66 210.59C123.66 208.44 123.66 206.28 123.72 204.12C125.86 203.542 127.905 202.656 129.79 201.49C130.51 201.019 131.18 200.476 131.79 199.87L131.74 199.84Z" fill="#222222" stroke="#222222" stroke-width="0.09375" stroke-miterlimit="10"/>
<path d="M237.05 199.84C238.62 199.64 240.22 199.84 241.81 199.75V224.56C241.87 226.88 241.73 229.18 241.9 231.5C243.545 231.662 245.199 231.708 246.85 231.64V238C243.91 238.19 240.94 238 238 238.08C235.06 238.16 231.9 238.17 228.88 238.03V231.64C230.42 231.64 231.96 231.73 233.5 231.59C233.624 231.479 233.754 231.376 233.89 231.28C233.89 224 233.89 216.72 233.89 209.44C232.15 209.58 230.58 210.37 228.89 210.56C228.89 208.69 228.89 206.81 228.89 204.93C228.89 204.63 228.77 204.09 229.19 204.04C232.085 203.223 234.77 201.791 237.06 199.84H237.05Z" fill="#222222" stroke="#222222" stroke-width="0.09375" stroke-miterlimit="10"/>
<path fill-rule="evenodd" clip-rule="evenodd" d="M189 200.2C186.565 199.092 183.818 198.876 181.24 199.59H181.18C179.876 199.965 178.667 200.612 177.632 201.49C176.598 202.367 175.762 203.455 175.18 204.68C173.34 208.13 172.86 212.04 172.58 215.88C172.311 220.508 172.677 225.151 173.67 229.68C174.297 232.55 175.902 235.112 178.21 236.93C180.011 238.049 182.089 238.642 184.21 238.64C186.502 238.684 188.735 237.911 190.51 236.46C193.25 234.19 194.54 230.69 195.32 227.33C196.077 223.469 196.333 219.526 196.08 215.6C195.77 211.88 195.239 208.07 193.479 204.71C192.553 202.733 190.97 201.14 189 200.2ZM185.305 205.914C184.811 205.688 184.252 205.648 183.73 205.8C181.89 206.39 181.61 208.63 181.49 210.28V226.8C181.405 227.67 181.493 228.548 181.749 229.384C182.005 230.22 182.423 230.997 182.98 231.67C183.25 231.852 183.554 231.977 183.874 232.037C184.193 232.097 184.522 232.092 184.839 232.02C185.156 231.949 185.456 231.814 185.719 231.623C185.983 231.432 186.204 231.19 186.37 230.91C186.994 229.533 187.288 228.03 187.23 226.52V212.8C187.228 212.58 187.227 212.357 187.227 212.134C187.222 210.401 187.218 208.598 186.42 207.03C186.195 206.536 185.798 206.14 185.305 205.914Z" fill="#222222"/>
<path d="M181.24 199.59V199.639L181.252 199.635L181.24 199.59ZM189 200.2L189.02 200.158L189.019 200.157L189 200.2ZM181.18 199.59V199.541L181.167 199.545L181.18 199.59ZM177.632 201.49L177.663 201.526L177.663 201.526L177.632 201.49ZM175.18 204.68L175.221 204.702L175.222 204.7L175.18 204.68ZM172.58 215.88L172.533 215.877L172.533 215.877L172.58 215.88ZM173.67 229.68L173.715 229.67L173.715 229.67L173.67 229.68ZM178.21 236.93L178.18 236.967L178.185 236.97L178.21 236.93ZM184.21 238.64L184.21 238.593L184.209 238.593L184.21 238.64ZM190.51 236.46L190.539 236.496L190.539 236.496L190.51 236.46ZM195.32 227.33L195.365 227.341L195.366 227.339L195.32 227.33ZM196.08 215.6L196.126 215.597L196.126 215.596L196.08 215.6ZM193.479 204.71L193.437 204.73L193.438 204.732L193.479 204.71ZM183.73 205.8L183.717 205.755L183.716 205.755L183.73 205.8ZM185.305 205.914L185.285 205.957L185.285 205.957L185.305 205.914ZM181.49 210.28L181.443 210.277V210.28H181.49ZM181.49 226.8L181.537 226.805V226.8H181.49ZM181.749 229.384L181.704 229.398L181.704 229.398L181.749 229.384ZM182.98 231.67L182.943 231.701L182.954 231.709L182.98 231.67ZM184.839 232.02L184.849 232.066L184.849 232.066L184.839 232.02ZM185.719 231.623L185.692 231.585L185.692 231.585L185.719 231.623ZM186.37 230.91L186.411 230.934L186.413 230.929L186.37 230.91ZM187.23 226.52H187.183L187.183 226.522L187.23 226.52ZM187.23 212.8H187.277L187.277 212.8L187.23 212.8ZM187.227 212.134L187.18 212.134L187.18 212.134L187.227 212.134ZM186.42 207.03L186.378 207.05L186.379 207.051L186.42 207.03ZM181.252 199.635C183.819 198.924 186.555 199.139 188.98 200.243L189.019 200.157C186.574 199.044 183.816 198.828 181.227 199.545L181.252 199.635ZM181.18 199.637H181.24V199.543H181.18V199.637ZM177.663 201.526C178.692 200.652 179.895 200.008 181.192 199.635L181.167 199.545C179.856 199.922 178.641 200.572 177.602 201.454L177.663 201.526ZM175.222 204.7C175.801 203.481 176.633 202.399 177.663 201.526L177.602 201.454C176.562 202.336 175.722 203.429 175.137 204.66L175.222 204.7ZM172.626 215.883C172.906 212.044 173.386 208.143 175.221 204.702L175.138 204.658C173.293 208.117 172.813 212.036 172.533 215.877L172.626 215.883ZM173.715 229.67C172.724 225.146 172.358 220.507 172.626 215.883L172.533 215.877C172.264 220.51 172.631 225.157 173.624 229.69L173.715 229.67ZM178.239 236.893C175.94 235.082 174.341 232.529 173.715 229.67L173.624 229.69C174.254 232.57 175.865 235.142 178.181 236.967L178.239 236.893ZM184.209 238.593C182.098 238.595 180.028 238.005 178.234 236.89L178.185 236.97C179.993 238.094 182.08 238.689 184.21 238.687L184.209 238.593ZM190.48 236.424C188.714 237.868 186.491 238.637 184.21 238.593L184.209 238.687C186.512 238.731 188.756 237.955 190.539 236.496L190.48 236.424ZM195.274 227.319C194.494 230.677 193.207 234.164 190.48 236.424L190.539 236.496C193.292 234.216 194.585 230.703 195.365 227.341L195.274 227.319ZM196.033 215.603C196.286 219.525 196.031 223.464 195.274 227.321L195.366 227.339C196.124 223.474 196.38 219.527 196.126 215.597L196.033 215.603ZM193.438 204.732C195.193 208.083 195.723 211.885 196.033 215.604L196.126 215.596C195.816 211.875 195.286 208.057 193.521 204.688L193.438 204.732ZM188.979 200.242C190.94 201.177 192.515 202.763 193.437 204.73L193.522 204.69C192.591 202.704 191 201.102 189.02 200.158L188.979 200.242ZM183.743 205.845C184.254 205.696 184.801 205.735 185.285 205.957L185.324 205.871C184.82 205.641 184.249 205.599 183.717 205.755L183.743 205.845ZM181.537 210.283C181.597 209.459 181.697 208.492 182.009 207.659C182.321 206.827 182.843 206.134 183.745 205.845L183.716 205.755C182.778 206.056 182.239 206.778 181.921 207.626C181.604 208.473 181.504 209.452 181.444 210.277L181.537 210.283ZM181.537 226.8V210.28H181.443V226.8H181.537ZM181.794 229.37C181.54 228.54 181.453 227.668 181.537 226.805L181.444 226.796C181.358 227.672 181.447 228.556 181.704 229.398L181.794 229.37ZM183.016 231.64C182.463 230.972 182.048 230.2 181.794 229.37L181.704 229.398C181.962 230.239 182.383 231.022 182.944 231.7L183.016 231.64ZM183.882 231.991C183.569 231.932 183.271 231.809 183.007 231.631L182.954 231.709C183.229 231.894 183.539 232.022 183.865 232.083L183.882 231.991ZM184.829 231.975C184.518 232.044 184.196 232.05 183.882 231.991L183.865 232.083C184.191 232.144 184.526 232.139 184.849 232.066L184.829 231.975ZM185.692 231.585C185.434 231.772 185.14 231.905 184.829 231.975L184.849 232.066C185.173 231.994 185.478 231.856 185.747 231.661L185.692 231.585ZM186.33 230.886C186.167 231.16 185.95 231.398 185.692 231.585L185.747 231.661C186.015 231.466 186.241 231.219 186.411 230.934L186.33 230.886ZM187.183 226.522C187.241 228.025 186.948 229.521 186.328 230.891L186.413 230.929C187.039 229.546 187.335 228.036 187.277 226.518L187.183 226.522ZM187.183 212.8V226.52H187.277V212.8H187.183ZM187.18 212.134C187.181 212.357 187.181 212.58 187.183 212.801L187.277 212.8C187.275 212.579 187.274 212.357 187.274 212.134L187.18 212.134ZM186.379 207.051C187.17 208.607 187.175 210.399 187.18 212.134L187.274 212.134C187.269 210.403 187.265 208.588 186.462 207.009L186.379 207.051ZM185.285 205.957C185.769 206.178 186.157 206.566 186.378 207.05L186.463 207.011C186.233 206.506 185.828 206.102 185.324 205.871L185.285 205.957Z" fill="#222222"/>
<path fill-rule="evenodd" clip-rule="evenodd" d="M212.204 199.293C210.652 199.062 209.069 199.163 207.56 199.59H207.49C206.052 200.014 204.724 200.748 203.6 201.74C202.315 203.052 201.314 204.614 200.66 206.33C199.03 210.62 198.78 215.26 198.84 219.8C198.818 222.396 199.022 224.989 199.45 227.55C200.07 230.83 201.27 234.25 203.88 236.46C206.004 238.062 208.651 238.811 211.3 238.56C212.664 238.495 213.996 238.132 215.205 237.498C216.414 236.864 217.471 235.974 218.3 234.89C219.706 233.049 220.726 230.944 221.3 228.7C222.296 224.504 222.654 220.182 222.36 215.88C222.08 212.1 221.6 208.21 219.87 204.77C219.102 203.235 217.965 201.916 216.56 200.93C215.24 200.082 213.756 199.524 212.204 199.293ZM211.269 205.774C210.692 205.611 210.075 205.682 209.55 205.97V205.98C209.124 206.307 208.768 206.716 208.504 207.183C208.239 207.651 208.071 208.167 208.01 208.7C207.56 211.103 207.584 213.532 207.609 215.956C207.618 216.872 207.627 217.787 207.61 218.7C207.637 219.755 207.626 220.809 207.614 221.862C207.587 224.334 207.56 226.797 208.03 229.23C208.088 229.775 208.269 230.3 208.56 230.764C208.851 231.229 209.245 231.621 209.71 231.91C210.181 232.098 210.7 232.135 211.192 232.015C211.685 231.895 212.128 231.624 212.46 231.24C213.47 229.79 213.52 227.95 213.52 226.24V211.4C213.62 209.829 213.314 208.258 212.63 206.84C212.334 206.32 211.845 205.937 211.269 205.774Z" fill="#222222"/>
<path d="M207.56 199.59V199.639L207.573 199.635L207.56 199.59ZM212.204 199.293L212.211 199.246L212.211 199.246L212.204 199.293ZM207.49 199.59V199.541L207.477 199.545L207.49 199.59ZM203.6 201.74L203.569 201.705L203.566 201.707L203.6 201.74ZM200.66 206.33L200.616 206.313L200.616 206.313L200.66 206.33ZM198.84 219.8L198.887 219.8L198.887 219.799L198.84 219.8ZM199.45 227.55L199.404 227.558L199.404 227.559L199.45 227.55ZM203.88 236.46L203.85 236.496L203.852 236.497L203.88 236.46ZM211.3 238.56L211.298 238.513L211.296 238.513L211.3 238.56ZM215.205 237.498L215.227 237.54L215.227 237.54L215.205 237.498ZM218.3 234.89L218.337 234.919L218.337 234.918L218.3 234.89ZM221.3 228.7L221.345 228.712L221.346 228.711L221.3 228.7ZM222.36 215.88L222.407 215.877L222.407 215.877L222.36 215.88ZM219.87 204.77L219.828 204.791L219.828 204.791L219.87 204.77ZM216.56 200.93L216.587 200.892L216.585 200.891L216.56 200.93ZM209.55 205.97L209.528 205.929L209.503 205.942V205.97H209.55ZM209.55 205.98L209.579 206.017L209.597 206.003V205.98H209.55ZM208.01 208.7L208.057 208.709L208.057 208.705L208.01 208.7ZM207.609 215.956L207.655 215.956L207.655 215.956L207.609 215.956ZM207.61 218.7L207.563 218.699L207.563 218.701L207.61 218.7ZM207.614 221.862L207.661 221.863L207.661 221.863L207.614 221.862ZM208.03 229.23L208.077 229.225L208.076 229.221L208.03 229.23ZM209.71 231.91L209.685 231.951L209.693 231.954L209.71 231.91ZM212.46 231.24L212.496 231.271L212.499 231.267L212.46 231.24ZM213.52 211.4L213.473 211.397V211.4H213.52ZM212.63 206.84L212.673 206.82L212.671 206.817L212.63 206.84ZM207.573 199.635C209.076 199.21 210.652 199.109 212.197 199.339L212.211 199.246C210.653 199.014 209.063 199.116 207.547 199.545L207.573 199.635ZM207.49 199.637H207.56V199.543H207.49V199.637ZM203.631 201.775C204.75 200.788 206.072 200.057 207.503 199.635L207.477 199.545C206.032 199.971 204.698 200.708 203.569 201.705L203.631 201.775ZM200.704 206.347C201.356 204.637 202.353 203.08 203.633 201.773L203.566 201.707C202.277 203.024 201.273 204.592 200.616 206.313L200.704 206.347ZM198.887 219.799C198.827 215.261 199.077 210.628 200.704 206.347L200.616 206.313C198.983 210.612 198.733 215.259 198.793 219.801L198.887 219.799ZM199.496 227.542C199.069 224.984 198.865 222.394 198.887 219.8L198.793 219.8C198.771 222.398 198.976 224.994 199.404 227.558L199.496 227.542ZM203.91 236.424C201.313 234.225 200.115 230.818 199.496 227.541L199.404 227.559C200.025 230.842 201.227 234.275 203.85 236.496L203.91 236.424ZM211.296 238.513C208.658 238.764 206.023 238.018 203.908 236.423L203.852 236.497C205.985 238.107 208.644 238.859 211.304 238.607L211.296 238.513ZM215.184 237.457C213.981 238.088 212.654 238.448 211.298 238.513L211.302 238.607C212.673 238.541 214.012 238.177 215.227 237.54L215.184 237.457ZM218.263 234.862C217.437 235.94 216.387 236.826 215.184 237.457L215.227 237.54C216.442 236.903 217.504 236.008 218.337 234.919L218.263 234.862ZM221.255 228.688C220.682 230.926 219.665 233.026 218.263 234.862L218.337 234.918C219.747 233.073 220.77 230.962 221.345 228.712L221.255 228.688ZM222.313 215.883C222.607 220.181 222.25 224.498 221.254 228.689L221.346 228.711C222.343 224.511 222.701 220.184 222.407 215.877L222.313 215.883ZM219.828 204.791C221.554 208.222 222.033 212.104 222.313 215.883L222.407 215.877C222.127 212.096 221.646 208.198 219.912 204.749L219.828 204.791ZM216.533 200.968C217.932 201.949 219.064 203.263 219.828 204.791L219.912 204.749C219.141 203.207 217.998 201.882 216.587 200.892L216.533 200.968ZM212.197 199.339C213.742 199.569 215.221 200.125 216.535 200.969L216.585 200.891C215.26 200.039 213.769 199.478 212.211 199.246L212.197 199.339ZM209.573 206.011C210.087 205.729 210.691 205.66 211.256 205.819L211.281 205.729C210.693 205.563 210.063 205.635 209.528 205.929L209.573 206.011ZM209.597 205.98V205.97H209.503V205.98H209.597ZM208.544 207.207C208.806 206.745 209.158 206.34 209.579 206.017L209.522 205.943C209.091 206.274 208.731 206.688 208.463 207.16L208.544 207.207ZM208.057 208.705C208.117 208.178 208.283 207.668 208.544 207.207L208.463 207.16C208.195 207.633 208.025 208.155 207.964 208.695L208.057 208.705ZM207.655 215.956C207.631 213.53 207.607 211.106 208.056 208.709L207.964 208.691C207.513 211.099 207.538 213.533 207.562 215.957L207.655 215.956ZM207.657 218.701C207.674 217.787 207.665 216.872 207.655 215.956L207.562 215.957C207.571 216.873 207.58 217.787 207.563 218.699L207.657 218.701ZM207.661 221.863C207.673 220.81 207.684 219.754 207.657 218.699L207.563 218.701C207.59 219.755 207.579 220.809 207.567 221.862L207.661 221.863ZM208.076 229.221C207.608 226.793 207.634 224.335 207.661 221.863L207.567 221.862C207.54 224.333 207.513 226.8 207.984 229.239L208.076 229.221ZM208.6 230.74C208.313 230.281 208.134 229.763 208.077 229.225L207.984 229.235C208.042 229.787 208.226 230.319 208.52 230.789L208.6 230.74ZM209.735 231.87C209.276 231.585 208.887 231.198 208.6 230.74L208.52 230.789C208.815 231.26 209.214 231.657 209.686 231.95L209.735 231.87ZM211.181 231.969C210.698 232.087 210.19 232.051 209.728 231.867L209.693 231.954C210.173 232.145 210.701 232.183 211.203 232.06L211.181 231.969ZM212.425 231.209C212.099 231.586 211.665 231.851 211.181 231.969L211.203 232.06C211.706 231.938 212.158 231.662 212.496 231.271L212.425 231.209ZM213.473 226.24C213.473 227.952 213.422 229.777 212.422 231.213L212.499 231.267C213.518 229.803 213.567 227.948 213.567 226.24H213.473ZM213.473 211.4V226.24H213.567V211.4H213.473ZM212.588 206.86C213.268 208.271 213.573 209.834 213.474 211.397L213.567 211.403C213.668 209.824 213.36 208.245 212.673 206.82L212.588 206.86ZM211.256 205.819C211.82 205.978 212.299 206.354 212.59 206.863L212.671 206.817C212.369 206.286 211.87 205.895 211.281 205.729L211.256 205.819Z" fill="#222222"/>
<path fill-rule="evenodd" clip-rule="evenodd" d="M95.7102 199.98C93.5494 199.029 91.1562 198.737 88.8302 199.14L88.8502 199.13C86.5685 199.423 84.4534 200.48 82.8502 202.13C79.6002 205.37 78.5302 210 78.0002 214.37C77.558 218.258 77.6826 222.189 78.3702 226.04C78.862 229.595 80.3887 232.927 82.7602 235.62C83.7479 236.65 84.9411 237.461 86.2624 238.001C87.5838 238.54 89.0038 238.795 90.4302 238.75C93.3102 238.93 96.4302 238.14 98.4302 235.93C102.01 232.71 103.1 227.72 103.66 223.16C103.91 218.88 103.97 214.48 102.91 210.28C102.01 206.14 99.7102 201.83 95.7102 199.98ZM92.9099 206.92C92.0999 206.05 90.7899 206.11 89.6899 206.28H89.6599C89.1976 206.479 88.7849 206.778 88.4513 207.154C88.1177 207.531 87.8714 207.977 87.7299 208.46C87.282 209.962 87.02 211.514 86.9499 213.08C86.8565 217 86.8565 220.92 86.9499 224.84C86.9824 225.129 87.0101 225.424 87.038 225.722C87.1993 227.44 87.3692 229.249 88.5199 230.63C88.7925 230.944 89.1274 231.198 89.5033 231.375C89.8792 231.553 90.2879 231.651 90.7035 231.662C91.1191 231.673 91.5325 231.598 91.9175 231.441C92.3025 231.284 92.6506 231.049 92.9399 230.75C94.2799 229.23 94.3999 227.05 94.4799 225.12C94.5899 220.68 94.6199 216.16 94.4799 211.68C94.4366 209.973 93.8904 208.318 92.9099 206.92Z" fill="#222222"/>
<path d="M88.8302 199.14L88.8093 199.098L88.524 199.241L88.8382 199.186L88.8302 199.14ZM95.7102 199.98L95.7299 199.938L95.7291 199.937L95.7102 199.98ZM88.8502 199.13L88.8712 199.172L89.1186 199.048L88.8443 199.084L88.8502 199.13ZM82.8502 202.13L82.8833 202.163L82.8838 202.163L82.8502 202.13ZM78.0002 214.37L77.9537 214.364L77.9536 214.365L78.0002 214.37ZM78.3702 226.04L78.4167 226.034L78.4164 226.032L78.3702 226.04ZM82.7602 235.62L82.725 235.651L82.7264 235.653L82.7602 235.62ZM86.2624 238.001L86.2447 238.044L86.2447 238.044L86.2624 238.001ZM90.4302 238.75L90.4331 238.703L90.4287 238.703L90.4302 238.75ZM98.4302 235.93L98.3987 235.895L98.3955 235.899L98.4302 235.93ZM103.66 223.16L103.707 223.166L103.707 223.163L103.66 223.16ZM102.91 210.28L102.864 210.29L102.865 210.292L102.91 210.28ZM89.6899 206.28V206.327L89.697 206.326L89.6899 206.28ZM92.9099 206.92L92.9486 206.893L92.9442 206.888L92.9099 206.92ZM89.6599 206.28V206.233H89.6502L89.6413 206.237L89.6599 206.28ZM88.4513 207.154L88.4864 207.185L88.4864 207.185L88.4513 207.154ZM87.7299 208.46L87.7748 208.473L87.7749 208.473L87.7299 208.46ZM86.9499 213.08L86.903 213.078L86.903 213.079L86.9499 213.08ZM86.9499 224.84L86.9028 224.841L86.9033 224.845L86.9499 224.84ZM87.038 225.722L86.9913 225.726L86.9913 225.726L87.038 225.722ZM88.5199 230.63L88.4839 230.66L88.4845 230.661L88.5199 230.63ZM89.5033 231.375L89.5233 231.333L89.5233 231.333L89.5033 231.375ZM90.7035 231.662L90.7048 231.615L90.7048 231.615L90.7035 231.662ZM91.9175 231.441L91.8998 231.397L91.8998 231.397L91.9175 231.441ZM92.9399 230.75L92.9736 230.783L92.975 230.781L92.9399 230.75ZM94.4799 225.12L94.5267 225.122L94.5267 225.121L94.4799 225.12ZM94.4799 211.68L94.433 211.681L94.433 211.681L94.4799 211.68ZM88.8382 199.186C91.1552 198.785 93.539 199.076 95.6913 200.023L95.7291 199.937C93.5599 198.983 91.1573 198.69 88.8222 199.094L88.8382 199.186ZM88.8293 199.088L88.8093 199.098L88.8512 199.182L88.8712 199.172L88.8293 199.088ZM82.8838 202.163C84.4796 200.521 86.585 199.468 88.8562 199.177L88.8443 199.084C86.552 199.378 84.4271 200.44 82.8166 202.097L82.8838 202.163ZM78.0467 214.376C78.5766 210.007 79.6453 205.391 82.8833 202.163L82.8171 202.097C79.5552 205.349 78.4839 209.993 77.9537 214.364L78.0467 214.376ZM78.4164 226.032C77.7295 222.185 77.605 218.258 78.0468 214.375L77.9536 214.365C77.5109 218.257 77.6356 222.192 78.3241 226.048L78.4164 226.032ZM82.7954 235.589C80.43 232.903 78.9072 229.579 78.4166 226.034L78.3238 226.047C78.8168 229.611 80.3475 232.951 82.725 235.651L82.7954 235.589ZM86.2801 237.957C84.9649 237.42 83.7771 236.613 82.7941 235.588L82.7264 235.653C83.7186 236.688 84.9173 237.502 86.2447 238.044L86.2801 237.957ZM90.4287 238.703C89.0089 238.748 87.5954 238.494 86.2801 237.957L86.2447 238.044C87.5722 238.586 88.9987 238.842 90.4317 238.797L90.4287 238.703ZM98.3955 235.899C96.4081 238.095 93.3043 238.883 90.4331 238.703L90.4273 238.797C93.3161 238.977 96.4523 238.186 98.465 235.962L98.3955 235.899ZM103.614 223.154C103.054 227.714 101.965 232.688 98.3989 235.895L98.4616 235.965C102.056 232.732 103.147 227.726 103.707 223.166L103.614 223.154ZM102.865 210.292C103.923 214.484 103.863 218.878 103.613 223.157L103.707 223.163C103.957 218.882 104.018 214.476 102.956 210.269L102.865 210.292ZM95.6905 200.023C99.6716 201.864 101.966 206.157 102.864 210.29L102.956 210.27C102.055 206.123 99.7489 201.796 95.7299 199.938L95.6905 200.023ZM89.697 206.326C90.2457 206.242 90.843 206.185 91.4027 206.257C91.9617 206.328 92.4802 206.527 92.8756 206.952L92.9442 206.888C92.5295 206.443 91.988 206.237 91.4146 206.164C90.8417 206.09 90.2341 206.148 89.6827 206.234L89.697 206.326ZM89.6599 206.327H89.6899V206.233H89.6599V206.327ZM88.4864 207.185C88.8154 206.814 89.2225 206.519 89.6784 206.323L89.6413 206.237C89.1727 206.439 88.7544 206.741 88.4162 207.123L88.4864 207.185ZM87.7749 208.473C87.9144 207.997 88.1574 207.557 88.4864 207.185L88.4162 207.123C88.078 207.505 87.8283 207.957 87.6849 208.447L87.7749 208.473ZM86.9967 213.082C87.0667 211.52 87.328 209.972 87.7748 208.473L87.685 208.447C87.2359 209.953 86.9733 211.508 86.9031 213.078L86.9967 213.082ZM86.9967 224.839C86.9034 220.92 86.9034 217 86.9967 213.081L86.903 213.079C86.8097 217 86.8097 220.92 86.903 224.841L86.9967 224.839ZM87.0847 225.718C87.0567 225.42 87.029 225.125 86.9965 224.835L86.9033 224.845C86.9357 225.134 86.9634 225.429 86.9913 225.726L87.0847 225.718ZM88.5559 230.6C87.4161 229.232 87.2463 227.438 87.0847 225.718L86.9913 225.726C87.1524 227.441 87.3224 229.266 88.4839 230.66L88.5559 230.6ZM89.5233 231.333C89.1533 231.158 88.8236 230.908 88.5553 230.599L88.4845 230.661C88.7614 230.98 89.1015 231.237 89.4833 231.418L89.5233 231.333ZM90.7048 231.615C90.2957 231.604 89.8933 231.508 89.5233 231.333L89.4833 231.418C89.865 231.598 90.2801 231.697 90.7022 231.709L90.7048 231.615ZM91.8998 231.397C91.5208 231.552 91.1139 231.626 90.7048 231.615L90.7022 231.709C91.1243 231.72 91.5442 231.644 91.9352 231.484L91.8998 231.397ZM92.9062 230.717C92.6215 231.011 92.2788 231.243 91.8998 231.397L91.9352 231.484C92.3262 231.325 92.6798 231.086 92.9736 230.783L92.9062 230.717ZM94.433 225.118C94.3529 227.052 94.2319 229.214 92.9047 230.719L92.975 230.781C94.3278 229.247 94.4469 227.049 94.5267 225.122L94.433 225.118ZM94.433 211.681C94.573 216.16 94.543 220.679 94.433 225.119L94.5267 225.121C94.6368 220.681 94.6668 216.16 94.5267 211.679L94.433 211.681ZM92.8715 206.947C93.8468 208.337 94.39 209.984 94.433 211.681L94.5267 211.679C94.4832 209.963 93.9341 208.298 92.9483 206.893L92.8715 206.947Z" fill="#222222"/>
<path fill-rule="evenodd" clip-rule="evenodd" d="M157.577 200.319C157.535 200.399 157.494 200.476 157.45 200.54L157.51 200.58C156.864 201.902 156.172 203.195 155.479 204.491C154.757 205.84 154.034 207.192 153.36 208.58C152.325 210.686 151.212 212.752 150.096 214.824C149.283 216.333 148.469 217.846 147.68 219.38C147.05 220.433 146.514 221.541 146.08 222.69C146.03 224.69 146.03 226.69 146.08 228.69C147.388 228.69 148.693 228.695 149.996 228.701C152.599 228.712 155.198 228.723 157.81 228.69V237.76C157.981 238.131 158.345 238.122 158.693 238.113C158.814 238.11 158.932 238.107 159.04 238.12C159.969 238.1 160.905 238.111 161.846 238.121C163.237 238.137 164.639 238.153 166.04 238.07C166.122 236.255 166.109 234.44 166.095 232.631C166.085 231.34 166.075 230.052 166.1 228.77C166.73 228.73 167.36 228.73 167.99 228.73C168.62 228.73 169.25 228.73 169.88 228.69L170.04 228.52C170.08 227.187 170.067 225.853 170.054 224.52C170.047 223.853 170.04 223.187 170.04 222.52H166.12C166.087 219.303 166.098 216.087 166.109 212.872C166.123 208.502 166.138 204.136 166.04 199.78H158.23C157.883 199.741 157.72 200.048 157.577 200.319ZM158.03 210.48C157.618 211.089 157.264 211.736 156.97 212.41L157.02 212.46C156.365 213.854 155.66 215.231 154.955 216.611C153.97 218.537 152.982 220.468 152.12 222.46C152.31 222.463 152.501 222.466 152.691 222.469C154.501 222.498 156.31 222.527 158.12 222.4C158.08 220.61 158.086 218.824 158.092 217.036C158.099 214.858 158.107 212.676 158.03 210.48Z" fill="#222222"/>
<path d="M157.45 200.54L157.412 200.514L157.385 200.553L157.424 200.579L157.45 200.54ZM157.577 200.319L157.536 200.297L157.536 200.297L157.577 200.319ZM157.51 200.58L157.553 200.601L157.571 200.564L157.536 200.541L157.51 200.58ZM155.479 204.491L155.521 204.513L155.521 204.513L155.479 204.491ZM153.36 208.58L153.403 208.601L153.403 208.6L153.36 208.58ZM150.096 214.824L150.138 214.846L150.138 214.846L150.096 214.824ZM147.68 219.38L147.721 219.404L147.722 219.401L147.68 219.38ZM146.08 222.69L146.037 222.673L146.034 222.681L146.034 222.689L146.08 222.69ZM146.08 228.69L146.034 228.691L146.035 228.737H146.08V228.69ZM149.996 228.701L149.996 228.654L149.996 228.654L149.996 228.701ZM157.81 228.69H157.857V228.642L157.81 228.643L157.81 228.69ZM157.81 237.76H157.764V237.77L157.768 237.78L157.81 237.76ZM158.693 238.113L158.692 238.066L158.692 238.066L158.693 238.113ZM159.04 238.12L159.035 238.167L159.041 238.167L159.04 238.12ZM161.846 238.121L161.845 238.168L161.845 238.168L161.846 238.121ZM166.04 238.07L166.043 238.117L166.085 238.114L166.087 238.072L166.04 238.07ZM166.095 232.631L166.048 232.631L166.048 232.631L166.095 232.631ZM166.1 228.77L166.097 228.723L166.054 228.726L166.054 228.769L166.1 228.77ZM169.88 228.69L169.883 228.737L169.902 228.736L169.915 228.722L169.88 228.69ZM170.04 228.52L170.075 228.552L170.087 228.539L170.087 228.521L170.04 228.52ZM170.054 224.52L170.007 224.52L170.007 224.52L170.054 224.52ZM170.04 222.52H170.087V222.473H170.04V222.52ZM166.12 222.52L166.074 222.52L166.074 222.567H166.12V222.52ZM166.109 212.872L166.062 212.872L166.109 212.872ZM166.04 199.78L166.087 199.779L166.086 199.733H166.04V199.78ZM158.23 199.78L158.225 199.827H158.23V199.78ZM156.97 212.41L156.927 212.391L156.914 212.421L156.937 212.443L156.97 212.41ZM158.03 210.48L158.077 210.478L158.072 210.334L157.991 210.454L158.03 210.48ZM157.02 212.46L157.063 212.48L157.077 212.45L157.053 212.427L157.02 212.46ZM154.955 216.611L154.913 216.59L154.913 216.59L154.955 216.611ZM152.12 222.46L152.077 222.441L152.049 222.506L152.119 222.507L152.12 222.46ZM152.691 222.469L152.69 222.516L152.69 222.516L152.691 222.469ZM158.12 222.4L158.123 222.447L158.168 222.444L158.167 222.399L158.12 222.4ZM158.092 217.036L158.139 217.036L158.139 217.036L158.092 217.036ZM157.489 200.566C157.534 200.5 157.576 200.42 157.618 200.341L157.536 200.297C157.493 200.378 157.453 200.452 157.412 200.514L157.489 200.566ZM157.536 200.541L157.476 200.501L157.424 200.579L157.484 200.619L157.536 200.541ZM155.521 204.513C156.213 203.218 156.906 201.924 157.553 200.601L157.468 200.559C156.822 201.881 156.131 203.173 155.438 204.469L155.521 204.513ZM153.403 208.6C154.076 207.213 154.798 205.863 155.521 204.513L155.438 204.469C154.716 205.818 153.992 207.17 153.318 208.559L153.403 208.6ZM150.138 214.846C151.253 212.774 152.366 210.707 153.403 208.601L153.318 208.559C152.283 210.664 151.171 212.729 150.055 214.801L150.138 214.846ZM147.722 219.401C148.51 217.868 149.325 216.355 150.138 214.846L150.055 214.801C149.242 216.311 148.427 217.824 147.639 219.359L147.722 219.401ZM146.124 222.706C146.557 221.56 147.091 220.455 147.721 219.404L147.64 219.356C147.008 220.412 146.471 221.522 146.037 222.673L146.124 222.706ZM146.127 228.689C146.077 226.69 146.077 224.69 146.127 222.691L146.034 222.689C145.984 224.69 145.984 226.69 146.034 228.691L146.127 228.689ZM149.996 228.654C148.693 228.649 147.388 228.643 146.08 228.643V228.737C147.388 228.737 148.692 228.742 149.996 228.748L149.996 228.654ZM157.81 228.643C155.198 228.676 152.6 228.665 149.996 228.654L149.996 228.748C152.599 228.759 155.198 228.77 157.811 228.737L157.81 228.643ZM157.857 237.76V228.69H157.764V237.76H157.857ZM158.692 238.066C158.516 238.071 158.346 238.075 158.198 238.034C158.054 237.994 157.932 237.912 157.853 237.74L157.768 237.78C157.86 237.979 158.006 238.078 158.173 238.124C158.337 238.169 158.522 238.164 158.694 238.16L158.692 238.066ZM159.046 238.073C158.934 238.06 158.812 238.063 158.692 238.066L158.694 238.16C158.816 238.157 158.931 238.154 159.035 238.166L159.046 238.073ZM161.847 238.074C160.906 238.064 159.968 238.053 159.039 238.073L159.041 238.167C159.969 238.147 160.904 238.157 161.845 238.168L161.847 238.074ZM166.038 238.023C164.638 238.107 163.238 238.09 161.847 238.074L161.845 238.168C163.236 238.184 164.64 238.2 166.043 238.117L166.038 238.023ZM166.048 232.631C166.062 234.44 166.075 236.254 165.994 238.068L166.087 238.072C166.169 236.256 166.155 234.439 166.142 232.63L166.048 232.631ZM166.054 228.769C166.029 230.052 166.038 231.341 166.048 232.631L166.142 232.63C166.132 231.34 166.122 230.053 166.147 228.771L166.054 228.769ZM167.99 228.683C167.361 228.683 166.729 228.683 166.097 228.723L166.103 228.817C166.732 228.777 167.36 228.777 167.99 228.777V228.683ZM169.877 228.643C169.249 228.683 168.621 228.683 167.99 228.683V228.777C168.62 228.777 169.252 228.777 169.883 228.737L169.877 228.643ZM170.006 228.488L169.846 228.658L169.915 228.722L170.075 228.552L170.006 228.488ZM170.007 224.52C170.02 225.854 170.034 227.186 169.994 228.519L170.087 228.521C170.127 227.187 170.114 225.853 170.101 224.519L170.007 224.52ZM169.994 222.52C169.994 223.187 170 223.854 170.007 224.52L170.101 224.519C170.094 223.853 170.087 223.186 170.087 222.52H169.994ZM166.12 222.567H170.04V222.473H166.12V222.567ZM166.062 212.872C166.051 216.086 166.04 219.303 166.074 222.52L166.167 222.519C166.133 219.303 166.144 216.087 166.155 212.872L166.062 212.872ZM165.994 199.781C166.092 204.136 166.077 208.502 166.062 212.872L166.155 212.872C166.17 208.502 166.185 204.136 166.087 199.779L165.994 199.781ZM158.23 199.827H166.04V199.733H158.23V199.827ZM157.618 200.341C157.691 200.204 157.764 200.066 157.861 199.966C157.955 199.868 158.069 199.809 158.225 199.827L158.236 199.733C158.044 199.712 157.903 199.787 157.794 199.901C157.686 200.012 157.607 200.163 157.536 200.297L157.618 200.341ZM157.013 212.429C157.305 211.757 157.659 211.113 158.069 210.506L157.991 210.454C157.578 211.066 157.222 211.714 156.927 212.391L157.013 212.429ZM157.053 212.427L157.003 212.377L156.937 212.443L156.987 212.493L157.053 212.427ZM154.996 216.633C155.702 215.253 156.407 213.875 157.063 212.48L156.978 212.44C156.323 213.834 155.619 215.21 154.913 216.59L154.996 216.633ZM152.163 222.479C153.025 220.488 154.012 218.558 154.996 216.633L154.913 216.59C153.928 218.515 152.94 220.448 152.077 222.441L152.163 222.479ZM152.692 222.422C152.502 222.419 152.311 222.416 152.121 222.413L152.119 222.507C152.31 222.51 152.5 222.513 152.69 222.516L152.692 222.422ZM158.117 222.353C156.31 222.48 154.502 222.451 152.692 222.422L152.69 222.516C154.5 222.545 156.311 222.574 158.123 222.447L158.117 222.353ZM158.045 217.035C158.039 218.824 158.033 220.61 158.073 222.401L158.167 222.399C158.126 220.61 158.133 218.824 158.139 217.036L158.045 217.035ZM157.983 210.482C158.06 212.677 158.053 214.857 158.045 217.035L158.139 217.036C158.146 214.858 158.154 212.676 158.077 210.478L157.983 210.482Z" fill="#222222"/>
<path d="M85.3799 246.87C86.2759 246.548 87.2352 246.442 88.1799 246.56H195.18C198.57 246.56 201.95 246.48 205.37 246.62C204.567 247.29 203.696 247.874 202.77 248.36C200.516 249.654 198.197 250.829 195.82 251.88C184.507 257.308 172.385 260.854 159.93 262.38C152.674 263.208 145.363 263.432 138.07 263.05C124.611 262.23 111.396 259.087 99.0099 253.76C94.3119 251.818 89.7717 249.514 85.4299 246.87H85.3799Z" fill="#222222" stroke="#222222" stroke-width="0.09375" stroke-miterlimit="10"/>
</g>
<defs>
<clipPath id="clip0">
<rect width="291.31" height="263.26" fill="white"/>
</clipPath>
</defs>
</svg>
