<svg xmlns="http://www.w3.org/2000/svg" viewBox="0 0 307.17 155.91"><g id="Scheme_type" data-name="Scheme type"><path d="M162.55,128.55a9.42,9.42,0,0,1-3.67.76,4.58,4.58,0,0,1-3.87-1.64,7.15,7.15,0,0,1-1.1-4.34c0-2.16.48-3.74,1.47-4.75a5.09,5.09,0,0,1,3.77-1.23,15.55,15.55,0,0,1,3,.31l-.16,1.89a18.4,18.4,0,0,0-2.6-.18,2.94,2.94,0,0,0-2.34.76,4.88,4.88,0,0,0-.79,3.2,5.86,5.86,0,0,0,.54,2.87,2.52,2.52,0,0,0,2.32,1.09,10.13,10.13,0,0,0,2.87-.54Z" transform="translate(0 -0.47)" style="fill:#1d1d1b"/><path d="M163.63,129.13v-11.6h7.2v2H165.9v2.71H170v1.94H165.9v3h4.93v2Z" transform="translate(0 -0.47)" style="fill:#1d1d1b"/><path d="M178.19,129.13c-.83-1.53-1.55-3-2.23-4.48-.51,0-1.19,0-1.62-.06v4.54h-2.27V117.61a34.23,34.23,0,0,1,3.65-.24c2.38,0,4.6.58,4.6,3.58a3.27,3.27,0,0,1-2.22,3.39c.67,1.37,1.69,3.13,2.7,4.79ZM174.34,123a9.46,9.46,0,0,0,2.45-.18A1.57,1.57,0,0,0,178,121c0-1.38-1-1.64-2.11-1.64-.52,0-1.08,0-1.56.06Z" transform="translate(0 -0.47)" style="fill:#1d1d1b"/><path d="M183.81,129.13v-9.62h-3.14v-2h8.54v2h-3.14v9.62Z" transform="translate(0 -0.47)" style="fill:#1d1d1b"/><path d="M190.05,129.13v-11.6h2.27v11.6Z" transform="translate(0 -0.47)" style="fill:#1d1d1b"/><path d="M194.19,129.13v-11.6h7.37v2h-5.1v2.9h4.21v2h-4.21v4.77Z" transform="translate(0 -0.47)" style="fill:#1d1d1b"/><path d="M202.63,129.13v-11.6h2.27v11.6Z" transform="translate(0 -0.47)" style="fill:#1d1d1b"/><path d="M206.77,129.13v-11.6H214v2H209v2.71h4.09v1.94H209v3H214v2Z" transform="translate(0 -0.47)" style="fill:#1d1d1b"/><path d="M215.22,117.68a25.64,25.64,0,0,1,3.61-.31c3.93,0,5.3,2,5.3,5.94s-1.37,6-5.3,6a34.88,34.88,0,0,1-3.61-.18Zm2.26,9.58c.49,0,.74,0,1.16,0,2.55,0,3.18-1.09,3.18-4,0-2.71-.63-4-3.18-4a10.71,10.71,0,0,0-1.16.06Z" transform="translate(0 -0.47)" style="fill:#1d1d1b"/></g><g id="Scheme_text" data-name="Scheme text"><path d="M155,44.34V29.53h2.21V44.34Z" transform="translate(0 -0.47)" style="fill:#1d1d1b"/><path d="M159.54,42.27a22.79,22.79,0,0,0,3.5.32,4.65,4.65,0,0,0,3.15-.83,2,2,0,0,0,.62-1.52c0-1.45-.9-1.93-3.45-2.69s-4.19-1.79-4.19-4.3a3.59,3.59,0,0,1,1.43-2.94,5.84,5.84,0,0,1,3.66-1,22.18,22.18,0,0,1,4.09.46l-.28,1.84a20.42,20.42,0,0,0-3.42-.32,4.72,4.72,0,0,0-2.56.52,1.63,1.63,0,0,0-.69,1.38c0,1.52,1.18,2,3.61,2.69s4,1.75,4,4.35a4,4,0,0,1-1.5,3.27,6.5,6.5,0,0,1-4.07,1.08,24,24,0,0,1-4.2-.44Z" transform="translate(0 -0.47)" style="fill:#1d1d1b"/><path d="M170.08,36.93c0-5,1.9-7.63,6.39-7.63s6.39,2.62,6.39,7.63-1.91,7.64-6.39,7.64S170.08,42,170.08,36.93Zm10.53,0c0-3.91-1.18-5.65-4.14-5.65s-4.14,1.74-4.14,5.65,1.17,5.66,4.14,5.66S180.61,40.84,180.61,36.93Z" transform="translate(0 -0.47)" style="fill:#1d1d1b"/><path d="M196.34,38.29a6.19,6.19,0,0,1-3.33.92,4.85,4.85,0,0,1-3.62-1.29,5.08,5.08,0,0,1-1.15-3.65,5,5,0,0,1,1.18-3.59,5.44,5.44,0,0,1,4-1.38,5.7,5.7,0,0,1,3.68,1.08,4.72,4.72,0,0,1,1.41,3.75v5.49a4.74,4.74,0,0,1-1.43,3.77,6,6,0,0,1-4,1.18,21.62,21.62,0,0,1-4.1-.46l.28-1.84a18.43,18.43,0,0,0,3.45.37,4.1,4.1,0,0,0,2.9-.79,3.27,3.27,0,0,0,.71-2.39Zm0-4c0-2-.76-3-2.92-3s-2.92,1-2.92,3a3.21,3.21,0,0,0,.67,2.32,2.9,2.9,0,0,0,2.25.72,9,9,0,0,0,2.92-.53Z" transform="translate(0 -0.47)" style="fill:#1d1d1b"/><path d="M200.16,36.93c0-5,1-7.63,5.36-7.63s5.33,2.67,5.33,7.63-1,7.64-5.33,7.64S200.16,41.88,200.16,36.93Zm8.48,0c0-3.52-.2-5.7-3.12-5.7s-3.15,2.18-3.15,5.7.18,5.73,3.15,5.73S208.64,40.43,208.64,36.93Z" transform="translate(0 -0.47)" style="fill:#1d1d1b"/><path d="M212.44,36.93c0-5,1-7.63,5.36-7.63s5.33,2.67,5.33,7.63-1,7.64-5.33,7.64S212.44,41.88,212.44,36.93Zm8.49,0c0-3.52-.21-5.7-3.13-5.7s-3.15,2.18-3.15,5.7.18,5.73,3.15,5.73S220.93,40.43,220.93,36.93Z" transform="translate(0 -0.47)" style="fill:#1d1d1b"/><path d="M227,44.34V31.76l-3.08,1.17-.67-1.49,4-1.91h2V44.34Z" transform="translate(0 -0.47)" style="fill:#1d1d1b"/><path d="M162,65.88c-2.43-1.43-4.39-1.95-5.91-3C154.9,62,154,60.71,154,57.54c0-3.93,1.5-6,5-6s5,2,5,6a6.55,6.55,0,0,1-1.24,4.34,4.65,4.65,0,0,1-3.39,1.35v0a13.7,13.7,0,0,1,3.39,1.09Zm.22-8.34c0-3.06-.92-4.43-3.24-4.43s-3.26,1.37-3.26,4.43S156.64,62,159,62,162.23,60.6,162.23,57.54Z" transform="translate(0 -0.47)" style="fill:#1d1d1b"/><path d="M170.49,63.34l-.13-.71a4.25,4.25,0,0,1-2.52.91,2.6,2.6,0,0,1-2.81-2.9V55h1.64v5.45c0,1.14.49,1.57,1.46,1.57a4.49,4.49,0,0,0,1.92-.47V55h1.64v8.32Z" transform="translate(0 -0.47)" style="fill:#1d1d1b"/><path d="M178.21,63.34l-.18-.71a3.66,3.66,0,0,1-2.43.89,2.56,2.56,0,0,1-2.76-2.61,2.45,2.45,0,0,1,.89-1.95,3.51,3.51,0,0,1,2.23-.63c.57,0,1.24,0,1.82.07v-.7a1.37,1.37,0,0,0-.35-1A2.11,2.11,0,0,0,176,56.3a11.51,11.51,0,0,0-2.34.27l-.25-1.37a10.2,10.2,0,0,1,2.73-.36,3.78,3.78,0,0,1,2.51.65,2.58,2.58,0,0,1,.81,2.12v5.73Zm-.43-3.73c-.42,0-1,0-1.48,0-1.21,0-1.78.43-1.78,1.35a1.27,1.27,0,0,0,1.42,1.31,3.08,3.08,0,0,0,1.84-.61Z" transform="translate(0 -0.47)" style="fill:#1d1d1b"/><path d="M181,63.34V51.74h1.64v11.6Z" transform="translate(0 -0.47)" style="fill:#1d1d1b"/><path d="M185.07,51.69a.92.92,0,0,1,.91.92.9.9,0,0,1-.91.9.89.89,0,0,1-.9-.9A.9.9,0,0,1,185.07,51.69Zm-.81,11.65V55h1.63v8.32Z" transform="translate(0 -0.47)" style="fill:#1d1d1b"/><path d="M191.92,63a4.54,4.54,0,0,1-2,.5,2,2,0,0,1-2.13-2.27V56.37h-1.24V55.16l1.29-.07.13-2.45h1.46V55h2.32v1.35h-2.32V61c0,.61.11,1,.74,1a2.79,2.79,0,0,0,1.2-.3Z" transform="translate(0 -0.47)" style="fill:#1d1d1b"/><path d="M194.19,66.61c.49-1.27.88-2.41,1.17-3.27h-.88C193.63,61,192.77,58,192,55h1.71c.56,2.45,1.17,4.79,1.89,7h.13c.67-2,1.37-4.63,1.91-7h1.67a96.69,96.69,0,0,1-3.53,11.59Z" transform="translate(0 -0.47)" style="fill:#1d1d1b"/><path d="M164.14,82.34c-.1-3.1-.24-6.29-.38-9.35h-.09L161,80.37h-1.86L156.55,73h-.09c-.14,3.06-.28,6.25-.37,9.35h-1.75c.13-3.86.32-7.73.54-11.6h2.52l2.67,7.69h.09l2.66-7.69h2.52c.22,3.87.42,7.74.54,11.6Z" transform="translate(0 -0.47)" style="fill:#1d1d1b"/><path d="M172.32,82.34l-.18-.71a3.65,3.65,0,0,1-2.43.89A2.55,2.55,0,0,1,167,79.91a2.47,2.47,0,0,1,.88-2,3.53,3.53,0,0,1,2.23-.63c.58,0,1.24,0,1.82.07v-.7a1.41,1.41,0,0,0-.34-1,2.14,2.14,0,0,0-1.48-.36,11.51,11.51,0,0,0-2.34.27l-.25-1.37a10.22,10.22,0,0,1,2.74-.36,3.77,3.77,0,0,1,2.5.65,2.58,2.58,0,0,1,.81,2.12v5.73Zm-.43-3.73c-.41,0-1,0-1.48,0-1.2,0-1.78.43-1.78,1.35a1.27,1.27,0,0,0,1.42,1.31,3.08,3.08,0,0,0,1.84-.61Z" transform="translate(0 -0.47)" style="fill:#1d1d1b"/><path d="M180.15,82.34V76.88c0-1.06-.48-1.57-1.4-1.57a4.63,4.63,0,0,0-2,.53v6.5h-1.64V74h1.21l.14.75a4.25,4.25,0,0,1,2.52-.93,2.6,2.6,0,0,1,2.83,2.9v5.6Z" transform="translate(0 -0.47)" style="fill:#1d1d1b"/><path d="M188.16,82.34l-.18-.71a3.65,3.65,0,0,1-2.43.89,2.55,2.55,0,0,1-2.75-2.61,2.47,2.47,0,0,1,.88-2,3.53,3.53,0,0,1,2.23-.63c.58,0,1.24,0,1.82.07v-.7a1.41,1.41,0,0,0-.34-1,2.14,2.14,0,0,0-1.48-.36,11.51,11.51,0,0,0-2.34.27l-.25-1.37a10.22,10.22,0,0,1,2.74-.36,3.77,3.77,0,0,1,2.5.65,2.58,2.58,0,0,1,.81,2.12v5.73Zm-.43-3.73c-.41,0-1,0-1.48,0-1.2,0-1.78.43-1.78,1.35a1.27,1.27,0,0,0,1.42,1.31,3.08,3.08,0,0,0,1.84-.61Z" transform="translate(0 -0.47)" style="fill:#1d1d1b"/><path d="M195.74,81.87a3.62,3.62,0,0,1-2,.65c-2.36,0-3.22-1.53-3.22-4.27,0-3.12,1-4.41,3.27-4.41a12.42,12.42,0,0,1,3.57.57v8.68a2.59,2.59,0,0,1-.76,2,3.75,3.75,0,0,1-2.55.72,15.65,15.65,0,0,1-2.69-.28l.22-1.41a15.58,15.58,0,0,0,2.23.22,2.35,2.35,0,0,0,1.59-.38,1.51,1.51,0,0,0,.32-1Zm0-6.41A10.55,10.55,0,0,0,194,75.3c-1.43,0-1.79,1-1.79,3s.38,2.9,1.77,2.9a4,4,0,0,0,1.78-.4Z" transform="translate(0 -0.47)" style="fill:#1d1d1b"/><path d="M205,81.85a7.19,7.19,0,0,1-2.88.67c-2.45,0-3.77-1.53-3.77-4.29,0-2.29,1.05-4.39,3.59-4.39,2,0,3.18,1.44,3.18,3.67a6.83,6.83,0,0,1-.12,1.26h-5a2.7,2.7,0,0,0,.56,1.71,2.14,2.14,0,0,0,1.65.58,6.5,6.5,0,0,0,2.4-.52Zm-1.43-4.37c0-1.25-.36-2.24-1.69-2.24s-1.78,1.08-1.85,2.24Z" transform="translate(0 -0.47)" style="fill:#1d1d1b"/><path d="M216,82.34V76.83c0-1-.5-1.52-1.42-1.52a4,4,0,0,0-1.92.58,7,7,0,0,1,.09,1v5.42h-1.64V76.83c0-1-.49-1.52-1.41-1.52a3.77,3.77,0,0,0-1.85.51v6.52h-1.64V74h1.21l.14.75a4.14,4.14,0,0,1,2.5-.93,2.4,2.4,0,0,1,2.16,1.06,4.18,4.18,0,0,1,2.6-1.06c1.85,0,2.82,1,2.82,3.06v5.44Z" transform="translate(0 -0.47)" style="fill:#1d1d1b"/><path d="M225.12,81.85a7.19,7.19,0,0,1-2.88.67c-2.45,0-3.77-1.53-3.77-4.29,0-2.29,1.05-4.39,3.59-4.39,2,0,3.18,1.44,3.18,3.67a6.83,6.83,0,0,1-.12,1.26h-5a2.76,2.76,0,0,0,.56,1.71,2.14,2.14,0,0,0,1.65.58,6.5,6.5,0,0,0,2.4-.52Zm-1.43-4.37c0-1.25-.36-2.24-1.69-2.24s-1.78,1.08-1.85,2.24Z" transform="translate(0 -0.47)" style="fill:#1d1d1b"/><path d="M231.38,82.34V76.88c0-1.06-.49-1.57-1.41-1.57a4.63,4.63,0,0,0-2,.53v6.5h-1.64V74h1.21l.14.75a4.25,4.25,0,0,1,2.52-.93,2.6,2.6,0,0,1,2.83,2.9v5.6Z" transform="translate(0 -0.47)" style="fill:#1d1d1b"/><path d="M238.9,82a4.58,4.58,0,0,1-2,.5c-1.35,0-2.12-.76-2.12-2.27V75.37h-1.24V74.16l1.29-.07.13-2.45h1.46V74h2.32v1.35h-2.32V80c0,.61.11,1,.74,1a2.79,2.79,0,0,0,1.2-.3Z" transform="translate(0 -0.47)" style="fill:#1d1d1b"/><path d="M154.45,99.72a19.05,19.05,0,0,0,2.73.25,3.67,3.67,0,0,0,2.47-.65,1.56,1.56,0,0,0,.49-1.19c0-1.13-.71-1.51-2.7-2.1s-3.28-1.41-3.28-3.37a2.81,2.81,0,0,1,1.12-2.31,4.57,4.57,0,0,1,2.86-.79,16.86,16.86,0,0,1,3.2.36l-.21,1.44a16.78,16.78,0,0,0-2.69-.25,3.64,3.64,0,0,0-2,.41,1.27,1.27,0,0,0-.54,1.08c0,1.19.91,1.53,2.82,2.11s3.15,1.37,3.15,3.4a3.12,3.12,0,0,1-1.17,2.56,5,5,0,0,1-3.18.85,18.86,18.86,0,0,1-3.3-.35Z" transform="translate(0 -0.47)" style="fill:#1d1d1b"/><path d="M164.56,104.61c.49-1.27.89-2.41,1.17-3.27h-.88C164,99,163.14,96,162.39,93h1.71c.55,2.45,1.17,4.79,1.89,7h.12c.67-2,1.37-4.63,1.91-7h1.68a98.55,98.55,0,0,1-3.53,11.59Z" transform="translate(0 -0.47)" style="fill:#1d1d1b"/><path d="M170.27,99.81a15.87,15.87,0,0,0,2.45.25,2.86,2.86,0,0,0,1.55-.31.81.81,0,0,0,.39-.74c0-.66-.5-.88-2-1.27-1.34-.35-2.56-.89-2.56-2.47a2.15,2.15,0,0,1,1.08-2,4.35,4.35,0,0,1,2.25-.48,12.59,12.59,0,0,1,2.38.25l-.15,1.37a14.57,14.57,0,0,0-2.05-.16,2.74,2.74,0,0,0-1.51.28.74.74,0,0,0-.34.63c0,.67.66.82,2.32,1.3,1.46.43,2.27,1.08,2.27,2.41a2.34,2.34,0,0,1-.92,2,4.37,4.37,0,0,1-2.54.63,12,12,0,0,1-2.77-.33Z" transform="translate(0 -0.47)" style="fill:#1d1d1b"/><path d="M181.61,101a4.62,4.62,0,0,1-2,.5c-1.35,0-2.12-.76-2.12-2.27V94.37h-1.25V93.16l1.3-.07.13-2.45h1.46V93h2.32v1.35h-2.32V99c0,.61.1,1,.73,1a2.8,2.8,0,0,0,1.21-.3Z" transform="translate(0 -0.47)" style="fill:#1d1d1b"/><path d="M188.49,100.85a7.19,7.19,0,0,1-2.88.67c-2.45,0-3.77-1.53-3.77-4.29,0-2.28,1-4.39,3.59-4.39,2,0,3.18,1.44,3.18,3.67a6.83,6.83,0,0,1-.12,1.26h-5a2.76,2.76,0,0,0,.56,1.71,2.13,2.13,0,0,0,1.65.58,6.5,6.5,0,0,0,2.4-.52Zm-1.43-4.37c0-1.25-.36-2.24-1.69-2.24s-1.78,1.08-1.85,2.24Z" transform="translate(0 -0.47)" style="fill:#1d1d1b"/><path d="M199.48,101.34V95.83c0-1-.5-1.52-1.42-1.52a4,4,0,0,0-1.92.58,7,7,0,0,1,.09,1v5.42h-1.64V95.83c0-1-.49-1.52-1.41-1.52a3.77,3.77,0,0,0-1.85.51v6.52h-1.64V93h1.21l.14.75a4.16,4.16,0,0,1,2.5-.93,2.4,2.4,0,0,1,2.16,1.06,4.18,4.18,0,0,1,2.6-1.06c1.85,0,2.82,1,2.82,3.06v5.44Z" transform="translate(0 -0.47)" style="fill:#1d1d1b"/><path d="M202.33,99.81a15.87,15.87,0,0,0,2.44.25,2.84,2.84,0,0,0,1.55-.31.8.8,0,0,0,.4-.74c0-.66-.5-.88-2-1.27-1.33-.35-2.55-.89-2.55-2.47a2.15,2.15,0,0,1,1.08-2,4.35,4.35,0,0,1,2.25-.48,12.4,12.4,0,0,1,2.37.25l-.14,1.37a14.57,14.57,0,0,0-2.05-.16,2.8,2.8,0,0,0-1.52.28.77.77,0,0,0-.34.63c0,.67.67.82,2.33,1.3,1.45.43,2.26,1.08,2.26,2.41a2.36,2.36,0,0,1-.91,2,4.37,4.37,0,0,1-2.54.63,12,12,0,0,1-2.78-.33Z" transform="translate(0 -0.47)" style="fill:#1d1d1b"/></g><g id="Key_line" data-name="Key line"><path d="M236.3,156.38H70.86a1.78,1.78,0,0,1,0-3.55H236.3a67.32,67.32,0,1,0,0-134.64h-130a1.78,1.78,0,0,1,0-3.55h130a70.87,70.87,0,1,1,0,141.74Z" transform="translate(0 -0.47)" style="fill:#1d1d1b"/></g><g id="Roundel"><path d="M75,68.68a15.06,15.06,0,0,1,30.08,0Zm12.68,35.71C85.54,98.12,80.48,94.82,76.22,92c-4.73-3.08-6.71-4.68-6.8-7.64A7.34,7.34,0,0,1,76.64,77h26.27ZM67.34,128.21a24,24,0,0,0,3.54.32,18.16,18.16,0,0,0,3.53-.33l-3.53,6.34ZM63.06,77a16.09,16.09,0,0,0-1.82,7.16h0a2,2,0,0,0,0,.25v0c.12,7.84,5.92,11.63,10.59,14.67,5.55,3.62,8.69,6,8.69,11.9s-4.64,9.26-10.34,9.26c-3.66,0-8.3-2-10.15-5.22l-1.64-2.84L38.67,77Zm-11-22.68a15.2,15.2,0,0,1,15,14.33H37.05a15.2,15.2,0,0,1,15-14.33m38-8a22.46,22.46,0,0,0-19,10.37,22.43,22.43,0,0,0-19-10.37A23.31,23.31,0,0,0,28.83,69.69v2.37a13,13,0,0,0,2,7.33l40,69s38-65.55,39.85-69,2.18-5,2.18-7.33V69.69A23.13,23.13,0,0,0,90,46.37" transform="translate(0 -0.47)" style="fill:#161412"/><path d="M56.48,12.86a12.58,12.58,0,0,0-6.81,2V.47H44V39.54h3.34l.92-2.1a13.13,13.13,0,0,0,8.23,2.71c7.4,0,10.14-5.09,10.14-13.64S63.88,12.86,56.48,12.86m-1.33,4.95c5,0,5.73,3.9,5.73,8.7s-.75,8.71-5.73,8.71a10.6,10.6,0,0,1-5.48-1.52V19.32a10.51,10.51,0,0,1,5.48-1.51M73.8,21c0-2.35,1.89-3.23,4.89-3.23a20.46,20.46,0,0,1,7.75,1.46V14.16a19,19,0,0,0-7.87-1.3c-7.45,0-10.29,3.8-10.29,8.28s1.88,6.92,9.54,7.62c3.4.3,4.21,1.29,4.21,3.22,0,2.29-2,3.24-6,3.24a21.81,21.81,0,0,1-7.56-1.46v5a23.72,23.72,0,0,0,8.38,1.4c8.12,0,10.81-3.9,10.81-8.38,0-4.84-2-7.19-9.59-7.86-3.31-.32-4.23-1.1-4.23-2.92M96.63,39.9a5.76,5.76,0,0,0,1.11-.11V35.06c-1.62,0-2.13-.53-2.13-2V13.49H89.93V33.13c0,4.47,2.09,6.77,6.7,6.77M89.07,5.77a3.71,3.71,0,1,0,7.41,0,3.71,3.71,0,1,0-7.41,0" transform="translate(0 -0.47)" style="fill:#161412"/><path d="M70.87,156.38A70.88,70.88,0,0,1,34.52,24.66a1.77,1.77,0,1,1,1.82,3A67.33,67.33,0,1,0,138.19,85.51a66.8,66.8,0,0,0-32.8-57.81,1.77,1.77,0,0,1,1.82-3A70.88,70.88,0,0,1,70.87,156.38Z" transform="translate(0 -0.47)" style="fill:#161412"/></g></svg>