<svg width="40" height="40" viewBox="0 0 40 40" fill="none" xmlns="http://www.w3.org/2000/svg">
<rect width="40" height="40" rx="3" fill="#3C5B9B"/>
<path fill-rule="evenodd" clip-rule="evenodd" d="M14.9219 11C13.8608 11 13 11.8594 13 12.9205C13 13.9815 13.8601 14.8608 14.9205 14.8608C15.9808 14.8608 16.8423 13.9815 16.8423 12.9205C16.8423 11.8601 15.983 11 14.9219 11ZM24.2983 16.0909C22.6845 16.0909 21.7611 16.9349 21.3182 17.7741H21.2713V16.3168H18.0909V27H21.4048V21.7116C21.4048 20.3182 21.51 18.9716 23.2344 18.9716C24.934 18.9716 24.9588 20.5604 24.9588 21.7997V27H28.2685H28.2727V21.1321C28.2727 18.2608 27.6554 16.0909 24.2983 16.0909ZM13.2642 27V16.3168H16.581V27H13.2642Z" fill="white"/>
</svg>
