<svg width="1181" height="413" viewBox="0 0 1181 413" fill="none" xmlns="http://www.w3.org/2000/svg">
<path d="M29.2003 33.3C26.1003 36.6 26.1003 43.9 29.3003 46.7C30.5003 47.8 65.4003 71.3 106.8 98.9L182.1 149L202.8 148.8L223.5 148.5L224.4 145.8C225.2 143.7 225 142.6 223.7 141.2C222.7 140.1 185.4 114.9 140.7 85.1L59.5003 31H45.4003C32.0003 31 31.2003 31.1 29.2003 33.3Z" fill="#999779"/>
<path d="M109.5 33.4C108.6 34.8 108 37.3 108.2 39.2C108.5 42.4 110.8 44.1 172.5 85.2C227.3 121.8 237 128 240.1 128C247.2 128 247 129.7 247 79.3C247 37 246.9 34.2 245.2 32.7C243.5 31.2 237.3 31 177.2 31H111L109.5 33.4Z" fill="#999779"/>
<path d="M264.7 32.8C263.2 34.4 263 41.2 262.8 100.4L262.5 166.2L260.1 168.1C257.8 169.9 254.5 170 144 170C35.1 170 30.2 170.1 28.7 171.8C27.2 173.5 27 177.4 27 206.7C27 237.4 27.1 239.8 28.8 241.3C30.5 242.9 40 243 144.2 243C254.5 243 257.8 243.1 260.1 244.9L262.5 246.8L262.8 312.6C263 371.8 263.2 378.6 264.7 380.2C266.2 381.9 268.7 382 296.9 382C313.7 382 328 381.6 328.6 381.2C332 379 332 377.9 332 206.5C332 35.1 332 34 328.6 31.8C328 31.4 313.7 31 296.9 31C268.7 31 266.2 31.1 264.7 32.8Z" fill="#999779"/>
<path d="M349.6 32.6C349.3 33.5 349 66.9 349 106.9C349 162.1 349.3 179.9 350.2 180.8C352 182.6 384.4 182.5 385.9 180.7C386.6 179.8 387.1 168.5 387.2 145.9L387.5 112.5L397.3 129.8L407.1 147H419.5C434 147 431.2 149.3 444.1 126.7L452.5 111.8L453 146.7L453.5 181.5L471 181.8C486.6 182 488.6 181.9 489.7 180.3C491.6 177.8 491.6 35.2 489.7 32.7C488.6 31.1 486.5 31 470.6 31.2L452.8 31.5L437.6 61.2C423.3 89.3 420.8 93.2 418 91.5C417.5 91.2 410.2 77.4 401.9 61L386.8 31H368.5C352.7 31 350.1 31.2 349.6 32.6Z" fill="#999779"/>
<path d="M559.1 32.8C558.6 33.8 546.6 66.4 532.5 105.3C516.4 149.8 507 177 507.2 178.7L507.5 181.5L525.6 181.8C539.3 182 544 181.7 544.8 180.8C545.3 180.1 547 175.7 548.4 171C549.9 166.4 551.6 162 552.2 161.3C553 160.3 558.3 160 574.4 160C586 160 596 160.4 596.6 160.8C597.2 161.2 599 165.5 600.6 170.5C602.1 175.4 603.8 180.1 604.3 180.8C605.1 181.7 609.6 182 623.4 181.8L641.5 181.5L641.8 178.7C642 176.9 632.9 150.4 616.5 105.2C602.3 66.3 590.3 33.7 589.8 32.7C589 31.2 587.2 31 574.5 31C561.7 31 560 31.2 559.1 32.8ZM586.4 127.2C585.8 128.1 564.7 128.3 563.8 127.4C563.5 127.1 565.9 118.7 569.3 108.7L575.4 90.5L581.1 108.4C584.3 118.3 586.7 126.7 586.4 127.2Z" fill="#999779"/>
<path d="M659.2 32.2C657.6 33.8 657.5 177.1 659 180.1C660 181.9 661.5 182 692.8 182C728.9 182 733.2 181.5 744.3 175.9C751.9 172 761.5 162.5 765.2 155C770.9 143.5 771.5 139.3 771.5 106.5C771.5 73.8 770.9 69.7 765.3 58.1C761.9 51 751.1 40.2 744 36.8C732.7 31.4 729 31 693.3 31C669 31 660.1 31.3 659.2 32.2ZM722.7 67.1C725.7 68.5 727.9 70.6 729.7 73.7C732.1 77.8 732.4 79.6 733.1 92.4C734.1 110.6 732.9 133.4 730.8 137.5C728.7 141.4 724.2 145.6 720.7 146.9C719.1 147.5 712.9 148 706.9 148H696V106.5V65H707.2C716.5 65 719.1 65.4 722.7 67.1Z" fill="#999779"/>
<path d="M797.2 32.2C795.5 33.9 795.5 179.1 797.2 180.8C798.9 182.5 897.1 182.5 898.8 180.8C899.6 180 900 175.1 900 165.5C900 153 899.8 151.1 898.2 149.7C896.6 148.2 892.9 148 866.4 148C844.4 148 836.1 147.7 835.2 146.8C833.7 145.3 833.6 127.7 835 124.9C836 123.1 837.4 123 861.8 123C880.5 123 887.9 122.7 888.8 121.8C890.5 120.1 890.5 91.9 888.8 90.2C887.9 89.3 880.7 89 862.4 89C840.8 89 836.9 88.8 835.6 87.4C833.6 85.5 833.3 68.1 835.2 66.2C836.1 65.3 844.3 65 866 65C891.1 65 895.9 64.8 897.8 63.4C899.9 62 900 61.2 900 47.6C900 37.9 899.6 33 898.8 32.2C897.1 30.5 798.9 30.5 797.2 32.2Z" fill="#999779"/>
<path d="M972.6 32.6C971.8 34.6 971.8 178.4 972.6 180.4C973.1 181.8 975.7 182 990.4 182C1002.4 182 1008 181.6 1008.8 180.8C1010.5 179.1 1010.5 33.9 1008.8 32.2C1008 31.4 1002.4 31 990.4 31C975.7 31 973.1 31.2 972.6 32.6Z" fill="#999779"/>
<path d="M1035.5 32.2C1035.2 32.9 1035.1 66.8 1035.2 107.5L1035.5 181.5L1053.1 181.8C1067 182 1071 181.8 1071.8 180.7C1072.6 179.8 1073.1 169.5 1073.2 148.4L1073.5 117.5L1076 117.2C1078.3 117 1080.4 120 1099 149.2L1119.6 181.5H1136H1152.5V106.5V31.5L1135.1 31.2C1123.6 31 1117.3 31.3 1116.6 32C1115.9 32.7 1115.3 44 1115 64.3L1114.5 95.5H1112C1109.9 95.5 1106.9 91.3 1089 63.3L1068.5 31H1052.2C1040.1 31 1035.8 31.3 1035.5 32.2Z" fill="#999779"/>
<path d="M29.3 81.5L27 83.1V114.5C27 145.8 27 145.9 29.2 147.4C31.2 148.8 37.2 149 74.8 149H118.1L120.5 146.5C123 144.1 123.6 141.6 122.4 138.5C121.4 135.9 38 80.6 34.5 80.2C32.8 80 30.5 80.6 29.3 81.5Z" fill="#999779"/>
<path d="M350.2 226.349C349.3 227.249 349 245.749 349 303.249C349 344.949 349.3 379.649 349.6 380.549C350.1 381.949 354.6 382.149 389.4 382.149C422.6 382.149 429.5 381.949 434.1 380.549C449.8 375.849 459.7 366.649 464.6 352.149C466 348.149 466.5 343.849 466.4 336.149C466.4 322.449 464.2 316.549 455.9 307.949C452.7 304.649 450 301.749 450 301.549C450 301.349 452 298.949 454.5 296.149C463.2 286.349 466.1 276.649 464.1 263.449C461.1 243.449 449.1 230.949 428.7 226.749C418.9 224.649 352.2 224.349 350.2 226.349ZM421.6 264.249C425 267.749 425.9 274.449 423.5 279.049C421 283.949 417 285.149 402.6 285.149C387.7 285.149 388 285.349 388 273.149C388 260.549 387.5 260.949 404.6 261.349C418.6 261.649 419 261.749 421.6 264.249ZM421 322.649C424.9 324.649 427 328.949 427 334.649C427 338.449 426.4 339.849 423.6 342.949L420.2 346.649L405.7 346.949C387.6 347.349 388 347.649 388 334.549C388 320.649 387.3 321.149 404.1 321.149C414.7 321.149 418.8 321.549 421 322.649Z" fill="#999779"/>
<path d="M494.1 226.4C493.3 227.3 493.1 248.6 493.2 304.6L493.5 381.5L511.4 381.8C523.7 382 529.7 381.7 530.6 380.9C531.7 380 532 374.4 532 351.9V324H537.9H543.7L556.4 350.7C563.4 365.5 569.8 378.5 570.6 379.8C572 382 572.4 382 592.5 382C612.3 382 613 381.9 614.1 379.9C615 378.1 614.7 376.8 612.3 372.1C596.7 342.3 585 319.1 585 318.2C585 317.6 587.7 315 591 312.5C601.6 304.1 607.6 292.8 608.6 279.1C610.5 253.7 593.8 231.9 568.5 226.5C558.7 224.4 495.8 224.3 494.1 226.4ZM561.8 263C571.8 269.1 571.4 283.7 561 289.1C558.2 290.6 555.3 291 546 291C538.3 291 534 290.6 533.2 289.8C532.4 289 532 284.5 532 276C532 267.5 532.4 263 533.2 262.2C534 261.4 538.4 261 546.5 261C556.7 261 559 261.3 561.8 263Z" fill="#999779"/>
<path d="M637.1 226.4C636.3 227.3 636.1 248.6 636.2 304.6L636.5 381.5H655.5H674.5L674.8 304.6C674.9 248.6 674.7 227.3 673.9 226.4C673 225.3 668.8 225 655.5 225C642.2 225 638 225.3 637.1 226.4Z" fill="#999779"/>
<path d="M698.1 226.4C697.3 227.3 697 232.8 697.2 243.6L697.5 259.5L715 260C724.6 260.3 733.1 260.9 733.8 261.3C734.7 261.9 735 275 735 320.9C735 365.2 735.3 379.9 736.2 380.8C737 381.6 742.7 382 755.2 382C771.7 382 773 381.9 774 380.1C774.6 378.8 775 358.2 775 320.1C775 263.8 775.1 262 776.9 261C778 260.4 785.7 260 794.7 260C805.7 260 811 259.6 811.8 258.8C812.6 258 813 252.9 813 242.5C813 232.1 812.6 227 811.8 226.2C809.9 224.3 699.7 224.5 698.1 226.4Z" fill="#999779"/>
<path d="M862.8 226.3C862.1 227.1 849.1 261.6 834.1 303C813.4 359.9 807 378.7 807.7 379.9C808.6 381.3 811.6 381.5 827.2 381.8C841.3 382 846 381.7 846.7 380.8C847.3 380.1 849.2 375.2 850.9 369.8C852.7 364.4 854.8 359.9 855.6 359.6C856.5 359.3 866.7 359 878.5 359C897 359 899.9 359.2 901.1 360.6C901.9 361.5 903.9 366.6 905.5 371.9L908.6 381.5H928H947.5L947.8 378.9C948.1 376.3 896.2 231.7 893.4 227.2C892 225.1 891.4 225 878 225C867.8 225 863.8 225.3 862.8 226.3ZM885.1 306.8C888.2 316.5 890.5 324.8 890.3 325.2C889.7 326.3 867.2 326.2 866.6 325.1C865.9 324 878.2 287.9 879 288.7C879.3 288.9 882 297.1 885.1 306.8Z" fill="#999779"/>
<path d="M966.1 226.4C965.3 227.3 965.1 248.6 965.2 304.6L965.5 381.5H984.5H1003.5L1003.8 304.6C1003.9 248.6 1003.7 227.3 1002.9 226.4C1002 225.3 997.8 225 984.5 225C971.2 225 967 225.3 966.1 226.4Z" fill="#999779"/>
<path d="M1031.6 226.6C1030.2 228 1030 236.4 1030 303.9C1030 361.4 1030.3 379.9 1031.2 380.8C1032.9 382.5 1067.1 382.5 1068.8 380.8C1069.7 379.9 1070 371.2 1070 347.9C1070 321.1 1070.2 316.1 1071.5 315C1072.3 314.3 1073.6 314 1074.3 314.3C1075.1 314.6 1085.3 329.9 1097.1 348.4L1118.5 382L1135.5 381.8L1152.5 381.5L1152.8 304.6C1152.9 248.6 1152.7 227.3 1151.9 226.4C1150.4 224.5 1117 224.4 1115.2 226.2C1114.3 227.1 1114 235.9 1114 259.7C1114 290.1 1113.9 292 1112.1 292.9C1110.8 293.6 1109.8 293.6 1108.7 292.7C1107.9 292 1097.9 276.9 1086.5 259C1075.1 241.1 1065.3 226.2 1064.6 225.8C1064 225.4 1056.7 225 1048.3 225C1035.8 225 1032.9 225.3 1031.6 226.6Z" fill="#999779"/>
<path d="M29.2 265.6C27 267.1 27 267.2 27 298.5V330L29.5 331.6C30.9 332.5 33.2 333 34.7 332.8C38.1 332.3 121.5 276.8 122.4 274.5C123.6 271.4 123 268.9 120.5 266.5L118.1 264H74.8C37.2 264 31.2 264.2 29.2 265.6Z" fill="#999779"/>
<path d="M106.8 314.1C65.4 341.7 30.4999 365.2 29.2999 366.3C25.9999 369.2 26.0999 376.8 29.2999 379.8C31.4999 381.8 32.5999 382 45.5999 382H59.4999L140.7 327.9C185.4 298.1 222.7 272.9 223.7 271.8C225 270.4 225.2 269.3 224.4 267.2L223.5 264.5L202.8 264.2L182.1 264L106.8 314.1Z" fill="#999779"/>
<path d="M173.3 327.2L108.5 370.5L108.2 374.3C108 376.9 108.4 378.8 109.6 380.1C111.2 381.9 113.7 382 177.5 382C240.4 382 243.8 381.9 245.3 380.2C246.8 378.5 247 373.8 247 333.2V288.1L244.4 286.1C242.9 284.9 240.9 284 239.9 284C238.9 284 208.9 303.5 173.3 327.2Z" fill="#999779"/>
</svg>
