<svg width="40" height="40" viewBox="0 0 40 40" fill="none" xmlns="http://www.w3.org/2000/svg">
<rect width="40" height="40" rx="3" fill="#D7153A"/>
<path d="M25.9249 12.0495C24.5236 10.7279 22.5844 10 20.4645 10C17.2263 10 15.2347 11.3041 14.1341 12.3981C12.7777 13.7462 12 15.5364 12 17.3095C12 19.5358 12.9478 21.2446 14.5351 21.8803C14.6417 21.9232 14.7489 21.9448 14.854 21.9448C15.1889 21.9448 15.4542 21.7295 15.5461 21.3842C15.5997 21.1861 15.7238 20.6974 15.7778 20.4853C15.8934 20.0663 15.8 19.8648 15.548 19.573C15.089 19.0394 14.8752 18.4083 14.8752 17.587C14.8752 15.1475 16.7241 12.5548 20.1509 12.5548C22.8699 12.5548 24.5589 14.0731 24.5589 16.5171C24.5589 18.0594 24.2208 19.4877 23.6066 20.5391C23.1798 21.2696 22.4294 22.1404 21.2773 22.1404C20.7791 22.1404 20.3315 21.9394 20.0492 21.5888C19.7824 21.2575 19.6945 20.8294 19.8018 20.3833C19.923 19.8792 20.0882 19.3534 20.2482 18.8451C20.5399 17.9168 20.8157 17.0399 20.8157 16.3404C20.8157 15.1438 20.0669 14.3398 18.9527 14.3398C17.5366 14.3398 16.4272 15.7528 16.4272 17.5567C16.4272 18.4414 16.6665 19.1032 16.7748 19.3572C16.5964 20.0998 15.5362 24.5147 15.3351 25.3472C15.2188 25.8332 14.5183 29.6716 15.6777 29.9777C16.9804 30.3216 18.1449 26.5832 18.2634 26.1607C18.3594 25.8172 18.6955 24.5181 18.9015 23.7195C19.5304 24.3146 20.5429 24.717 21.5282 24.717C23.3856 24.717 25.056 23.8958 26.2317 22.4049C27.372 20.9588 28 18.9432 28 16.7298C27.9999 14.9994 27.2435 13.2934 25.9249 12.0495Z" fill="white"/>
</svg>
