<svg width="40" height="40" viewBox="0 0 40 40" fill="none" xmlns="http://www.w3.org/2000/svg">
<rect width="40" height="40" rx="3" fill="#55ACEE"/>
<path d="M30.6 13.3029C29.8055 13.6545 28.9512 13.8936 28.0547 13.999C28.9688 13.4506 29.6719 12.5822 30.0023 11.5486C29.148 12.0549 28.1988 12.424 27.1898 12.6244C26.3812 11.7631 25.2281 11.2217 23.9555 11.2217C21.5086 11.2217 19.5223 13.208 19.5223 15.6549C19.5223 16.0029 19.5609 16.3404 19.6383 16.6639C15.9539 16.4811 12.6879 14.7162 10.5047 12.0338C10.1215 12.6877 9.90352 13.4506 9.90352 14.2627C9.90352 15.799 10.684 17.1561 11.8758 17.9506C11.148 17.926 10.466 17.7291 9.86836 17.3951C9.86836 17.4162 9.86836 17.4338 9.86836 17.4514C9.86836 19.5994 11.3941 21.3924 13.4227 21.7967C13.05 21.8986 12.6598 21.9549 12.2555 21.9549C11.9707 21.9549 11.6895 21.9268 11.4223 21.874C11.9848 23.6354 13.623 24.915 15.5602 24.9537C14.0449 26.142 12.1324 26.8486 10.0582 26.8486C9.69961 26.8486 9.34805 26.8275 9 26.7854C10.9617 28.0439 13.2891 28.7787 15.7922 28.7787C23.9449 28.7787 28.4027 22.0252 28.4027 16.1682C28.4027 15.9783 28.3957 15.785 28.3887 15.5951C29.2535 14.9693 30.0059 14.1889 30.6 13.3029Z" fill="white"/>
</svg>
