<svg width="40" height="40" viewBox="0 0 40 40" fill="none" xmlns="http://www.w3.org/2000/svg">
<rect width="40" height="40" rx="3" fill="#FF0000"/>
<path d="M13.6797 10L15.1582 15.3438V17.9062H16.4395V15.3438L17.9375 10H16.6465L16.1094 12.4316C15.9584 13.1416 15.8624 13.6463 15.8184 13.9473H15.7793C15.7163 13.5263 15.6203 13.0179 15.4883 12.4219L14.9707 10H13.6797ZM19.4316 12.0176C18.9976 12.0176 18.6479 12.1024 18.3809 12.2754C18.1139 12.4474 17.917 12.7226 17.791 13.0996C17.666 13.4766 17.6035 13.9757 17.6035 14.5977V15.4375C17.6035 16.0525 17.6576 16.545 17.7676 16.916C17.8776 17.287 18.0632 17.5603 18.3242 17.7363C18.5852 17.9123 18.9443 18 19.4023 18C19.8483 18 20.2029 17.9132 20.4629 17.7402C20.7229 17.5672 20.9113 17.2959 21.0273 16.9219C21.1433 16.5479 21.2012 16.0535 21.2012 15.4375V14.5977C21.2012 13.9767 21.1424 13.4795 21.0234 13.1055C20.9044 12.7325 20.715 12.4572 20.457 12.2812C20.199 12.1053 19.8586 12.0176 19.4316 12.0176ZM21.8789 12.1309V16.4453C21.8789 16.9793 21.9684 17.372 22.1504 17.623C22.3324 17.874 22.615 18 22.998 18C23.55 18 23.9662 17.7332 24.2422 17.1992H24.2695L24.3828 17.9062H25.4004V12.1309H24.1016V16.7188C24.0516 16.8258 23.9751 16.9134 23.8711 16.9824C23.7671 17.0524 23.6599 17.0859 23.5469 17.0859C23.4149 17.0859 23.3207 17.0319 23.2637 16.9219C23.2067 16.8119 23.1777 16.6271 23.1777 16.3691V12.1309H21.8789ZM19.4023 12.9121C19.5843 12.9121 19.7132 13.0072 19.7852 13.1992C19.8572 13.3902 19.8926 13.6944 19.8926 14.1094V15.9082C19.8926 16.3352 19.8572 16.644 19.7852 16.832C19.7132 17.02 19.5853 17.1142 19.4043 17.1152C19.2223 17.1152 19.0963 17.02 19.0273 16.832C18.9573 16.644 18.9238 16.3352 18.9238 15.9082V14.1094C18.9238 13.6954 18.9593 13.3912 19.0312 13.1992C19.1032 13.0082 19.2263 12.9121 19.4023 12.9121ZM13 19C11.9 19 11 19.9 11 21V28C11 29.1 11.9 30 13 30H27C28.1 30 29 29.1 29 28V21C29 19.9 28.1 19 27 19H13ZM20.0488 21H21.1055V23.5684H21.1133C21.2083 23.3824 21.3445 23.2331 21.5195 23.1191C21.6945 23.0051 21.8839 22.9492 22.0859 22.9492C22.3459 22.9492 22.5493 23.0183 22.6973 23.1562C22.8453 23.2942 22.9535 23.5172 23.0195 23.8242C23.0855 24.1322 23.1172 24.5595 23.1172 25.1055V25.877H23.1191C23.1191 26.604 23.0305 27.1365 22.8555 27.4785C22.6805 27.8205 22.4081 27.9922 22.0371 27.9922C21.8301 27.9922 21.6427 27.9446 21.4727 27.8496C21.3027 27.7546 21.1748 27.624 21.0898 27.459H21.0664L20.9551 27.9199H20.0488V21ZM13.4863 21.2461H16.7383V22.1309H15.6484V27.9199H14.5762V22.1309H13.4863V21.2461ZM25.0977 22.9512C25.4737 22.9512 25.7628 23.0202 25.9648 23.1582C26.1658 23.2962 26.3076 23.5117 26.3906 23.8027C26.4726 24.0947 26.5137 24.4977 26.5137 25.0117V25.8477H24.6777V26.0957C24.6777 26.4087 24.6861 26.6428 24.7051 26.7988C24.7241 26.9548 24.7623 27.0696 24.8203 27.1406C24.8783 27.2126 24.9678 27.248 25.0898 27.248C25.2538 27.248 25.3667 27.1836 25.4277 27.0566C25.4887 26.9296 25.5223 26.7189 25.5273 26.4219L26.4746 26.4766C26.4796 26.5186 26.4824 26.5783 26.4824 26.6523C26.4824 27.1033 26.3583 27.4401 26.1113 27.6621C25.8643 27.8851 25.5174 27.9961 25.0664 27.9961C24.5254 27.9961 24.1457 27.8253 23.9277 27.4863C23.7097 27.1473 23.6016 26.6231 23.6016 25.9121V25.0605C23.6016 24.3285 23.7145 23.794 23.9395 23.457C24.1645 23.12 24.5517 22.9512 25.0977 22.9512ZM16.4102 23.0449H17.5098V26.625C17.5098 26.842 17.534 26.9978 17.582 27.0898C17.63 27.1828 17.7083 27.2285 17.8203 27.2285C17.9153 27.2285 18.0087 27.1996 18.0957 27.1406C18.1837 27.0826 18.2461 27.008 18.2891 26.918V23.0449H19.3887V27.9199H19.3867H18.5273L18.4336 27.3223H18.4082C18.1742 27.7743 17.8244 28 17.3574 28C17.0334 28 16.7966 27.8936 16.6426 27.6816C16.4886 27.4696 16.4102 27.1375 16.4102 26.6875V23.0449ZM25.0742 23.6934C24.9572 23.6934 24.8705 23.7289 24.8145 23.7969C24.7585 23.8659 24.7211 23.9788 24.7031 24.1348C24.6841 24.2908 24.6758 24.5277 24.6758 24.8457V25.1953H25.4785V24.8457C25.4785 24.5327 25.4683 24.2968 25.4473 24.1348C25.4273 23.9728 25.388 23.859 25.332 23.793C25.276 23.727 25.1912 23.6934 25.0742 23.6934ZM21.5918 23.7285C21.4858 23.7285 21.3888 23.7705 21.2988 23.8555C21.2088 23.9405 21.1444 24.0496 21.1074 24.1816V26.9492C21.1554 27.0342 21.2179 27.0976 21.2949 27.1406C21.3719 27.1826 21.4539 27.2051 21.5449 27.2051C21.6619 27.2051 21.7533 27.1631 21.8223 27.0781C21.8913 26.9931 21.9417 26.8504 21.9707 26.6484C21.9997 26.4474 22.0137 26.1675 22.0137 25.8125V25.1855C22.0137 24.8035 22.0025 24.5097 21.9785 24.3027C21.9545 24.0957 21.9116 23.9464 21.8516 23.8594C21.7906 23.7724 21.7038 23.7285 21.5918 23.7285Z" fill="white"/>
</svg>
