<?xml version="1.0" encoding="UTF-8"?>
<svg width="63px" height="55px" viewBox="0 0 63 55" version="1.1" xmlns="http://www.w3.org/2000/svg" xmlns:xlink="http://www.w3.org/1999/xlink">
    <title>emblem</title>
    <g id="Page-1" stroke="none" stroke-width="1" fill="none" fill-rule="evenodd">
        <g id="M&amp;W-Logo_PORT_BOX_REV-b-[Converte" transform="translate(-446.000000, -500.000000)">
            <g id="emblem" transform="translate(446.000000, 500.000000)">
                <path d="M16.477,12.893 L16.477,54.32 L17.174,54.32 L17.174,12.893 C17.174,6.168 22.646,0.696 29.371,0.696 C36.095,0.696 41.569,6.168 41.569,12.893 L41.569,54.389 L42.264,54.389 L42.264,12.893 C42.264,5.784 36.479,-2.84217094e-14 29.371,-2.84217094e-14 C22.26,-2.84217094e-14 16.477,5.784 16.477,12.893" id="Fill-2" fill="#FFFFFE"></path>
                <path d="M24.666,12.894 L24.666,54.461 L25.363,54.461 L25.363,12.894 C25.363,10.683 27.161,8.884 29.371,8.884 C31.581,8.884 33.379,10.683 33.379,12.894 L33.379,54.32 L34.077,54.32 L34.077,12.894 C34.077,10.299 31.965,8.19 29.371,8.19 C26.778,8.19 24.666,10.299 24.666,12.894" id="Fill-3" fill="#FFFFFE"></path>
                <polygon id="Fill-4" fill="#FFFFFE" points="16.745 26.986 41.715 26.986 41.715 26.289 16.745 26.289"></polygon>
                <polygon id="Fill-5" fill="#FFFFFE" points="16.745 40.826 41.715 40.826 41.715 40.13 16.745 40.13"></polygon>
                <polyline id="Fill-6" fill="#FFFFFE" points="21.877 2.717 26.617 9.484 27.185 9.084 22.448 2.318 21.877 2.717"></polyline>
                <polyline id="Fill-7" fill="#FFFFFE" points="31.517 9.136 32.087 9.534 36.827 2.767 36.254 2.369 31.517 9.136"></polyline>
                <polygon id="Fill-8" fill="#FFFFFE" points="33.705 13.494 41.892 13.494 41.892 12.798 33.705 12.798"></polygon>
                <polygon id="Fill-9" fill="#FFFFFE" points="16.827 13.494 25.014 13.494 25.014 12.798 16.827 12.798"></polygon>
                <path d="M16.48,54.2 L17.182,54.2 C17.182,36.806 26.734,21.177 42.108,13.417 L41.79,12.79 C26.18,20.672 16.48,36.539 16.48,54.2" id="Fill-10" fill="#877B67"></path>
                <path d="M23.284,17.168 C8.971,24.298 0.08,38.654 0.08,54.634 L0.776,54.634 C0.776,38.92 9.519,24.802 23.594,17.79 C29.314,14.941 35.478,13.495 41.916,13.495 L41.916,12.799 C35.369,12.799 29.1,14.268 23.284,17.168" id="Fill-11" fill="#877B67"></path>
                <path d="M41.502,12.794 C41.502,12.794 60.935,53.012 61.41,53.988 C60.318,53.988 0,53.998 0,53.998 L0,54.696 L62.519,54.683 L42.263,12.793 L41.502,12.794" id="Fill-12" fill="#877B67"></path>
            </g>
        </g>
    </g>
</svg>
