<?xml version="1.0" encoding="UTF-8"?>
<svg width="39px" height="7px" viewBox="0 0 39 7" version="1.1" xmlns="http://www.w3.org/2000/svg" xmlns:xlink="http://www.w3.org/1999/xlink">
    <title>est</title>
    <g id="Page-1" stroke="none" stroke-width="1" fill="none" fill-rule="evenodd">
        <g id="M&amp;W-Logo_PORT_BOX_REV-b-[Converte" transform="translate(-458.000000, -583.000000)" fill="#877B67">
            <g id="est" transform="translate(458.000000, 583.000000)">
                <path d="M0.819,2.471 C0.819,1.236 0.819,1.008 0.804,0.749 C0.786,0.473 0.723,0.342 0.454,0.285 C0.39,0.269 0.252,0.261 0.137,0.261 C0.049,0.261 2.84217094e-14,0.245 2.84217094e-14,0.187 C2.84217094e-14,0.13 0.057,0.114 0.177,0.114 C0.396,0.114 0.633,0.123 0.835,0.123 C1.048,0.13 1.234,0.138 1.348,0.138 C1.609,0.138 3.225,0.138 3.38,0.13 C3.533,0.114 3.664,0.099 3.728,0.081 C3.769,0.074 3.818,0.05 3.858,0.05 C3.899,0.05 3.907,0.081 3.907,0.123 C3.907,0.18 3.865,0.278 3.843,0.651 C3.834,0.733 3.818,1.09 3.802,1.188 C3.795,1.227 3.777,1.276 3.721,1.276 C3.664,1.276 3.648,1.236 3.648,1.163 C3.648,1.106 3.639,0.968 3.6,0.87 C3.541,0.724 3.46,0.626 3.054,0.578 C2.916,0.562 2.063,0.544 1.899,0.544 C1.859,0.544 1.844,0.569 1.844,0.626 L1.844,2.683 C1.844,2.739 1.851,2.773 1.899,2.773 C2.078,2.773 3.014,2.773 3.2,2.756 C3.394,2.739 3.517,2.715 3.59,2.634 C3.648,2.568 3.68,2.528 3.721,2.528 C3.753,2.528 3.777,2.544 3.777,2.593 C3.777,2.641 3.746,2.773 3.712,3.187 C3.704,3.349 3.68,3.673 3.68,3.73 C3.68,3.796 3.68,3.885 3.606,3.885 C3.551,3.885 3.533,3.852 3.533,3.812 C3.525,3.73 3.525,3.625 3.502,3.519 C3.46,3.357 3.346,3.235 3.047,3.203 C2.892,3.187 2.088,3.178 1.893,3.178 C1.851,3.178 1.844,3.21 1.844,3.259 L1.844,3.903 C1.844,4.178 1.836,4.925 1.844,5.162 C1.859,5.723 1.99,5.844 2.818,5.844 C3.03,5.844 3.371,5.844 3.582,5.747 C3.795,5.648 3.892,5.477 3.948,5.145 C3.963,5.056 3.98,5.022 4.038,5.022 C4.102,5.022 4.102,5.088 4.102,5.168 C4.102,5.357 4.038,5.909 3.996,6.071 C3.94,6.282 3.865,6.282 3.558,6.282 C2.948,6.282 2.501,6.266 2.152,6.259 C1.804,6.243 1.551,6.233 1.307,6.233 C1.218,6.233 1.038,6.233 0.843,6.243 C0.657,6.243 0.445,6.259 0.283,6.259 C0.177,6.259 0.121,6.233 0.121,6.177 C0.121,6.137 0.154,6.111 0.252,6.111 C0.374,6.111 0.472,6.095 0.543,6.079 C0.706,6.047 0.747,5.867 0.779,5.632 C0.819,5.29 0.819,4.649 0.819,3.903 L0.819,2.471" id="Fill-25"></path>
                <path d="M5.509,6.162 C5.38,6.105 5.355,6.064 5.355,5.884 C5.355,5.437 5.387,4.949 5.395,4.82 C5.404,4.699 5.429,4.608 5.493,4.608 C5.567,4.608 5.575,4.681 5.575,4.747 C5.575,4.851 5.606,5.023 5.647,5.16 C5.826,5.762 6.305,5.981 6.809,5.981 C7.541,5.981 7.898,5.486 7.898,5.055 C7.898,4.659 7.775,4.284 7.102,3.754 L6.727,3.462 C5.834,2.763 5.526,2.194 5.526,1.537 C5.526,0.644 6.273,2.84217094e-14 7.401,2.84217094e-14 C7.932,2.84217094e-14 8.273,0.083 8.483,0.138 C8.557,0.155 8.598,0.18 8.598,0.237 C8.598,0.342 8.565,0.578 8.565,1.212 C8.565,1.391 8.539,1.455 8.475,1.455 C8.419,1.455 8.393,1.406 8.393,1.308 C8.393,1.236 8.353,0.984 8.183,0.772 C8.06,0.62 7.824,0.375 7.297,0.375 C6.696,0.375 6.329,0.724 6.329,1.212 C6.329,1.586 6.517,1.87 7.191,2.382 L7.419,2.552 C8.402,3.293 8.752,3.852 8.752,4.625 C8.752,5.095 8.572,5.657 7.987,6.037 C7.581,6.298 7.126,6.373 6.696,6.373 C6.225,6.373 5.859,6.315 5.509,6.162" id="Fill-26"></path>
                <path d="M11.767,0.569 L10.557,0.602 C10.085,0.62 9.89,0.66 9.767,0.837 C9.687,0.959 9.646,1.057 9.631,1.123 C9.614,1.188 9.59,1.22 9.541,1.22 C9.484,1.22 9.468,1.179 9.468,1.089 C9.468,0.959 9.621,0.22 9.639,0.155 C9.663,0.049 9.687,0.001 9.736,0.001 C9.801,0.001 9.883,0.083 10.085,0.099 C10.321,0.123 10.63,0.139 10.897,0.139 L14.115,0.139 C14.376,0.139 14.554,0.114 14.676,0.099 C14.798,0.075 14.863,0.057 14.895,0.057 C14.953,0.057 14.961,0.106 14.961,0.229 C14.961,0.4 14.937,0.959 14.937,1.171 C14.928,1.251 14.912,1.3 14.863,1.3 C14.798,1.3 14.781,1.26 14.773,1.138 L14.767,1.049 C14.749,0.837 14.531,0.611 13.807,0.595 L12.783,0.569 L12.783,3.901 C12.783,4.649 12.783,5.291 12.824,5.641 C12.847,5.869 12.898,6.046 13.141,6.079 C13.255,6.095 13.433,6.113 13.556,6.113 C13.644,6.113 13.685,6.137 13.685,6.177 C13.685,6.235 13.621,6.257 13.531,6.257 C12.993,6.257 12.483,6.235 12.255,6.235 C12.068,6.235 11.556,6.257 11.23,6.257 C11.125,6.257 11.069,6.235 11.069,6.177 C11.069,6.137 11.101,6.113 11.199,6.113 C11.321,6.113 11.417,6.095 11.492,6.079 C11.653,6.046 11.702,5.869 11.727,5.631 C11.767,5.291 11.767,4.649 11.767,3.901 L11.767,0.569" id="Fill-27"></path>
                <path d="M15.035,5.738 C15.035,5.534 15.182,5.242 15.531,5.242 C15.807,5.242 16.026,5.428 16.026,5.713 C16.026,5.997 15.831,6.233 15.523,6.233 C15.182,6.233 15.035,5.966 15.035,5.738" id="Fill-28"></path>
                <path d="M21.074,2.496 L21.074,1.431 C21.074,1.237 21.074,1.139 20.953,1.139 C20.798,1.139 20.188,1.455 20.01,1.529 C19.969,1.546 19.928,1.562 19.896,1.562 C19.871,1.562 19.831,1.52 19.831,1.471 C19.831,1.422 19.871,1.381 19.913,1.358 C19.943,1.342 21.504,0.319 21.789,0.106 C21.861,0.057 21.935,0.001 22.001,0.001 C22.072,0.001 22.099,0.09 22.099,0.171 C22.099,0.236 22.05,1.041 22.05,2.285 L22.05,3.789 C22.05,4.568 22.05,5.259 22.082,5.617 C22.105,5.876 22.146,5.997 22.407,6.055 C22.528,6.079 22.879,6.104 22.943,6.104 C22.977,6.104 23.016,6.127 23.016,6.186 C23.016,6.243 22.977,6.257 22.887,6.257 C22.267,6.257 21.748,6.235 21.529,6.235 C21.343,6.235 20.659,6.257 20.139,6.257 C20.051,6.257 20.002,6.243 20.002,6.186 C20.002,6.127 20.033,6.104 20.066,6.104 C20.156,6.104 20.571,6.079 20.718,6.047 C20.977,5.991 21.017,5.876 21.042,5.617 C21.074,5.259 21.091,4.568 21.084,3.789 L21.074,2.496" id="Fill-29"></path>
                <path d="M28.331,2.211 C28.331,4.486 26.341,5.917 25.333,6.388 C25.292,6.413 25.252,6.42 25.187,6.42 C25.154,6.42 25.113,6.379 25.113,6.339 C25.113,6.282 25.169,6.235 25.211,6.201 C26.056,5.689 27.324,4.357 27.324,2.438 C27.324,0.999 26.715,0.367 26.089,0.367 C25.504,0.367 25.113,0.886 25.113,1.577 C25.113,2.821 25.918,3.114 26.194,3.114 C26.478,3.114 26.642,3.065 26.747,3.016 C26.837,2.967 26.876,2.927 26.91,2.927 C26.942,2.927 26.974,2.958 26.974,3 C26.974,3.023 26.949,3.072 26.935,3.088 C26.699,3.34 26.276,3.462 25.861,3.462 C24.69,3.462 24.203,2.578 24.203,1.895 C24.203,0.796 25.032,0.001 26.284,0.001 C27.608,0.001 28.331,0.976 28.331,2.211" id="Fill-30"></path>
                <path d="M29.535,6.226 C29.397,6.153 29.38,6.079 29.38,5.908 C29.38,5.64 29.372,5.153 29.413,4.885 C29.431,4.803 29.455,4.738 29.502,4.738 C29.559,4.738 29.577,4.787 29.577,4.876 C29.577,5.747 30.113,5.966 30.682,5.966 C31.33,5.966 32.021,5.535 32.021,4.479 C32.021,3.178 30.607,2.642 29.965,2.553 C29.869,2.537 29.811,2.496 29.818,2.391 L30.007,0.246 C30.016,0.163 30.071,0.139 30.162,0.139 L32.152,0.139 C32.38,0.139 32.517,0.123 32.607,0.106 C32.695,0.099 32.744,0.083 32.769,0.083 C32.834,0.083 32.851,0.114 32.851,0.237 C32.851,0.408 32.826,0.766 32.744,1.278 C32.736,1.325 32.714,1.373 32.656,1.373 C32.607,1.373 32.59,1.325 32.59,1.26 C32.59,1.033 32.534,0.822 31.876,0.822 L30.397,0.822 L30.282,1.813 C31.494,2.008 32.973,2.674 32.973,4.089 C32.973,5.168 32.185,6.371 30.3,6.371 C30.038,6.371 29.738,6.323 29.535,6.226" id="Fill-31"></path>
                <path d="M36.435,1.489 L36.409,1.489 C36.224,1.756 34.875,3.634 34.599,3.999 L36.435,3.999 L36.435,1.489 Z M33.94,4.632 C33.843,4.632 33.738,4.601 33.738,4.511 C33.738,4.413 33.811,4.339 33.843,4.299 C33.899,4.235 36.932,0.229 36.995,0.148 C37.061,0.074 37.125,0.001 37.207,0.001 C37.281,0.001 37.305,0.057 37.305,0.139 C37.305,0.261 37.296,0.831 37.296,1.358 L37.296,3.999 L37.924,3.999 C38.142,3.999 38.248,3.917 38.296,3.917 C38.336,3.917 38.37,3.952 38.37,4.015 C38.37,4.088 38.287,4.421 38.231,4.528 C38.19,4.601 38.149,4.632 38.012,4.632 L37.296,4.632 C37.296,4.893 37.288,5.259 37.32,5.617 C37.345,5.869 37.393,6.013 37.662,6.072 C37.775,6.095 37.946,6.104 38.028,6.104 C38.067,6.104 38.101,6.128 38.101,6.186 C38.101,6.243 38.06,6.257 37.97,6.257 C37.517,6.257 36.995,6.235 36.824,6.235 C36.598,6.235 36.159,6.257 35.714,6.257 C35.623,6.257 35.583,6.243 35.583,6.186 C35.583,6.128 35.605,6.104 35.647,6.104 C35.721,6.104 35.899,6.095 36.028,6.079 C36.339,6.047 36.394,5.869 36.409,5.617 C36.443,5.259 36.435,4.893 36.435,4.632 L33.94,4.632 L33.94,4.632 Z" id="Fill-32"></path>
            </g>
        </g>
    </g>
</svg>